  0
SECTION
  2
HEADER
  9
$ACADVER
  1
AC1014
  9
$HANDSEED
  5
FFFF
  9
$MEASUREMENT
 70
     1
  0
ENDSEC
  0
SECTION
  2
TABLES
  0
TABLE
  2
VPORT
  5
8
330
0
100
AcDbSymbolTable
 70
     4
  0
VPORT
  5
2E
330
8
100
AcDbSymbolTableRecord
100
AcDbViewportTableRecord
  2
*ACTIVE
 70
     0
 10
0.0
 20
0.0
 11
1.0
 21
1.0
 12
210.0
 22
148.5
 13
0.0
 23
0.0
 14
10.0
 24
10.0
 15
10.0
 25
10.0
 16
0.0
 26
0.0
 36
1.0
 17
0.0
 27
0.0
 37
0.0
 40
341.0
 41
1.24
 42
50.0
 43
0.0
 44
0.0
 50
0.0
 51
0.0
 71
     0
 72
   100
 73
     1
 74
     3
 75
     0
 76
     0
 77
     0
 78
     0
  0
ENDTAB
  0
TABLE
  2
LTYPE
  5
5
330
0
100
AcDbSymbolTable
 70
     1
  0
LTYPE
  5
14
330
5
100
AcDbSymbolTableRecord
100
AcDbLinetypeTableRecord
  2
BYBLOCK
 70
     0
  3

 72
    65
 73
     0
 40
0.0
  0
LTYPE
  5
15
330
5
100
AcDbSymbolTableRecord
100
AcDbLinetypeTableRecord
  2
BYLAYER
 70
     0
  3

 72
    65
 73
     0
 40
0.0
  0
LTYPE
  5
16
330
5
100
AcDbSymbolTableRecord
100
AcDbLinetypeTableRecord
  2
CONTINUOUS
 70
     0
  3
Solid line
 72
    65
 73
     0
 40
0.0
  0
ENDTAB
  0
TABLE
  2
LAYER
  5
2
100
AcDbSymbolTable
 70
2
  0
LAYER
  5
50
100
AcDbSymbolTableRecord
100
AcDbLayerTableRecord
  2
0
 70
0
  6
CONTINUOUS
  0
LAYER
  5
51
100
AcDbSymbolTableRecord
100
AcDbLayerTableRecord
  2
Calque_1
 70
0
  6
CONTINUOUS
  0
ENDTAB
  0
TABLE
  2
STYLE
  5
3
330
0
100
AcDbSymbolTable
 70
     1
  0
STYLE
  5
11
330
3
100
AcDbSymbolTableRecord
100
AcDbTextStyleTableRecord
  2
STANDARD
 70
     0
 40
0.0
 41
1.0
 50
0.0
 71
     0
 42
2.5
  3
txt
  4

  0
ENDTAB
  0
TABLE
  2
VIEW
  5
6
330
0
100
AcDbSymbolTable
 70
     0
  0
ENDTAB
  0
TABLE
  2
UCS
  5
7
330
0
100
AcDbSymbolTable
 70
     0
  0
ENDTAB
  0
TABLE
  2
APPID
  5
9
330
0
100
AcDbSymbolTable
 70
     2
  0
APPID
  5
12
330
9
100
AcDbSymbolTableRecord
100
AcDbRegAppTableRecord
  2
ACAD
 70
     0
  0
ENDTAB
  0
TABLE
  2
DIMSTYLE
  5
A
330
0
100
AcDbSymbolTable
 70
     1
  0
DIMSTYLE
105
27
330
A
100
AcDbSymbolTableRecord
100
AcDbDimStyleTableRecord
  2
ISO-25
 70
     0
  3

  4

  5

  6

  7

 40
1.0
 41
2.5
 42
0.625
 43
3.75
 44
1.25
 45
0.0
 46
0.0
 47
0.0
 48
0.0
140
2.5
141
2.5
142
0.0
143
0.03937007874016
144
1.0
145
0.0
146
1.0
147
0.625
 71
     0
 72
     0
 73
     0
 74
     0
 75
     0
 76
     0
 77
     1
 78
     8
170
     0
171
     3
172
     1
173
     0
174
     0
175
     0
176
     0
177
     0
178
     0
270
     2
271
     2
272
     2
273
     2
274
     3
340
11
275
     0
280
     0
281
     0
282
     0
283
     0
284
     8
285
     0
286
     0
287
     3
288
     0
  0
ENDTAB
  0
TABLE
  2
BLOCK_RECORD
  5
1
330
0
100
AcDbSymbolTable
 70
     1
  0
BLOCK_RECORD
  5
1F
330
1
100
AcDbSymbolTableRecord
100
AcDbBlockTableRecord
  2
*MODEL_SPACE
  0
BLOCK_RECORD
  5
1B
330
1
100
AcDbSymbolTableRecord
100
AcDbBlockTableRecord
  2
*PAPER_SPACE
  0
ENDTAB
  0
ENDSEC
  0
SECTION
  2
BLOCKS
  0
BLOCK
  5
20
330
1F
100
AcDbEntity
  8
0
100
AcDbBlockBegin
  2
*MODEL_SPACE
 70
     0
 10
0.0
 20
0.0
 30
0.0
  3
*MODEL_SPACE
  1

  0
ENDBLK
  5
21
330
1F
100
AcDbEntity
  8
0
100
AcDbBlockEnd
  0
BLOCK
  5
1C
330
1B
100
AcDbEntity
 67
     1
  8
0
100
AcDbBlockBegin
  2
*PAPER_SPACE
  1

  0
ENDBLK
  5
1D
330
1B
100
AcDbEntity
 67
     1
  8
0
100
AcDbBlockEnd
  0
ENDSEC
  0
SECTION
  2
ENTITIES
  0
LWPOLYLINE
  5
100
100
AcDbEntity
  8
Calque_1
 62
5
100
AcDbPolyline
 90
4
 70
1
 10
0.000000
 20
26.458362
 30
0.0
 10
0.000000
 20
0.000000
 30
0.0
 10
26.458360
 20
0.000000
 30
0.0
 10
26.458360
 20
26.458362
 30
0.0
  0
LWPOLYLINE
  5
101
100
AcDbEntity
  8
Calque_1
 62
5
100
AcDbPolyline
 90
7
 70
1
 10
2.645810
 20
23.812415
 30
0.0
 10
23.812413
 20
23.812415
 30
0.0
 10
23.812413
 20
5.291622
 30
0.0
 10
23.812413
 20
2.645807
 30
0.0
 10
5.291617
 20
2.645807
 30
0.0
 10
2.645810
 20
2.645807
 30
0.0
 10
2.645810
 20
21.166608
 30
0.0
  0
LWPOLYLINE
  5
102
100
AcDbEntity
  8
Calque_1
 62
5
100
AcDbPolyline
 90
4
 70
1
 10
5.291617
 20
21.166608
 30
0.0
 10
5.291617
 20
18.520794
 30
0.0
 10
7.937426
 20
18.520794
 30
0.0
 10
7.937426
 20
21.166608
 30
0.0
  0
LWPOLYLINE
  5
103
100
AcDbEntity
  8
Calque_1
 62
5
100
AcDbPolyline
 90
8
 70
1
 10
13.229181
 20
21.166608
 30
0.0
 10
13.229181
 20
18.520794
 30
0.0
 10
10.583371
 20
18.520794
 30
0.0
 10
10.583371
 20
15.874987
 30
0.0
 10
13.229181
 20
15.874987
 30
0.0
 10
15.874989
 20
15.874987
 30
0.0
 10
15.874989
 20
18.520794
 30
0.0
 10
15.874989
 20
21.166608
 30
0.0
  0
LWPOLYLINE
  5
104
100
AcDbEntity
  8
Calque_1
 62
5
100
AcDbPolyline
 90
6
 70
1
 10
15.874989
 20
15.874987
 30
0.0
 10
15.874989
 20
13.229180
 30
0.0
 10
18.520798
 20
13.229180
 30
0.0
 10
21.166606
 20
13.229180
 30
0.0
 10
21.166606
 20
15.874987
 30
0.0
 10
18.520798
 20
15.874987
 30
0.0
  0
LWPOLYLINE
  5
105
100
AcDbEntity
  8
Calque_1
 62
5
100
AcDbPolyline
 90
18
 70
1
 10
15.874989
 20
13.229180
 30
0.0
 10
13.229181
 20
13.229180
 30
0.0
 10
10.583371
 20
13.229180
 30
0.0
 10
10.583371
 20
15.874987
 30
0.0
 10
7.937426
 20
15.874987
 30
0.0
 10
7.937426
 20
13.229180
 30
0.0
 10
5.291617
 20
13.229180
 30
0.0
 10
5.291617
 20
5.291622
 30
0.0
 10
7.937426
 20
5.291622
 30
0.0
 10
7.937426
 20
7.937429
 30
0.0
 10
10.583371
 20
7.937429
 30
0.0
 10
13.229181
 20
7.937429
 30
0.0
 10
13.229181
 20
5.291622
 30
0.0
 10
15.874989
 20
5.291622
 30
0.0
 10
15.874989
 20
7.937429
 30
0.0
 10
18.520798
 20
7.937429
 30
0.0
 10
18.520798
 20
10.583373
 30
0.0
 10
15.874989
 20
10.583373
 30
0.0
  0
LWPOLYLINE
  5
106
100
AcDbEntity
  8
Calque_1
 62
5
100
AcDbPolyline
 90
4
 70
1
 10
29.328549
 20
26.458354
 30
0.0
 10
29.328549
 20
0.000000
 30
0.0
 10
55.786908
 20
0.000000
 30
0.0
 10
55.786908
 20
26.458354
 30
0.0
  0
LWPOLYLINE
  5
107
100
AcDbEntity
  8
Calque_1
 62
5
100
AcDbPolyline
 90
4
 70
1
 10
31.974356
 20
23.812548
 30
0.0
 10
53.141104
 20
23.812548
 30
0.0
 10
53.141104
 20
2.645807
 30
0.0
 10
31.974356
 20
2.645807
 30
0.0
  0
LWPOLYLINE
  5
108
100
AcDbEntity
  8
Calque_1
 62
5
100
AcDbPolyline
 90
4
 70
1
 10
34.620201
 20
21.166658
 30
0.0
 10
34.620201
 20
18.520850
 30
0.0
 10
37.266146
 20
18.520850
 30
0.0
 10
37.266146
 20
21.166658
 30
0.0
  0
LWPOLYLINE
  5
109
100
AcDbEntity
  8
Calque_1
 62
5
100
AcDbPolyline
 90
22
 70
1
 10
42.557763
 20
21.166658
 30
0.0
 10
42.557763
 20
18.520850
 30
0.0
 10
39.911955
 20
18.520850
 30
0.0
 10
39.911955
 20
15.875042
 30
0.0
 10
42.557763
 20
15.875042
 30
0.0
 10
42.557763
 20
13.229232
 30
0.0
 10
39.911955
 20
13.229232
 30
0.0
 10
39.911955
 20
10.583424
 30
0.0
 10
42.557763
 20
10.583424
 30
0.0
 10
45.203572
 20
10.583424
 30
0.0
 10
45.203572
 20
7.937616
 30
0.0
 10
45.203572
 20
5.291669
 30
0.0
 10
47.849380
 20
5.291669
 30
0.0
 10
50.495326
 20
5.291669
 30
0.0
 10
50.495326
 20
7.937616
 30
0.0
 10
50.495326
 20
10.583424
 30
0.0
 10
47.849380
 20
10.583424
 30
0.0
 10
47.849380
 20
13.229232
 30
0.0
 10
45.203572
 20
13.229232
 30
0.0
 10
45.203572
 20
15.875042
 30
0.0
 10
45.203572
 20
18.520850
 30
0.0
 10
45.203572
 20
21.166658
 30
0.0
  0
LWPOLYLINE
  5
10a
100
AcDbEntity
  8
Calque_1
 62
5
100
AcDbPolyline
 90
6
 70
1
 10
47.849380
 20
13.229232
 30
0.0
 10
50.495326
 20
13.229232
 30
0.0
 10
50.495326
 20
15.875042
 30
0.0
 10
50.495326
 20
18.520850
 30
0.0
 10
47.849380
 20
18.520850
 30
0.0
 10
47.849380
 20
15.875042
 30
0.0
  0
LWPOLYLINE
  5
10b
100
AcDbEntity
  8
Calque_1
 62
5
100
AcDbPolyline
 90
6
 70
1
 10
34.620201
 20
13.229232
 30
0.0
 10
34.620201
 20
10.583424
 30
0.0
 10
34.620201
 20
7.937616
 30
0.0
 10
37.266146
 20
7.937616
 30
0.0
 10
37.266146
 20
10.583424
 30
0.0
 10
37.266146
 20
13.229232
 30
0.0
  0
LWPOLYLINE
  5
10c
100
AcDbEntity
  8
Calque_1
 62
5
100
AcDbPolyline
 90
4
 70
1
 10
37.266146
 20
7.937616
 30
0.0
 10
37.266146
 20
5.291669
 30
0.0
 10
39.911955
 20
5.291669
 30
0.0
 10
39.911955
 20
7.937616
 30
0.0
  0
LWPOLYLINE
  5
10d
100
AcDbEntity
  8
Calque_1
 62
5
100
AcDbPolyline
 90
4
 70
1
 10
58.657097
 20
26.458354
 30
0.0
 10
58.657097
 20
0.000000
 30
0.0
 10
85.115457
 20
0.000000
 30
0.0
 10
85.115457
 20
26.458354
 30
0.0
  0
LWPOLYLINE
  5
10e
100
AcDbEntity
  8
Calque_1
 62
5
100
AcDbPolyline
 90
4
 70
1
 10
61.302907
 20
23.812548
 30
0.0
 10
82.469645
 20
23.812548
 30
0.0
 10
82.469645
 20
2.645807
 30
0.0
 10
61.302907
 20
2.645807
 30
0.0
  0
LWPOLYLINE
  5
10f
100
AcDbEntity
  8
Calque_1
 62
5
100
AcDbPolyline
 90
24
 70
1
 10
71.886300
 20
21.166658
 30
0.0
 10
71.886300
 20
18.520850
 30
0.0
 10
69.240491
 20
18.520850
 30
0.0
 10
69.240491
 20
15.875042
 30
0.0
 10
69.240491
 20
13.229232
 30
0.0
 10
69.240491
 20
10.583288
 30
0.0
 10
66.594546
 20
10.583288
 30
0.0
 10
66.594546
 20
7.937476
 30
0.0
 10
63.948738
 20
7.937476
 30
0.0
 10
63.948738
 20
5.291669
 30
0.0
 10
66.594546
 20
5.291669
 30
0.0
 10
69.240491
 20
5.291669
 30
0.0
 10
71.886300
 20
5.291669
 30
0.0
 10
74.532109
 20
5.291669
 30
0.0
 10
74.532109
 20
7.937476
 30
0.0
 10
71.886300
 20
7.937476
 30
0.0
 10
71.886300
 20
10.583288
 30
0.0
 10
71.886300
 20
13.229232
 30
0.0
 10
71.886300
 20
15.875042
 30
0.0
 10
74.532109
 20
15.875042
 30
0.0
 10
77.177917
 20
15.875042
 30
0.0
 10
77.177917
 20
18.520850
 30
0.0
 10
74.532109
 20
18.520850
 30
0.0
 10
74.532109
 20
21.166658
 30
0.0
  0
LWPOLYLINE
  5
110
100
AcDbEntity
  8
Calque_1
 62
5
100
AcDbPolyline
 90
4
 70
1
 10
66.594546
 20
10.583288
 30
0.0
 10
66.594546
 20
13.229232
 30
0.0
 10
63.948738
 20
13.229232
 30
0.0
 10
63.948738
 20
10.583288
 30
0.0
  0
LWPOLYLINE
  5
111
100
AcDbEntity
  8
Calque_1
 62
5
100
AcDbPolyline
 90
4
 70
1
 10
74.532109
 20
13.229232
 30
0.0
 10
74.532109
 20
10.583288
 30
0.0
 10
77.177917
 20
10.583288
 30
0.0
 10
77.177917
 20
13.229232
 30
0.0
  0
LWPOLYLINE
  5
112
100
AcDbEntity
  8
Calque_1
 62
5
100
AcDbPolyline
 90
4
 70
1
 10
77.177917
 20
7.937476
 30
0.0
 10
77.177917
 20
5.291669
 30
0.0
 10
79.823725
 20
5.291669
 30
0.0
 10
79.823725
 20
7.937476
 30
0.0
  0
ENDSEC
  0
SECTION
  2
OBJECTS
  0
DICTIONARY
  5
C
330
0
100
AcDbDictionary
  3
ACAD_GROUP
350
D
  3
ACAD_MLINESTYLE
350
17
  0
DICTIONARY
  5
D
330
C
100
AcDbDictionary
  0
DICTIONARY
  5
1A
330
C
100
AcDbDictionary
  0
DICTIONARY
  5
17
330
C
100
AcDbDictionary
  3
STANDARD
350
18
  0
DICTIONARY
  5
19
330
C
100
AcDbDictionary
  0
ENDSEC
  0
EOF
