<?xml version="1.0" encoding="UTF-8" standalone="no"?>
<!DOCTYPE svg PUBLIC "-//W3C//DTD SVG 1.0//EN" "http://www.w3.org/TR/2001/PR-SVG-20010719/DTD/svg10.dtd">
<svg width="21cm" height="19cm" viewBox="261 289 413 373" xmlns="http://www.w3.org/2000/svg" xmlns:xlink="http://www.w3.org/1999/xlink">
  <g>
    <rect style="fill: #ffffff" x="262.796" y="537.632" width="169.645" height="110.957"/>
    <rect style="fill: none; fill-opacity:0; stroke-width: 2; stroke: #000000" x="262.796" y="537.632" width="169.645" height="110.957"/>
    <rect style="fill: #ffffff" x="262.796" y="517.632" width="81" height="20"/>
    <rect style="fill: none; fill-opacity:0; stroke-width: 2; stroke: #000000" x="262.796" y="517.632" width="81" height="20"/>
    <text font-size="12.7998" style="fill: #000000;text-anchor:start;font-family:monospace;font-style:normal;font-weight:normal" x="264.796" y="532.632">Processing</text>
  </g>
  <text font-size="12.7998" style="fill: #000000;text-anchor:start;font-family:sans-serif;font-style:normal;font-weight:normal" x="329.604" y="586.255">
    <tspan x="329.604" y="586.255"></tspan>
  </text>
  <g>
    <rect style="fill: #ffffff" x="476.896" y="549.324" width="195.928" height="110.998"/>
    <rect style="fill: none; fill-opacity:0; stroke-width: 2; stroke: #000000" x="476.896" y="549.324" width="195.928" height="110.998"/>
    <rect style="fill: #ffffff" x="476.896" y="529.324" width="50.2" height="20"/>
    <rect style="fill: none; fill-opacity:0; stroke-width: 2; stroke: #000000" x="476.896" y="529.324" width="50.2" height="20"/>
    <text font-size="12.7998" style="fill: #000000;text-anchor:start;font-family:monospace;font-style:normal;font-weight:normal" x="478.896" y="544.324">JavaCV</text>
  </g>
  <g>
    <rect style="fill: #ffffff" x="490.124" y="310.032" width="163.133" height="80.7258"/>
    <rect style="fill: none; fill-opacity:0; stroke-width: 2; stroke: #000000" x="490.124" y="310.032" width="163.133" height="80.7258"/>
    <rect style="fill: #ffffff" x="490.124" y="290.032" width="50.2" height="20"/>
    <rect style="fill: none; fill-opacity:0; stroke-width: 2; stroke: #000000" x="490.124" y="290.032" width="50.2" height="20"/>
    <text font-size="12.7998" style="fill: #000000;text-anchor:start;font-family:monospace;font-style:normal;font-weight:normal" x="492.124" y="305.032">OpenCV</text>
  </g>
  <g>
    <polyline style="fill: none; fill-opacity:0; stroke-width: 2; stroke-dasharray: 8; stroke: #000000" points="574.86,528.323 574.86,462.539 571.69,462.539 571.69,398.456 "/>
    <polyline style="fill: none; fill-opacity:0; stroke-width: 2; stroke: #000000" points="576.69,411.103 571.69,395.103 566.69,411.103 "/>
  </g>
</svg>
