<?xml version="1.0" encoding="UTF-8" standalone="no"?>
<!DOCTYPE svg PUBLIC "-//W3C//DTD SVG 1.0//EN" "http://www.w3.org/TR/2001/PR-SVG-20010719/DTD/svg10.dtd">
<svg width="64cm" height="43cm" viewBox="296 389 1265 849" xmlns="http://www.w3.org/2000/svg" xmlns:xlink="http://www.w3.org/1999/xlink">
  <g>
    <rect style="fill: #ffffff" x="1381.99" y="669.356" width="179.276" height="250.585"/>
    <rect style="fill: none; fill-opacity:0; stroke-width: 2.35099e-37; stroke: #000000" x="1381.99" y="669.356" width="179.276" height="250.585"/>
  </g>
  <g>
    <rect style="fill: #ffffff" x="1391.31" y="784.986" width="156.397" height="124.598"/>
    <rect style="fill: none; fill-opacity:0; stroke-width: 2; stroke: #000000" x="1391.31" y="784.986" width="156.397" height="124.598"/>
  </g>
  <g>
    <rect style="fill: #ffffff" x="887.504" y="541.73" width="404.254" height="166.284"/>
    <rect style="fill: none; fill-opacity:0; stroke-width: 2.35099e-37; stroke: #000000" x="887.504" y="541.73" width="404.254" height="166.284"/>
  </g>
  <g>
    <rect style="fill: #ffffff" x="542.668" y="888.972" width="492.97" height="348.489"/>
    <rect style="fill: none; fill-opacity:0; stroke-width: 2; stroke: #000000" x="542.668" y="888.972" width="492.97" height="348.489"/>
  </g>
  <text font-size="14.382" style="fill: #000000;text-anchor:start;font-family:sans-serif;font-style:normal;font-weight:normal" x="845.902" y="912.614">
    <tspan x="845.902" y="912.614">Bibliothèques Processing</tspan>
  </text>
  <g>
    <rect style="fill: #ffffff" x="1189.8" y="642.028" width="96.9891" height="59.3637"/>
    <rect style="fill: none; fill-opacity:0; stroke-width: 2; stroke: #000000" x="1189.8" y="642.028" width="96.9891" height="59.3637"/>
  </g>
  <g>
    <rect style="fill: #ffffff" x="296.824" y="389.614" width="203.672" height="291.8"/>
    <rect style="fill: none; fill-opacity:0; stroke-width: 2.35099e-37; stroke: #000000" x="296.824" y="389.614" width="203.672" height="291.8"/>
  </g>
  <text font-size="14.382" style="fill: #000000;text-anchor:start;font-family:sans-serif;font-style:normal;font-weight:normal" x="365.008" y="415.97">
    <tspan x="365.008" y="415.97">Analyse d'Image</tspan>
    <tspan x="365.008" y="433.948"></tspan>
  </text>
  <g>
    <rect style="fill: #ffffff" x="1133.01" y="984.992" width="262.26" height="155.31"/>
    <rect style="fill: none; fill-opacity:0; stroke-width: 2; stroke: #000000" x="1133.01" y="984.992" width="262.26" height="155.31"/>
    <rect style="fill: #ffffff" x="1133.01" y="964.992" width="81" height="20"/>
    <rect style="fill: none; fill-opacity:0; stroke-width: 2; stroke: #000000" x="1133.01" y="964.992" width="81" height="20"/>
    <text font-size="12.7998" style="fill: #000000;text-anchor:start;font-family:monospace;font-style:normal;font-weight:normal" x="1135.01" y="979.992">Processing</text>
  </g>
  <text font-size="12.8" style="fill: #000000;text-anchor:start;font-family:sans-serif;font-style:normal;font-weight:normal" x="1199.82" y="1033.62">
    <tspan x="1199.82" y="1033.62"></tspan>
  </text>
  <g>
    <rect style="fill: #e1ba89" x="542.668" y="700.188" width="254.071" height="77.22"/>
    <rect style="fill: none; fill-opacity:0; stroke-width: 2; stroke: #000000" x="542.668" y="700.188" width="254.071" height="77.22"/>
    <rect style="fill: #e1ba89" x="542.668" y="680.188" width="50.2" height="20"/>
    <rect style="fill: none; fill-opacity:0; stroke-width: 2; stroke: #000000" x="542.668" y="680.188" width="50.2" height="20"/>
    <text font-size="12.7998" style="fill: #000000;text-anchor:start;font-family:monospace;font-style:normal;font-weight:normal" x="544.668" y="695.188">JavaCV</text>
  </g>
  <g>
    <rect style="fill: #b7d8f2" x="518.11" y="536.896" width="303.616" height="97.8879"/>
    <rect style="fill: none; fill-opacity:0; stroke-width: 2; stroke: #000000" x="518.11" y="536.896" width="303.616" height="97.8879"/>
    <rect style="fill: #b7d8f2" x="518.11" y="516.896" width="50.2" height="20"/>
    <rect style="fill: none; fill-opacity:0; stroke-width: 2; stroke: #000000" x="518.11" y="516.896" width="50.2" height="20"/>
    <text font-size="12.7998" style="fill: #000000;text-anchor:start;font-family:monospace;font-style:normal;font-weight:normal" x="520.11" y="531.896">OpenCV</text>
  </g>
  <g>
    <rect style="fill: #e18989" x="899.572" y="667.974" width="89" height="28"/>
    <rect style="fill: none; fill-opacity:0; stroke-width: 2; stroke: #000000" x="899.572" y="667.974" width="89" height="28"/>
    <rect style="fill: #e18989" x="899.572" y="649.974" width="30" height="18"/>
    <rect style="fill: none; fill-opacity:0; stroke-width: 2; stroke: #000000" x="899.572" y="649.974" width="30" height="18"/>
    <text font-size="12.8" style="fill: #000000;text-anchor:start;font-family:monospace;font-style:normal;font-weight:normal" x="905.572" y="685.874">
      <tspan x="905.572" y="685.874">FlyCapture</tspan>
    </text>
  </g>
  <g>
    <rect style="fill: #e1ba89" x="899.572" y="572.456" width="112.1" height="28"/>
    <rect style="fill: none; fill-opacity:0; stroke-width: 2; stroke: #000000" x="899.572" y="572.456" width="112.1" height="28"/>
    <rect style="fill: #e1ba89" x="899.572" y="554.456" width="30" height="18"/>
    <rect style="fill: none; fill-opacity:0; stroke-width: 2; stroke: #000000" x="899.572" y="554.456" width="30" height="18"/>
    <text font-size="12.8" style="fill: #000000;text-anchor:start;font-family:monospace;font-style:normal;font-weight:normal" x="905.572" y="590.356">
      <tspan x="905.572" y="590.356">Video 4 linux</tspan>
    </text>
  </g>
  <g>
    <rect style="fill: #e1ba89" x="311.376" y="639.426" width="112.1" height="28"/>
    <rect style="fill: none; fill-opacity:0; stroke-width: 2; stroke: #000000" x="311.376" y="639.426" width="112.1" height="28"/>
    <rect style="fill: #e1ba89" x="311.376" y="621.426" width="30" height="18"/>
    <rect style="fill: none; fill-opacity:0; stroke-width: 2; stroke: #000000" x="311.376" y="621.426" width="30" height="18"/>
    <text font-size="12.8" style="fill: #000000;text-anchor:start;font-family:monospace;font-style:normal;font-weight:normal" x="317.376" y="657.326">
      <tspan x="317.376" y="657.326">ARToolKitPlus</tspan>
    </text>
  </g>
  <g>
    <rect style="fill: #ffffff" x="566.264" y="940.402" width="224.644" height="67.1165"/>
    <rect style="fill: none; fill-opacity:0; stroke-width: 2; stroke: #000000" x="566.264" y="940.402" width="224.644" height="67.1165"/>
    <rect style="fill: #ffffff" x="566.264" y="920.402" width="50.2" height="20"/>
    <rect style="fill: none; fill-opacity:0; stroke-width: 2; stroke: #000000" x="566.264" y="920.402" width="50.2" height="20"/>
    <text font-size="12.7998" style="fill: #000000;text-anchor:start;font-family:monospace;font-style:normal;font-weight:normal" x="568.264" y="935.402">PapARt</text>
  </g>
  <g>
    <polyline style="fill: none; fill-opacity:0; stroke-width: 2; stroke-dasharray: 8; stroke: #000000" points="678.586,919.395 678.586,852.907 669.704,852.907 669.704,785.123 "/>
    <polyline style="fill: none; fill-opacity:0; stroke-width: 2; stroke: #000000" points="674.704,797.77 669.704,781.77 664.704,797.77 "/>
  </g>
  <g>
    <rect style="fill: #bbdeac" x="1196.38" y="667.974" width="81.3" height="28"/>
    <rect style="fill: none; fill-opacity:0; stroke-width: 2; stroke: #000000" x="1196.38" y="667.974" width="81.3" height="28"/>
    <rect style="fill: #bbdeac" x="1196.38" y="649.974" width="30" height="18"/>
    <rect style="fill: none; fill-opacity:0; stroke-width: 2; stroke: #000000" x="1196.38" y="649.974" width="30" height="18"/>
    <text font-size="12.8" style="fill: #000000;text-anchor:start;font-family:monospace;font-style:normal;font-weight:normal" x="1202.38" y="685.874">
      <tspan x="1202.38" y="685.874">Gstreamer</tspan>
    </text>
  </g>
  <g>
    <rect style="fill: #bbdeac" x="1124.19" y="667.974" width="58.2" height="28"/>
    <rect style="fill: none; fill-opacity:0; stroke-width: 2; stroke: #000000" x="1124.19" y="667.974" width="58.2" height="28"/>
    <rect style="fill: #bbdeac" x="1124.19" y="649.974" width="30" height="18"/>
    <rect style="fill: none; fill-opacity:0; stroke-width: 2; stroke: #000000" x="1124.19" y="649.974" width="30" height="18"/>
    <text font-size="12.8" style="fill: #000000;text-anchor:start;font-family:monospace;font-style:normal;font-weight:normal" x="1130.19" y="685.874">
      <tspan x="1130.19" y="685.874">FFMPEG</tspan>
    </text>
  </g>
  <g>
    <rect style="fill: #b7d8f2" x="1018.35" y="667.974" width="89" height="28"/>
    <rect style="fill: none; fill-opacity:0; stroke-width: 2; stroke: #000000" x="1018.35" y="667.974" width="89" height="28"/>
    <rect style="fill: #b7d8f2" x="1018.35" y="649.974" width="30" height="18"/>
    <rect style="fill: none; fill-opacity:0; stroke-width: 2; stroke: #000000" x="1018.35" y="649.974" width="30" height="18"/>
    <text font-size="12.8" style="fill: #000000;text-anchor:start;font-family:monospace;font-style:normal;font-weight:normal" x="1024.35" y="685.874">
      <tspan x="1024.35" y="685.874">VideoInput</tspan>
    </text>
  </g>
  <g>
    <polyline style="fill: none; fill-opacity:0; stroke-width: 2; stroke-dasharray: 8; stroke: #000000" points="822.736,585.84 856.65,585.84 856.65,586.456 891.86,586.456 "/>
    <polyline style="fill: none; fill-opacity:0; stroke-width: 2; stroke: #000000" points="879.212,591.456 895.212,586.456 879.212,581.456 "/>
  </g>
  <text font-size="12.8" style="fill: #000000;text-anchor:start;font-family:sans-serif;font-style:normal;font-weight:normal" x="1089.63" y="624.872">
    <tspan x="1089.63" y="624.872"></tspan>
  </text>
  <text font-size="12.8" style="fill: #000000;text-anchor:start;font-family:sans-serif;font-style:normal;font-weight:normal" x="1089.63" y="624.872">
    <tspan x="1089.63" y="624.872"></tspan>
  </text>
  <text font-size="14.382" style="fill: #000000;text-anchor:start;font-family:sans-serif;font-style:normal;font-weight:normal" x="1118.79" y="578.622">
    <tspan x="1118.79" y="578.622">Entrée Vidéo Caméra</tspan>
  </text>
  <g>
    <rect style="fill: #b7d8f2" x="311.376" y="460.274" width="150.6" height="44"/>
    <rect style="fill: none; fill-opacity:0; stroke-width: 2; stroke: #000000" x="311.376" y="460.274" width="150.6" height="44"/>
    <rect style="fill: #b7d8f2" x="311.376" y="442.274" width="30" height="18"/>
    <rect style="fill: none; fill-opacity:0; stroke-width: 2; stroke: #000000" x="311.376" y="442.274" width="30" height="18"/>
    <text font-size="12.8" style="fill: #000000;text-anchor:start;font-family:monospace;font-style:normal;font-weight:normal" x="317.376" y="478.174">
      <tspan x="317.376" y="478.174">Feature Detectors </tspan>
      <tspan x="317.376" y="494.174">SURF, FAST etc...</tspan>
    </text>
  </g>
  <text font-size="14.382" style="fill: #000000;text-anchor:start;font-family:sans-serif;font-style:normal;font-weight:normal" x="1396.58" y="693.744">
    <tspan x="1396.58" y="693.744">Entrée Vidéo Logiciel</tspan>
  </text>
  <g>
    <rect style="fill: #bbdeac" x="1397.34" y="748.128" width="119.8" height="28"/>
    <rect style="fill: none; fill-opacity:0; stroke-width: 2; stroke: #000000" x="1397.34" y="748.128" width="119.8" height="28"/>
    <rect style="fill: #bbdeac" x="1397.34" y="730.128" width="30" height="18"/>
    <rect style="fill: none; fill-opacity:0; stroke-width: 2; stroke: #000000" x="1397.34" y="730.128" width="30" height="18"/>
    <text font-size="12.8" style="fill: #000000;text-anchor:start;font-family:monospace;font-style:normal;font-weight:normal" x="1403.34" y="766.028">
      <tspan x="1403.34" y="766.028">FFMPEG (Linux)</tspan>
    </text>
  </g>
  <g>
    <rect style="fill: #b7d8f2" x="1397.34" y="872.622" width="104.4" height="28"/>
    <rect style="fill: none; fill-opacity:0; stroke-width: 2; stroke: #000000" x="1397.34" y="872.622" width="104.4" height="28"/>
    <rect style="fill: #b7d8f2" x="1397.34" y="854.622" width="30" height="18"/>
    <rect style="fill: none; fill-opacity:0; stroke-width: 2; stroke: #000000" x="1397.34" y="854.622" width="30" height="18"/>
    <text font-size="12.8" style="fill: #000000;text-anchor:start;font-family:monospace;font-style:normal;font-weight:normal" x="1403.34" y="890.522">
      <tspan x="1403.34" y="890.522">Syphon (OSX)</tspan>
    </text>
  </g>
  <g>
    <rect style="fill: #bbdeac" x="1397.34" y="811.672" width="127.5" height="28"/>
    <rect style="fill: none; fill-opacity:0; stroke-width: 2; stroke: #000000" x="1397.34" y="811.672" width="127.5" height="28"/>
    <rect style="fill: #bbdeac" x="1397.34" y="793.672" width="30" height="18"/>
    <rect style="fill: none; fill-opacity:0; stroke-width: 2; stroke: #000000" x="1397.34" y="793.672" width="30" height="18"/>
    <text font-size="12.8" style="fill: #000000;text-anchor:start;font-family:monospace;font-style:normal;font-weight:normal" x="1403.34" y="829.572">
      <tspan x="1403.34" y="829.572">Spout (Windows)</tspan>
    </text>
  </g>
  <g>
    <rect style="fill: #e1ba89" x="542.668" y="812.65" width="96.7" height="28"/>
    <rect style="fill: none; fill-opacity:0; stroke-width: 2; stroke: #000000" x="542.668" y="812.65" width="96.7" height="28"/>
    <rect style="fill: #e1ba89" x="542.668" y="794.65" width="30" height="18"/>
    <rect style="fill: none; fill-opacity:0; stroke-width: 2; stroke: #000000" x="542.668" y="794.65" width="30" height="18"/>
    <text font-size="12.8" style="fill: #000000;text-anchor:start;font-family:monospace;font-style:normal;font-weight:normal" x="548.668" y="830.55">
      <tspan x="548.668" y="830.55">ProCamCalib</tspan>
    </text>
  </g>
  <g>
    <polyline style="fill: none; fill-opacity:0; stroke-width: 2; stroke-dasharray: 8; stroke: #000000" points="678.586,919.395 678.586,884.526 591.018,884.526 591.018,848.363 "/>
    <polyline style="fill: none; fill-opacity:0; stroke-width: 2; stroke: #000000" points="596.018,861.01 591.018,845.01 586.018,861.01 "/>
  </g>
  <g>
    <rect style="fill: #aa89b5" x="933.406" y="1078.09" width="73.6" height="28"/>
    <rect style="fill: none; fill-opacity:0; stroke-width: 2; stroke: #000000" x="933.406" y="1078.09" width="73.6" height="28"/>
    <rect style="fill: #aa89b5" x="933.406" y="1060.09" width="30" height="18"/>
    <rect style="fill: none; fill-opacity:0; stroke-width: 2; stroke: #000000" x="933.406" y="1060.09" width="30" height="18"/>
    <text font-size="12.8" style="fill: #000000;text-anchor:start;font-family:monospace;font-style:normal;font-weight:normal" x="939.406" y="1095.99">
      <tspan x="939.406" y="1095.99">PeasyCam</tspan>
    </text>
  </g>
  <g>
    <rect style="fill: #bbdeac" x="602.438" y="1146.51" width="58.2" height="28"/>
    <rect style="fill: none; fill-opacity:0; stroke-width: 2; stroke: #000000" x="602.438" y="1146.51" width="58.2" height="28"/>
    <rect style="fill: #bbdeac" x="602.438" y="1128.51" width="30" height="18"/>
    <rect style="fill: none; fill-opacity:0; stroke-width: 2; stroke: #000000" x="602.438" y="1128.51" width="30" height="18"/>
    <text font-size="12.8" style="fill: #000000;text-anchor:start;font-family:monospace;font-style:normal;font-weight:normal" x="608.438" y="1164.41">
      <tspan x="608.438" y="1164.41">OSCP5 </tspan>
    </text>
  </g>
  <g>
    <rect style="fill: #bbdeac" x="567.786" y="1078.09" width="127.5" height="28"/>
    <rect style="fill: none; fill-opacity:0; stroke-width: 2; stroke: #000000" x="567.786" y="1078.09" width="127.5" height="28"/>
    <rect style="fill: #bbdeac" x="567.786" y="1060.09" width="30" height="18"/>
    <rect style="fill: none; fill-opacity:0; stroke-width: 2; stroke: #000000" x="567.786" y="1060.09" width="30" height="18"/>
    <text font-size="12.8" style="fill: #000000;text-anchor:start;font-family:monospace;font-style:normal;font-weight:normal" x="573.786" y="1095.99">
      <tspan x="573.786" y="1095.99">TUIO Processing</tspan>
    </text>
  </g>
  <g>
    <polyline style="fill: none; fill-opacity:0; stroke-width: 2; stroke-dasharray: 8; stroke: #000000" points="678.586,1008.53 678.586,1029.81 631.536,1029.81 631.536,1052.38 "/>
    <polyline style="fill: none; fill-opacity:0; stroke-width: 2; stroke: #000000" points="626.536,1039.73 631.536,1055.73 636.536,1039.73 "/>
  </g>
  <g>
    <polyline style="fill: none; fill-opacity:0; stroke-width: 2; stroke-dasharray: 8; stroke: #000000" points="631.536,1106.09 631.536,1122.3 631.538,1122.3 631.538,1139.81 "/>
    <polyline style="fill: none; fill-opacity:0; stroke-width: 2; stroke: #000000" points="626.538,1127.16 631.538,1143.16 636.538,1127.16 "/>
  </g>
  <g>
    <rect style="fill: #bbdeac" x="709.016" y="1078.09" width="81.3" height="28"/>
    <rect style="fill: none; fill-opacity:0; stroke-width: 2; stroke: #000000" x="709.016" y="1078.09" width="81.3" height="28"/>
    <rect style="fill: #bbdeac" x="709.016" y="1060.09" width="30" height="18"/>
    <rect style="fill: none; fill-opacity:0; stroke-width: 2; stroke: #000000" x="709.016" y="1060.09" width="30" height="18"/>
    <text font-size="12.8" style="fill: #000000;text-anchor:start;font-family:monospace;font-style:normal;font-weight:normal" x="715.016" y="1095.99">
      <tspan x="715.016" y="1095.99">ToxicLibs</tspan>
    </text>
  </g>
  <g>
    <polyline style="fill: none; fill-opacity:0; stroke-width: 2; stroke-dasharray: 8; stroke: #000000" points="678.586,1008.53 678.586,1029.81 749.666,1029.81 749.666,1052.38 "/>
    <polyline style="fill: none; fill-opacity:0; stroke-width: 2; stroke: #000000" points="744.666,1039.73 749.666,1055.73 754.666,1039.73 "/>
  </g>
  <g>
    <rect style="fill: #bbdeac" x="837.932" y="1078.09" width="81.3" height="28"/>
    <rect style="fill: none; fill-opacity:0; stroke-width: 2; stroke: #000000" x="837.932" y="1078.09" width="81.3" height="28"/>
    <rect style="fill: #bbdeac" x="837.932" y="1060.09" width="30" height="18"/>
    <rect style="fill: none; fill-opacity:0; stroke-width: 2; stroke: #000000" x="837.932" y="1060.09" width="30" height="18"/>
    <text font-size="12.8" style="fill: #000000;text-anchor:start;font-family:monospace;font-style:normal;font-weight:normal" x="843.932" y="1095.99">
      <tspan x="843.932" y="1095.99">ControlP5</tspan>
    </text>
  </g>
  <g>
    <rect style="fill: #ffffff" x="836.104" y="958.96" width="127.5" height="28"/>
    <rect style="fill: none; fill-opacity:0; stroke-width: 2; stroke: #000000" x="836.104" y="958.96" width="127.5" height="28"/>
    <rect style="fill: #ffffff" x="836.104" y="940.96" width="30" height="18"/>
    <rect style="fill: none; fill-opacity:0; stroke-width: 2; stroke: #000000" x="836.104" y="940.96" width="30" height="18"/>
    <text font-size="12.8" style="fill: #000000;text-anchor:start;font-family:monospace;font-style:normal;font-weight:normal" x="842.104" y="976.86">
      <tspan x="842.104" y="976.86">PapARt Examples</tspan>
    </text>
  </g>
  <g>
    <polyline style="fill: none; fill-opacity:0; stroke-width: 2; stroke-dasharray: 8; stroke: #000000" points="899.854,987.967 899.854,1019.53 878.582,1019.53 878.582,1052.38 "/>
    <polyline style="fill: none; fill-opacity:0; stroke-width: 2; stroke: #000000" points="873.582,1039.73 878.582,1055.73 883.582,1039.73 "/>
  </g>
  <g>
    <polyline style="fill: none; fill-opacity:0; stroke-width: 2; stroke-dasharray: 8; stroke: #000000" points="899.854,987.967 899.854,1019.53 970.206,1019.53 970.206,1052.38 "/>
    <polyline style="fill: none; fill-opacity:0; stroke-width: 2; stroke: #000000" points="965.206,1039.73 970.206,1055.73 975.206,1039.73 "/>
  </g>
  <g>
    <polyline style="fill: none; fill-opacity:0; stroke-width: 2; stroke-dasharray: 8; stroke: #000000" points="1036.65,1063.22 1080.33,1063.22 1080.33,1062.65 1125.3,1062.65 "/>
    <polyline style="fill: none; fill-opacity:0; stroke-width: 2; stroke: #000000" points="1112.65,1067.65 1128.65,1062.65 1112.65,1057.65 "/>
  </g>
  <g>
    <polyline style="fill: none; fill-opacity:0; stroke-width: 2; stroke-dasharray: 8; stroke: #000000" points="835.096,972.96 817.505,972.96 817.505,973.96 798.62,973.96 "/>
    <polyline style="fill: none; fill-opacity:0; stroke-width: 2; stroke: #000000" points="811.267,968.96 795.267,973.96 811.267,978.96 "/>
  </g>
  <text font-size="12.8" style="fill: #000000;text-anchor:start;font-family:sans-serif;font-style:normal;font-weight:normal" x="343.686" y="933.292">
    <tspan x="343.686" y="933.292"></tspan>
  </text>
  <g>
    <rect style="fill: #b7d8f2" x="365.496" y="958.96" width="96.7" height="28"/>
    <rect style="fill: none; fill-opacity:0; stroke-width: 2; stroke: #000000" x="365.496" y="958.96" width="96.7" height="28"/>
    <rect style="fill: #b7d8f2" x="365.496" y="940.96" width="30" height="18"/>
    <rect style="fill: none; fill-opacity:0; stroke-width: 2; stroke: #000000" x="365.496" y="940.96" width="30" height="18"/>
    <text font-size="12.8" style="fill: #000000;text-anchor:start;font-family:monospace;font-style:normal;font-weight:normal" x="371.496" y="976.86">
      <tspan x="371.496" y="976.86">Reflections</tspan>
    </text>
  </g>
  <g>
    <polyline style="fill: none; fill-opacity:0; stroke-width: 2; stroke-dasharray: 8; stroke: #000000" points="565.257,973.96 518.23,973.96 518.23,972.96 469.907,972.96 "/>
    <polyline style="fill: none; fill-opacity:0; stroke-width: 2; stroke: #000000" points="482.555,967.96 466.555,972.96 482.555,977.96 "/>
  </g>
  <g>
    <polyline style="fill: none; fill-opacity:0; stroke-width: 2; stroke-dasharray: 8; stroke: #000000" points="640.374,826.65 669.704,826.65 669.704,785.123 "/>
    <polyline style="fill: none; fill-opacity:0; stroke-width: 2; stroke: #000000" points="674.704,797.77 669.704,781.77 664.704,797.77 "/>
  </g>
  <g>
    <polyline style="fill: none; fill-opacity:0; stroke-width: 2; stroke-dasharray: 8; stroke: #000000" points="669.704,679.181 669.704,661.485 669.918,661.485 669.918,642.495 "/>
    <polyline style="fill: none; fill-opacity:0; stroke-width: 2; stroke: #000000" points="674.918,655.143 669.918,639.143 664.918,655.143 "/>
  </g>
  <g>
    <polyline style="fill: none; fill-opacity:0; stroke-width: 2; stroke-dasharray: 8; stroke: #000000" points="797.747,738.798 944.072,738.798 944.072,702.679 "/>
    <polyline style="fill: none; fill-opacity:0; stroke-width: 2; stroke: #000000" points="949.072,715.327 944.072,699.327 939.072,715.327 "/>
  </g>
  <g>
    <polyline style="fill: none; fill-opacity:0; stroke-width: 2; stroke-dasharray: 8; stroke: #000000" points="797.747,738.798 1062.85,738.798 1062.85,702.679 "/>
    <polyline style="fill: none; fill-opacity:0; stroke-width: 2; stroke: #000000" points="1067.85,715.327 1062.85,699.327 1057.85,715.327 "/>
  </g>
  <g>
    <polyline style="fill: none; fill-opacity:0; stroke-width: 2; stroke-dasharray: 8; stroke: #000000" points="797.747,738.798 1153.29,738.798 1153.29,702.679 "/>
    <polyline style="fill: none; fill-opacity:0; stroke-width: 2; stroke: #000000" points="1158.29,715.327 1153.29,699.327 1148.29,715.327 "/>
  </g>
  <g>
    <polyline style="fill: none; fill-opacity:0; stroke-width: 2; stroke-dasharray: 8; stroke: #000000" points="797.747,738.798 1093.54,738.798 1093.54,762.128 1390.63,762.128 "/>
    <polyline style="fill: none; fill-opacity:0; stroke-width: 2; stroke: #000000" points="1377.99,767.128 1393.99,762.128 1377.99,757.128 "/>
  </g>
  <g>
    <polyline style="fill: none; fill-opacity:0; stroke-width: 2; stroke-dasharray: 8; stroke: #000000" points="542.668,738.798 367.426,738.798 367.426,674.131 "/>
    <polyline style="fill: none; fill-opacity:0; stroke-width: 2; stroke: #000000" points="372.426,686.779 367.426,670.779 362.426,686.779 "/>
  </g>
  <g>
    <polyline style="fill: none; fill-opacity:0; stroke-width: 2; stroke-dasharray: 8; stroke: #000000" points="669.918,536.896 669.918,482.274 468.681,482.274 "/>
    <polyline style="fill: none; fill-opacity:0; stroke-width: 2; stroke: #000000" points="481.329,477.274 465.329,482.274 481.329,487.274 "/>
  </g>
  <g>
    <rect style="fill: #ffffff" x="312.93" y="522.17" width="180.51" height="77.5867"/>
    <rect style="fill: none; fill-opacity:0; stroke-width: 2; stroke: #000000" x="312.93" y="522.17" width="180.51" height="77.5867"/>
  </g>
  <g>
    <polygon style="fill: #ffffff" points="326.55,546.62 463.45,546.62 475.45,558.62 475.45,580.62 326.55,580.62 "/>
    <polygon style="fill: none; fill-opacity:0; stroke-width: 2; stroke: #000000" points="326.55,546.62 463.45,546.62 475.45,558.62 475.45,580.62 326.55,580.62 "/>
    <polyline style="fill: none; fill-opacity:0; stroke-width: 1; stroke: #000000" points="463.45,546.62 463.45,558.62 475.45,558.62 "/>
    <text font-size="12.8" style="fill: #000000;text-anchor:start;font-family:monospace;font-style:normal;font-weight:normal" x="333.55" y="571.52">
      <tspan x="333.55" y="571.52">+ Processing Libs</tspan>
    </text>
  </g>
  <g>
    <rect style="fill: #bbdeac" x="1152.03" y="1006.13" width="215.241" height="45.1888"/>
    <rect style="fill: none; fill-opacity:0; stroke-width: 2.35099e-37; stroke: #000000" x="1152.03" y="1006.13" width="215.241" height="45.1888"/>
  </g>
  <text font-size="12.8" style="fill: #000000;text-anchor:start;font-family:sans-serif;font-style:normal;font-weight:normal" x="1244.82" y="1028.35">
    <tspan x="1244.82" y="1028.35">Core</tspan>
  </text>
  <g>
    <rect style="fill: #e1ba89" x="969.896" y="430.014" width="70.1614" height="41.6212"/>
    <rect style="fill: none; fill-opacity:0; stroke-width: 2; stroke: #000000" x="969.896" y="430.014" width="70.1614" height="41.6212"/>
  </g>
  <text font-size="16.9333" style="fill: #000000;text-anchor:start;font-family:sans-serif;font-style:normal;font-weight:normal" x="990.706" y="456.7">
    <tspan x="990.706" y="456.7">GPL</tspan>
  </text>
  <g>
    <rect style="fill: #b7d8f2" x="795.514" y="430.014" width="70.1614" height="41.6212"/>
    <rect style="fill: none; fill-opacity:0; stroke-width: 2; stroke: #000000" x="795.514" y="430.014" width="70.1614" height="41.6212"/>
  </g>
  <text font-size="16.9333" style="fill: #000000;text-anchor:start;font-family:sans-serif;font-style:normal;font-weight:normal" x="816.324" y="456.7">
    <tspan x="816.324" y="456.7">BSD</tspan>
  </text>
  <g>
    <rect style="fill: #e18989" x="1059.08" y="430.014" width="138.372" height="41.6212"/>
    <rect style="fill: none; fill-opacity:0; stroke-width: 2; stroke: #000000" x="1059.08" y="430.014" width="138.372" height="41.6212"/>
  </g>
  <text font-size="16.9333" style="fill: #000000;text-anchor:start;font-family:sans-serif;font-style:normal;font-weight:normal" x="1079.89" y="456.7">
    <tspan x="1079.89" y="456.7">Propriétaire</tspan>
  </text>
  <g>
    <rect style="fill: #bbdeac" x="883.086" y="430.014" width="70.1614" height="41.6212"/>
    <rect style="fill: none; fill-opacity:0; stroke-width: 2; stroke: #000000" x="883.086" y="430.014" width="70.1614" height="41.6212"/>
  </g>
  <text font-size="16.9333" style="fill: #000000;text-anchor:start;font-family:sans-serif;font-style:normal;font-weight:normal" x="896.762" y="456.7">
    <tspan x="896.762" y="456.7">LGPL</tspan>
  </text>
  <g>
    <rect style="fill: #e1ba89" x="1152.03" y="1068.79" width="215.241" height="45.1888"/>
    <rect style="fill: none; fill-opacity:0; stroke-width: 2.35099e-37; stroke: #000000" x="1152.03" y="1068.79" width="215.241" height="45.1888"/>
  </g>
  <text font-size="12.8" style="fill: #000000;text-anchor:start;font-family:sans-serif;font-style:normal;font-weight:normal" x="1240.51" y="1093.77">
    <tspan x="1240.51" y="1093.77">Editor</tspan>
  </text>
  <text font-size="12.8" style="fill: #000000;text-anchor:start;font-family:sans-serif;font-style:normal;font-weight:normal" x="934.65" y="1121.71">
    <tspan x="934.65" y="1121.71">Apache v2.0</tspan>
  </text>
</svg>
