<?xml version="1.0" encoding="utf-8"?>
<!-- Generator: Adobe Illustrator 14.0.0, SVG Export Plug-In . SVG Version: 6.00 Build 43363)  -->
<!DOCTYPE svg PUBLIC "-//W3C//DTD SVG 1.1//EN" "http://www.w3.org/Graphics/SVG/1.1/DTD/svg11.dtd">
<svg version="1.1" id="Calque_1" xmlns="http://www.w3.org/2000/svg" xmlns:xlink="http://www.w3.org/1999/xlink" x="0px" y="0px"
	 width="210px" height="103px" viewBox="0 0 210 103" enable-background="new 0 0 210 103" xml:space="preserve">
<g>
	<g>
		<g>
			<radialGradient id="SVGID_1_" cx="92.6196" cy="104.3838" r="66.332" gradientUnits="userSpaceOnUse">
				<stop  offset="0.4" style="stop-color:#FECD1A"/>
				<stop  offset="0.6897" style="stop-color:#EF8227"/>
				<stop  offset="1" style="stop-color:#E20026"/>
			</radialGradient>
			<path fill="url(#SVGID_1_)" d="M61.542,27.469c2.083-1.256,4.229-2.938,6.154-4.891c1.508-1.529-5.119-0.846-6.712,0.516
				c-1.716,1.465-3.479,3.084-5.092,4.973C54.949,29.17,59.477,28.711,61.542,27.469z M121.238,44.352
				c2.084-1.254,6.001-4.297,7.928-6.25c1.507-1.528-5.121-0.846-6.714,0.514c-1.717,1.467-4.567,4.097-6.181,5.986
				C115.33,45.706,119.174,45.594,121.238,44.352z M181.438,57.382c-8.486-5.284-31.699,3.927-40.503,4.979
				c-1.649,0.197-2.251-0.221-1.862-1.34c0.748-2.156,3.691-6.127,4.281-7.496c0.561-1.303,0.482-5.791-6.156-5.791
				c-5.424,0-10.398,2.52-13.896,5.688c-3.332,2.846-9.791,8.468-13.765,8.468c-4.113,0,7.937-12.433,8.603-13.06
				c1.791-1.684-3.855-1.266-6.23,0.543c-0.947,0.721-4.735,4.77-7.104,8.693c-6.854,4.739-13.675,5.84-10.43,1.898
				c1.727-2.096,4.646-4.906,6.654-7.137c2.804-3.107,2.295-5.152-3.895-5.152c-8.285,0-9.162,0.721-13.838,6.196
				c-0.867,1.017-0.418,3.566,0.479,2.681c5.608-5.549,5.481-5.096,12.906-5.096c-1.196,1.266-3.322,2.533-6.932,7.113
				c-3.216,4.086-1.112,7.387,3.455,7.387c2.525,0,6.294-1.182,9.741-3.613c-0.412,2.129,0.441,3.654,3.694,3.654
				c3.768,0,8.069-2.241,11.633-4.734c-0.447,2.705,0.947,4.734,4.932,4.734c3.068,0,6.641-1.205,10.329-4.4
				c-0.021,2.441,1.704,4.379,4.916,4.379c7.821,0,34.835-9.811,44.235-4.143C183.861,62.541,183.809,58.859,181.438,57.382z
				 M125.309,62.479c-5.128,0,5.141-11.722,11.831-11.722C141.145,50.757,130.254,62.479,125.309,62.479z M80.752,56.837
				c-2.01,1.958-6.404,5.243-10.249,5.243c-2.841,0,2.819-5.094,5.624-9.201c2.678-3.922,0.487-5.096-1.722-5.096
				c-5.476,0-10.817,3.842-14.44,6.545c1.094-1.467,2.797-3.346,4.615-5.746c1.009-1.33-5.027-0.855-6.57,1.178
				c-0.492,0.645-1.035,1.366-1.611,2.137c-5.239,6.295-13.146,10.543-17.029,10.543c-2.164,0-2.95-1.492-1.604-4.308
				c3.246-6.79,14.431-19.694,20.51-25.345c2.761-2.584-5.533-1.533-7.435,0.379c-8.424,8.477-16.904,17.938-19.295,25.3
				c-1.321,4.069-0.103,7.728,4.955,7.728c4.152,0,8.753-2.057,12.66-4.5c-0.963,1.312-1.839,2.5-2.543,3.459
				c-1.104,1.492,4.486,0.947,5.664-0.559c4.421-5.654,15.042-12.609,17.998-12.609c2.691,0-6.578,6.945-6.492,11.199
				c0.107,5.582,13.045,2.164,17.436-3.584C81.908,58.703,81.373,56.232,80.752,56.837z"/>
		</g>
		<g>
			<g>
				<g>
					<path fill="#E20026" stroke="#E20026" stroke-width="0.2" d="M77.25,75.756h-0.345c-0.062,0-0.113-0.057-0.113-0.125v-4.416
						c0-0.062,0.044-0.119,0.113-0.119h0.345c0.062,0,0.113,0.051,0.113,0.119v4.416C77.363,75.693,77.319,75.756,77.25,75.756z"/>
					<path fill="#E20026" stroke="#E20026" stroke-width="0.2" d="M81.665,75.756h-0.389c-0.1,0-0.169-0.037-0.201-0.101
						l-1.938-3.681c-0.006-0.013-0.012-0.02-0.019-0.02s-0.006,0.007-0.006,0.02v3.662c0,0.062-0.05,0.119-0.113,0.119h-0.326
						c-0.062,0-0.113-0.013-0.113-0.075v-4.409c0-0.1,0.082-0.176,0.182-0.176h0.345c0.175,0,0.207,0.031,0.257,0.126l1.925,3.663
						l0.013,0.018c0.006,0,0.006-0.012,0.006-0.018v-3.67c0-0.062,0.05-0.119,0.113-0.119h0.333c0.069,0,0.113,0.057,0.113,0.119
						v4.359C81.847,75.674,81.765,75.756,81.665,75.756z"/>
					<path fill="#E20026" stroke="#E20026" stroke-width="0.2" d="M86.158,71.24l-1.154,4.083c-0.113,0.396-0.401,0.477-0.64,0.477
						c-0.232,0-0.527-0.081-0.64-0.477l-1.16-4.083c-0.006-0.012-0.006-0.025-0.006-0.037c0-0.062,0.05-0.107,0.113-0.107h0.364
						c0.05,0,0.1,0.045,0.113,0.095l1.091,3.995c0.025,0.088,0.056,0.131,0.125,0.131c0.062,0,0.094-0.043,0.119-0.131l1.097-3.995
						c0.013-0.05,0.057-0.095,0.107-0.095h0.37c0.062,0,0.106,0.045,0.106,0.107C86.165,71.215,86.165,71.229,86.158,71.24z"/>
					<path fill="#E20026" stroke="#E20026" stroke-width="0.2" d="M89.417,75.769c-0.238,0.024-0.853,0.031-1.223,0.031
						c-0.878,0-1.336-0.333-1.336-1.167v-2.414c0-0.834,0.458-1.166,1.336-1.166c0.37,0,0.959,0.012,1.223,0.037
						c0.038,0.006,0.062,0.051,0.062,0.088v0.313c0,0.044-0.025,0.075-0.069,0.075H88.2c-0.665,0-0.771,0.176-0.771,0.652v0.871
						h1.925c0.069,0,0.125,0.057,0.125,0.126v0.238c0,0.069-0.056,0.126-0.125,0.126h-1.925v1.053c0,0.477,0.106,0.652,0.771,0.652
						h1.21c0.044,0,0.069,0.031,0.069,0.076v0.319C89.479,75.719,89.454,75.762,89.417,75.769z"/>
					<path fill="#E20026" stroke="#E20026" stroke-width="0.2" d="M93.573,75.756h-0.389c-0.1,0-0.169-0.037-0.201-0.101
						l-1.938-3.681c-0.006-0.013-0.012-0.02-0.019-0.02s-0.006,0.007-0.006,0.02v3.662c0,0.062-0.05,0.119-0.113,0.119h-0.326
						c-0.062,0-0.113-0.013-0.113-0.075v-4.409c0-0.1,0.082-0.176,0.182-0.176h0.345c0.175,0,0.207,0.031,0.257,0.126l1.925,3.663
						l0.013,0.018c0.006,0,0.006-0.012,0.006-0.018v-3.67c0-0.062,0.05-0.119,0.113-0.119h0.333c0.069,0,0.113,0.057,0.113,0.119
						v4.359C93.755,75.674,93.673,75.756,93.573,75.756z"/>
					<path fill="#E20026" stroke="#E20026" stroke-width="0.2" d="M97.546,71.586h-1.223v4.045c0,0.062-0.044,0.125-0.113,0.125
						h-0.345c-0.062,0-0.113-0.057-0.113-0.125v-4.045h-1.223c-0.069,0-0.125-0.031-0.125-0.102v-0.275
						c0-0.062,0.056-0.113,0.125-0.113h3.017c0.069,0,0.119,0.045,0.119,0.113v0.275C97.665,71.548,97.615,71.586,97.546,71.586z"/>
					<path fill="#E20026" stroke="#E20026" stroke-width="0.2" d="M100.917,75.769c-0.238,0.024-0.853,0.031-1.223,0.031
						c-0.878,0-1.336-0.333-1.336-1.167v-2.414c0-0.834,0.458-1.166,1.336-1.166c0.37,0,0.959,0.012,1.223,0.037
						c0.038,0.006,0.062,0.051,0.062,0.088v0.313c0,0.044-0.025,0.075-0.069,0.075h-1.21c-0.665,0-0.771,0.176-0.771,0.652v0.871
						h1.925c0.069,0,0.125,0.057,0.125,0.126v0.238c0,0.069-0.056,0.126-0.125,0.126H98.93v1.053c0,0.477,0.106,0.652,0.771,0.652
						h1.21c0.044,0,0.069,0.031,0.069,0.076v0.319C100.98,75.719,100.955,75.762,100.917,75.769z"/>
					<path fill="#E20026" stroke="#E20026" stroke-width="0.2" d="M103.556,75.8c-1.016,0-1.605-0.54-1.605-1.737v-2.848
						c0-0.062,0.05-0.119,0.119-0.119h0.339c0.062,0,0.119,0.051,0.119,0.119v2.848c0,0.809,0.251,1.248,1.028,1.248
						c0.778,0,1.029-0.433,1.029-1.248v-2.848c0-0.062,0.05-0.119,0.119-0.119h0.338c0.063,0,0.119,0.051,0.119,0.119v2.848
						C105.162,75.26,104.572,75.8,103.556,75.8z"/>
					<path fill="#E20026" stroke="#E20026" stroke-width="0.2" d="M109.38,75.756h-0.401c-0.075,0-0.112,0-0.163-0.082l-1.123-1.868
						c-0.018,0-0.037,0-0.056,0c-0.038,0-0.069,0-0.106,0c-0.207,0-0.357-0.007-0.689-0.019v1.844c0,0.062-0.045,0.125-0.113,0.125
						h-0.339c-0.062,0-0.113-0.057-0.113-0.125V71.24c0-0.088,0.038-0.125,0.15-0.138c0.27-0.031,0.741-0.05,1.104-0.05
						c0.99,0,1.756,0.332,1.756,1.348v0.044c0,0.702-0.414,1.116-0.984,1.267l1.141,1.906c0.014,0.02,0.02,0.038,0.02,0.057
						C109.462,75.719,109.431,75.756,109.38,75.756z M108.722,72.4c0-0.627-0.408-0.834-1.191-0.834c-0.195,0-0.539,0-0.689,0.02
						v1.718c0.275,0.007,0.545,0.013,0.689,0.013c0.771,0,1.191-0.194,1.191-0.872V72.4z"/>
					<path fill="#E20026" stroke="#E20026" stroke-width="0.2" d="M111.448,75.8c-0.439,0-0.766-0.044-1.041-0.088
						c-0.107-0.019-0.119-0.044-0.119-0.112v-0.252c0-0.068,0.05-0.1,0.106-0.1c0.007,0,0.013,0,0.019,0
						c0.289,0.025,0.746,0.037,1.035,0.037c0.752,0,0.953-0.301,0.953-0.74c0-0.312-0.182-0.488-0.753-0.84l-0.608-0.37
						c-0.576-0.351-0.865-0.671-0.865-1.173c0-0.759,0.546-1.109,1.499-1.109c0.37,0,0.853,0.037,1.091,0.074
						c0.062,0.014,0.107,0.045,0.107,0.107v0.27c0,0.062-0.045,0.1-0.107,0.1c-0.006,0-0.006,0-0.012,0
						c-0.276-0.018-0.715-0.037-1.079-0.037c-0.646,0-0.922,0.139-0.922,0.596c0,0.295,0.207,0.471,0.684,0.76l0.577,0.344
						c0.727,0.434,0.984,0.778,0.984,1.279C112.997,75.147,112.684,75.8,111.448,75.8z"/>
					<path fill="#E20026" stroke="#E20026" stroke-width="0.2" d="M116.933,75.8c-0.477,0-0.959-0.031-1.141-0.063
						c-0.082-0.012-0.132-0.062-0.132-0.156v-4.309c0-0.088,0.05-0.145,0.132-0.156c0.182-0.031,0.664-0.062,1.141-0.062
						c1.16,0,1.9,0.596,1.9,1.95v0.847C118.833,75.191,118.093,75.8,116.933,75.8z M118.263,73.003c0-1.136-0.577-1.462-1.33-1.462
						c-0.295,0-0.488,0.007-0.695,0.02v3.737c0.2,0.013,0.4,0.013,0.695,0.013c0.753,0,1.33-0.332,1.33-1.461V73.003z"/>
					<path fill="#E20026" stroke="#E20026" stroke-width="0.2" d="M121.421,75.8c-1.016,0-1.605-0.54-1.605-1.737v-2.848
						c0-0.062,0.051-0.119,0.119-0.119h0.34c0.062,0,0.119,0.051,0.119,0.119v2.848c0,0.809,0.25,1.248,1.027,1.248
						c0.778,0,1.029-0.433,1.029-1.248v-2.848c0-0.062,0.05-0.119,0.119-0.119h0.338c0.063,0,0.119,0.051,0.119,0.119v2.848
						C123.026,75.26,122.438,75.8,121.421,75.8z"/>
					<path fill="#E20026" stroke="#E20026" stroke-width="0.2" d="M129.521,75.756h-0.307c-0.068,0-0.125-0.057-0.125-0.125v-3.719
						c0-0.014,0-0.02-0.007-0.02s-0.007,0-0.013,0.013l-0.896,1.856c-0.062,0.125-0.125,0.182-0.282,0.182h-0.288
						c-0.157,0-0.22-0.057-0.283-0.182l-0.896-1.856c-0.006-0.013-0.006-0.013-0.012-0.013c-0.007,0-0.007,0.006-0.007,0.02v3.719
						c0,0.068-0.057,0.125-0.126,0.125h-0.307c-0.069,0-0.125-0.057-0.125-0.125v-4.353c0-0.101,0.081-0.183,0.182-0.183h0.407
						c0.112,0,0.163,0.025,0.2,0.107l1.035,2.15c0.025,0.057,0.044,0.069,0.075,0.069c0.032,0,0.05-0.013,0.075-0.069l1.035-2.15
						c0.037-0.082,0.088-0.107,0.201-0.107h0.407c0.101,0,0.182,0.082,0.182,0.183v4.353
						C129.646,75.699,129.591,75.756,129.521,75.756z"/>
					<path fill="#E20026" stroke="#E20026" stroke-width="0.2" d="M132.36,75.8c-0.984,0-1.699-0.577-1.699-1.97v-0.809
						c0-1.393,0.715-1.969,1.699-1.969s1.693,0.576,1.693,1.969v0.809C134.054,75.223,133.345,75.8,132.36,75.8z M133.476,73.021
						c0-1.054-0.426-1.455-1.115-1.455c-0.684,0-1.123,0.401-1.123,1.455v0.809c0,1.055,0.433,1.455,1.123,1.455
						c0.684,0,1.115-0.4,1.115-1.455V73.021z"/>
					<path fill="#E20026" stroke="#E20026" stroke-width="0.2" d="M138.177,75.756h-0.389c-0.1,0-0.169-0.037-0.2-0.101
						l-1.938-3.681c-0.006-0.013-0.012-0.02-0.018-0.02c-0.007,0-0.007,0.007-0.007,0.02v3.662c0,0.062-0.05,0.119-0.112,0.119
						h-0.326c-0.062,0-0.113-0.013-0.113-0.075v-4.409c0-0.1,0.082-0.176,0.182-0.176h0.346c0.175,0,0.207,0.031,0.256,0.126
						l1.926,3.663l0.013,0.018c0.007,0,0.007-0.012,0.007-0.018v-3.67c0-0.062,0.05-0.119,0.112-0.119h0.333
						c0.068,0,0.112,0.057,0.112,0.119v4.359C138.359,75.674,138.278,75.756,138.177,75.756z"/>
					<path fill="#E20026" stroke="#E20026" stroke-width="0.2" d="M140.766,75.8c-0.477,0-0.96-0.031-1.142-0.063
						c-0.081-0.012-0.131-0.062-0.131-0.156v-4.309c0-0.088,0.05-0.145,0.131-0.156c0.182-0.031,0.665-0.062,1.142-0.062
						c1.16,0,1.9,0.596,1.9,1.95v0.847C142.666,75.191,141.926,75.8,140.766,75.8z M142.095,73.003c0-1.136-0.576-1.462-1.329-1.462
						c-0.295,0-0.489,0.007-0.696,0.02v3.737c0.201,0.013,0.401,0.013,0.696,0.013c0.753,0,1.329-0.332,1.329-1.461V73.003z"/>
					<path fill="#E20026" stroke="#E20026" stroke-width="0.2" d="M146.226,75.769c-0.238,0.024-0.853,0.031-1.223,0.031
						c-0.878,0-1.336-0.333-1.336-1.167v-2.414c0-0.834,0.458-1.166,1.336-1.166c0.37,0,0.96,0.012,1.223,0.037
						c0.038,0.006,0.062,0.051,0.062,0.088v0.313c0,0.044-0.024,0.075-0.068,0.075h-1.211c-0.664,0-0.771,0.176-0.771,0.652v0.871
						h1.925c0.069,0,0.125,0.057,0.125,0.126v0.238c0,0.069-0.056,0.126-0.125,0.126h-1.925v1.053c0,0.477,0.106,0.652,0.771,0.652
						h1.211c0.044,0,0.068,0.031,0.068,0.076v0.319C146.288,75.719,146.264,75.762,146.226,75.769z"/>
					<path fill="#E20026" stroke="#E20026" stroke-width="0.2" d="M152.087,75.756h-0.389c-0.1,0-0.169-0.037-0.2-0.101
						l-1.938-3.681c-0.006-0.013-0.012-0.02-0.018-0.02c-0.007,0-0.007,0.007-0.007,0.02v3.662c0,0.062-0.05,0.119-0.112,0.119
						h-0.326c-0.062,0-0.113-0.013-0.113-0.075v-4.409c0-0.1,0.082-0.176,0.182-0.176h0.346c0.175,0,0.207,0.031,0.256,0.126
						l1.926,3.663l0.013,0.018c0.007,0,0.007-0.012,0.007-0.018v-3.67c0-0.062,0.05-0.119,0.112-0.119h0.333
						c0.068,0,0.112,0.057,0.112,0.119v4.359C152.27,75.674,152.188,75.756,152.087,75.756z"/>
					<path fill="#E20026" stroke="#E20026" stroke-width="0.2" d="M154.989,75.8c-1.016,0-1.605-0.54-1.605-1.737v-2.848
						c0-0.062,0.05-0.119,0.119-0.119h0.338c0.062,0,0.119,0.051,0.119,0.119v2.848c0,0.809,0.252,1.248,1.029,1.248
						s1.028-0.433,1.028-1.248v-2.848c0-0.062,0.05-0.119,0.119-0.119h0.339c0.062,0,0.119,0.051,0.119,0.119v2.848
						C156.595,75.26,156.005,75.8,154.989,75.8z"/>
					<path fill="#E20026" stroke="#E20026" stroke-width="0.2" d="M161.384,75.756h-0.307c-0.069,0-0.126-0.057-0.126-0.125v-3.719
						c0-0.014,0-0.02-0.007-0.02c-0.006,0-0.006,0-0.012,0.013l-0.896,1.856c-0.063,0.125-0.126,0.182-0.283,0.182h-0.288
						c-0.157,0-0.22-0.057-0.282-0.182l-0.896-1.856c-0.006-0.013-0.006-0.013-0.013-0.013s-0.007,0.006-0.007,0.02v3.719
						c0,0.068-0.057,0.125-0.125,0.125h-0.307c-0.07,0-0.126-0.057-0.126-0.125v-4.353c0-0.101,0.081-0.183,0.182-0.183h0.407
						c0.113,0,0.164,0.025,0.201,0.107l1.035,2.15c0.025,0.057,0.043,0.069,0.074,0.069c0.032,0,0.051-0.013,0.076-0.069l1.035-2.15
						c0.037-0.082,0.088-0.107,0.2-0.107h0.407c0.101,0,0.182,0.082,0.182,0.183v4.353
						C161.509,75.699,161.453,75.756,161.384,75.756z"/>
					<path fill="#E20026" stroke="#E20026" stroke-width="0.2" d="M165.194,75.769c-0.238,0.024-0.853,0.031-1.223,0.031
						c-0.878,0-1.336-0.333-1.336-1.167v-2.414c0-0.834,0.458-1.166,1.336-1.166c0.37,0,0.96,0.012,1.223,0.037
						c0.038,0.006,0.062,0.051,0.062,0.088v0.313c0,0.044-0.024,0.075-0.068,0.075h-1.211c-0.664,0-0.771,0.176-0.771,0.652v0.871
						h1.925c0.069,0,0.125,0.057,0.125,0.126v0.238c0,0.069-0.056,0.126-0.125,0.126h-1.925v1.053c0,0.477,0.106,0.652,0.771,0.652
						h1.211c0.044,0,0.068,0.031,0.068,0.076v0.319C165.257,75.719,165.232,75.762,165.194,75.769z M164.856,69.893l-0.709,0.789
						c-0.057,0.063-0.075,0.095-0.145,0.095h-0.338c-0.038,0-0.057-0.019-0.057-0.044c0-0.019,0.006-0.044,0.025-0.062l0.614-0.777
						c0.056-0.069,0.075-0.095,0.15-0.095h0.414c0.044,0,0.069,0.013,0.069,0.044C164.882,69.854,164.875,69.873,164.856,69.893z"/>
					<path fill="#E20026" stroke="#E20026" stroke-width="0.2" d="M169.351,75.756h-0.401c-0.075,0-0.112,0-0.163-0.082
						l-1.123-1.868c-0.018,0-0.037,0-0.056,0c-0.038,0-0.069,0-0.106,0c-0.207,0-0.357-0.007-0.689-0.019v1.844
						c0,0.062-0.045,0.125-0.113,0.125h-0.339c-0.062,0-0.112-0.057-0.112-0.125V71.24c0-0.088,0.037-0.125,0.15-0.138
						c0.27-0.031,0.74-0.05,1.104-0.05c0.99,0,1.756,0.332,1.756,1.348v0.044c0,0.702-0.414,1.116-0.984,1.267l1.141,1.906
						c0.014,0.02,0.02,0.038,0.02,0.057C169.433,75.719,169.401,75.756,169.351,75.756z M168.692,72.4
						c0-0.627-0.408-0.834-1.191-0.834c-0.195,0-0.539,0-0.689,0.02v1.718c0.275,0.007,0.545,0.013,0.689,0.013
						c0.771,0,1.191-0.194,1.191-0.872V72.4z"/>
					<path fill="#E20026" stroke="#E20026" stroke-width="0.2" d="M170.842,75.756h-0.345c-0.062,0-0.113-0.057-0.113-0.125v-4.416
						c0-0.062,0.044-0.119,0.113-0.119h0.345c0.062,0,0.112,0.051,0.112,0.119v4.416C170.954,75.693,170.911,75.756,170.842,75.756z
						"/>
					<path fill="#E20026" stroke="#E20026" stroke-width="0.2" d="M174.009,75.787v0.27c0,0.314,0.068,0.363,0.389,0.363h0.369
						c0.076,0,0.139,0.032,0.139,0.102v0.213c0,0.106-0.188,0.15-0.508,0.15c-0.615,0-0.941-0.163-0.941-0.822v-0.281
						c-0.834-0.107-1.417-0.696-1.417-1.951v-0.809c0-1.393,0.715-1.969,1.699-1.969c0.985,0,1.693,0.576,1.693,1.969v0.809
						C175.432,75.092,174.849,75.688,174.009,75.787z M174.854,73.021c0-1.054-0.426-1.455-1.116-1.455
						c-0.684,0-1.122,0.401-1.122,1.455v0.809c0,1.055,0.432,1.455,1.122,1.455c0.684,0,1.116-0.4,1.116-1.455V73.021z"/>
					<path fill="#E20026" stroke="#E20026" stroke-width="0.2" d="M178.038,75.8c-1.016,0-1.605-0.54-1.605-1.737v-2.848
						c0-0.062,0.051-0.119,0.119-0.119h0.34c0.062,0,0.119,0.051,0.119,0.119v2.848c0,0.809,0.25,1.248,1.027,1.248
						c0.778,0,1.029-0.433,1.029-1.248v-2.848c0-0.062,0.05-0.119,0.119-0.119h0.338c0.063,0,0.119,0.051,0.119,0.119v2.848
						C179.644,75.26,179.055,75.8,178.038,75.8z"/>
					<path fill="#E20026" stroke="#E20026" stroke-width="0.2" d="M183.317,75.769c-0.238,0.024-0.854,0.031-1.223,0.031
						c-0.879,0-1.336-0.333-1.336-1.167v-2.414c0-0.834,0.457-1.166,1.336-1.166c0.369,0,0.959,0.012,1.223,0.037
						c0.037,0.006,0.062,0.051,0.062,0.088v0.313c0,0.044-0.025,0.075-0.069,0.075h-1.21c-0.665,0-0.771,0.176-0.771,0.652v0.871
						h1.926c0.068,0,0.125,0.057,0.125,0.126v0.238c0,0.069-0.057,0.126-0.125,0.126h-1.926v1.053c0,0.477,0.106,0.652,0.771,0.652
						h1.21c0.044,0,0.069,0.031,0.069,0.076v0.319C183.38,75.719,183.354,75.762,183.317,75.769z"/>
				</g>
			</g>
		</g>
	</g>
</g>
</svg>
