<?xml version="1.0" encoding="UTF-8" standalone="no"?>
<!-- Created with Inkscape (http://www.inkscape.org/) -->

<svg
   xmlns:dc="http://purl.org/dc/elements/1.1/"
   xmlns:cc="http://creativecommons.org/ns#"
   xmlns:rdf="http://www.w3.org/1999/02/22-rdf-syntax-ns#"
   xmlns:svg="http://www.w3.org/2000/svg"
   xmlns="http://www.w3.org/2000/svg"
   xmlns:sodipodi="http://sodipodi.sourceforge.net/DTD/sodipodi-0.dtd"
   xmlns:inkscape="http://www.inkscape.org/namespaces/inkscape"
   width="744.09448"
   height="524.40942"
   id="svg2"
   version="1.1"
   inkscape:version="0.48.4 r9939"
   sodipodi:docname="menu_natural.svg">
  <defs
     id="defs4" />
  <sodipodi:namedview
     id="base"
     pagecolor="#ffffff"
     bordercolor="#666666"
     borderopacity="1.0"
     inkscape:pageopacity="0.0"
     inkscape:pageshadow="2"
     inkscape:zoom="1"
     inkscape:cx="526.4803"
     inkscape:cy="265.15059"
     inkscape:document-units="px"
     inkscape:current-layer="layer1"
     showgrid="false"
     inkscape:window-width="1366"
     inkscape:window-height="711"
     inkscape:window-x="0"
     inkscape:window-y="0"
     inkscape:window-maximized="1" />
  <metadata
     id="metadata7">
    <rdf:RDF>
      <cc:Work
         rdf:about="">
        <dc:format>image/svg+xml</dc:format>
        <dc:type
           rdf:resource="http://purl.org/dc/dcmitype/StillImage" />
        <dc:title />
      </cc:Work>
    </rdf:RDF>
  </metadata>
  <g
     inkscape:label="Layer 1"
     inkscape:groupmode="layer"
     id="layer1"
     transform="translate(0,-527.95272)"
     style="display:inline">
    <flowRoot
       xml:space="preserve"
       id="flowRoot3012"
       style="font-size:40px;font-style:normal;font-weight:normal;line-height:125%;letter-spacing:0px;word-spacing:0px;fill:#000000;fill-opacity:1;stroke:none;font-family:Sans"
       transform="matrix(1.065848,0,0,1.0155769,-0.05643,526.89484)"><flowRegion
         id="flowRegion3014"><rect
           id="rect3016"
           width="744"
           height="526"
           x="0"
           y="0.40942383" /></flowRegion><flowPara
         id="flowPara3018"
         style="font-size:13px;fill:#646464;fill-opacity:0.56682027">01000001 00100000 01101100 01101111 01101110 01100111 00100000 01110100 01101001 01101101 01100101 00100000 01100001 01100111 01101111 00101100 00100000 01101001 01101110 00100000 01100001 00100000 01100111 01100001 01101100 01100001 01111000 01111001 00100000 01100110 01100001 01110010 00101100 00001010 01100110 01100001 01110010 00100000 01100001 01110111 01100001 01111001 00101110 00101110 00101110 00101110 00001010 00001010 01001001 01110100 00100000 01101001 01110011 00100000 01100001 00100000 01110000 01100101 01110010 01101001 01101111 01100100 00100000 01101111 01100110 00100000 01100011 01101001 01110110 01101001 01101100 00100000 01110111 01100001 01110010 00101110 00001010 01010010 01100101 01100010 01100101 01101100 00100000 01110011 01110000 01100001 01100011 01100101 01110011 01101000 01101001 01110000 01110011 00101100 00100000 01110011 01110100 01110010 01101001 01101011 01101001 01101110 01100111 00001010 01100110 01110010 01101111 01101101 00100000 01100001 00100000 01101000 01101001 01100100 01100100 01100101 01101110 00100000 01100010 01100001 01110011 01100101 00101100 00100000 01101000 01100001 01110110 01100101 00100000 01110111 01101111 01101110 00001010 01110100 01101000 01100101 01101001 01110010 00100000 01100110 01101001 01110010 01110011 01110100 00100000 01110110 01101001 01100011 01110100 01101111 01110010 01111001 00100000 01100001 01100111 01100001 01101001 01101110 01110011 01110100 00001010 01110100 01101000 01100101 00100000 01100101 01110110 01101001 01101100 00100000 01000111 01100001 01101100 01100001 01100011 01110100 01101001 01100011 00100000 01000101 01101101 01110000 01101001 01110010 01100101 00101110 00001010 00001010 01000100 01110101 01110010 01101001 01101110 01100111 00100000 01110100 01101000 01100101 00100000 01100010 01100001 01110100 01110100 01101100 01100101 00101100 00100000 01110010 01100101 01100010 01100101 01101100 00001010 01110011 01110000 01101001 01100101 01110011 00100000 01101101 01100001 01101110 01100001 01100111 01100101 01100100 00100000 01110100 01101111 00100000 01110011 01110100 01100101 01100001 01101100 00100000 01110011 01100101 01100011 01110010 01100101 01110100 00001010 01110000 01101100 01100001 01101110 01110011 00100000 01110100 01101111 00100000 01110100 01101000 01100101 00100000 01000101 01101101 01110000 01101001 01110010 01100101 00100111 01110011 00001010 01110101 01101100 01110100 01101001 01101101 01100001 01110100 01100101 00100000 01110111 01100101 01100001 01110000 01101111 01101110 00101100 00100000 01110100 01101000 01100101 00100000 01000100 01000101 01000001 01010100 01001000 00001010 01010011 01010100 01000001 01010010 00101100 00100000 01100001 01101110 00100000 01100001 01110010 01101101 01101111 01110010 01100101 01100100 00100000 01110011 01110000 01100001 01100011 01100101 00001010 01110011 01110100 01100001 01110100 01101001 01101111 01101110 00100000 01110111 01101001 01110100 01101000 00100000 01100101 01101110 01101111 01110101 01100111 01101000 00100000 01110000 01101111 01110111 01100101 01110010 00100000 01110100 01101111 00001010 01100100 01100101 01110011 01110100 01110010 01101111 01111001 00100000 01100001 01101110 00100000 01100101 01101110 01110100 01101001 01110010 01100101 00100000 01110000 01101100 01100001 01101110 01100101 01110100 00101110 00001010 00001010 01010000 01110101 01110010 01110011 01110101 01100101 01100100 00100000 01100010 01111001 00100000 01110100 01101000 01100101 00100000 01000101 01101101 01110000 01101001 01110010 01100101 00100111 01110011 00001010 01110011 01101001 01101110 01101001 01110011 01110100 01100101 01110010 00100000 01100001 01100111 01100101 01101110 01110100 01110011 00101100 00100000 01010000 01110010 01101001 01101110 01100011 01100101 01110011 01110011 00001010 01001100 01100101 01101001 01100001 00100000 01110010 01100001 01100011 01100101 01110011 00100000 01101000 01101111 01101101 01100101 00100000 01100001 01100010 01101111 01100001 01110010 01100100 00100000 01101000 01100101 01110010 00001010 01110011 01110100 01100001 01110010 01110011 01101000 01101001 01110000 00101100 00100000 01100011 01110101 01110011 01110100 01101111 01100100 01101001 01100001 01101110 00100000 01101111 01100110 00100000 01110100 01101000 01100101 00001010 01110011 01110100 01101111 01101100 01100101 01101110 00100000 01110000 01101100 01100001 01101110 01110011 00100000 01110100 01101000 01100001 01110100 00100000 01100011 01100001 01101110 00100000 01110011 01100001 01110110 01100101 00001010 01101000 01100101 01110010 00100000 01110000 01100101 01101111 01110000 01101100 01100101 00100000 01100001 01101110 01100100 00100000 01110010 01100101 01110011 01110100 01101111 01110010 01100101 00001010 01100110 01110010 01100101 01100101 01100100 01101111 01101101 00100000 01110100 01101111 00100000 01110100 01101000 01100101 00100000 01100111 01100001 01101100 01100001 01111000 01111001 00101110 00101110 00101110 00101110</flowPara><flowPara
         style="font-size:13px;fill:#646464;fill-opacity:0.56682027"
         id="flowPara3020" /><flowPara
         style="font-size:13px;fill:#646464;fill-opacity:0.56682027"
         id="flowPara3022" /><flowPara
         style="font-size:13px;fill:#646464;fill-opacity:0.56682027"
         id="flowPara3024" /></flowRoot>    <path
       style="fill:#ffffff;stroke:#000000;stroke-width:1px;stroke-linecap:butt;stroke-linejoin:miter;stroke-opacity:1;fill-opacity:1"
       d="m 34,274.40942 3,42 15,12 28,-3 10,-14 -8,-39 -15,-2 -2,22 -10,-6 -2,-12 z"
       id="path3801"
       inkscape:connector-curvature="0"
       transform="translate(0,527.95272)" />
    <path
       style="fill:#ffffff;stroke:#000000;stroke-width:1px;stroke-linecap:butt;stroke-linejoin:miter;stroke-opacity:1;fill-opacity:1"
       d="m 35,194.40942 20,-1 12,16 -4,-17 20,1 8,36 -2,17 -13,0 -13,-8 -9,8 -20,-6 z"
       id="path3803"
       inkscape:connector-curvature="0"
       transform="translate(0,527.95272)" />
    <path
       style="fill:#ffffff;stroke:#000000;stroke-width:1px;stroke-linecap:butt;stroke-linejoin:miter;stroke-opacity:1;fill-opacity:1"
       d="m 34,163.40942 52,2 -3,-38 3,-14 -53,1 z"
       id="path3805"
       inkscape:connector-curvature="0"
       transform="translate(0,527.95272)" />
    <path
       style="fill:#ffffff;stroke:#000000;stroke-width:1px;stroke-linecap:butt;stroke-linejoin:miter;stroke-opacity:1;fill-opacity:1"
       d="m 34,84.409424 21,0 4,-9 19,12 11,-5 -4,-48 -19,0 -6,6 -9,-6 -16,-1 z"
       id="path3807"
       inkscape:connector-curvature="0"
       transform="translate(0,527.95272)" />
  </g>
  <g
     inkscape:groupmode="layer"
     id="layer2"
     inkscape:label="Text">
    <g
       transform="translate(-1,-23)"
       style="font-size:40px;font-style:normal;font-weight:normal;line-height:125%;letter-spacing:0px;word-spacing:0px;fill:#646464;fill-opacity:1;stroke:none;font-family:Sans"
       id="flowRoot2986">
      <path
         d="m 95.4375,109.57464 0,6.1875 -6.15625,0 0,-6.1875 6.15625,0 m -6.15625,0 0,-6.125 6.15625,0 0,6.125 -6.15625,0 m 0,-6.125 0,-6.281248 6.15625,0 0,6.281248 -6.15625,0 m 0,-6.281248 0,-6.25 6.15625,0 0,6.25 -6.15625,0 m 0,-6.25 0,-6.28125 6.15625,0 0,6.28125 -6.15625,0 m 0,-6.28125 0,-6.25 6.15625,0 0,6.25 -6.15625,0 m 0,-6.25 0,-6.28125 6.15625,0 0,6.28125 -6.15625,0 m 0,-6.28125 0,-6.28125 6.15625,0 0,6.28125 -6.15625,0 m 0,-6.28125 0,-6.125 6.15625,0 0,6.125 -6.15625,0 m -6.25,-6.125 0,-6.28125 6.25,0 0,6.28125 -6.25,0 m 6.25,49.874998 0,6.1875 -6.25,0 0,-6.1875 6.25,0 m -6.25,0 0,-6.125 6.25,0 0,6.125 -6.25,0 m 0,-6.125 0,-6.281248 6.25,0 0,6.281248 -6.25,0 m 0,-6.281248 0,-6.25 6.25,0 0,6.25 -6.25,0 m 0,-6.25 0,-6.28125 6.25,0 0,6.28125 -6.25,0 m 0,-6.28125 0,-6.25 6.25,0 0,6.25 -6.25,0 m 0,-6.25 0,-6.28125 6.25,0 0,6.28125 -6.25,0 m 0,-6.28125 0,-6.28125 6.25,0 0,6.28125 -6.25,0 m 0,-6.28125 0,-6.125 6.25,0 0,6.125 -6.25,0 m -6.28125,-6.125 0,-6.28125 6.28125,0 0,6.28125 -6.28125,0 m 6.28125,49.874998 0,6.1875 -6.28125,0 0,-6.1875 6.28125,0 m -6.28125,0 0,-6.125 6.28125,0 0,6.125 -6.28125,0 m -6.25,-49.874998 0,-6.28125 6.25,0 0,6.28125 -6.25,0 m 6.25,49.874998 0,6.1875 -6.25,0 0,-6.1875 6.25,0 m -6.25,0 0,-6.125 6.25,0 0,6.125 -6.25,0 m -6.28125,-49.874998 0,-6.28125 6.28125,0 0,6.28125 -6.28125,0 m 0,49.874998 0,-6.125 6.28125,0 0,6.125 -6.28125,0 m 0,-6.125 0,-6.281248 6.28125,0 0,6.281248 -6.28125,0 m 0,-6.281248 0,-6.25 6.28125,0 0,6.25 -6.28125,0 m 0,-6.25 0,-6.28125 6.28125,0 0,6.28125 -6.28125,0 m 0,-6.28125 0,-6.25 6.28125,0 0,6.25 -6.28125,0 m 0,-18.8125 0,-6.125 6.28125,0 0,6.125 -6.28125,0 m 0,43.749998 0,6.1875 -6.28125,0 0,-6.1875 6.28125,0 m -6.28125,0 0,-6.125 6.28125,0 0,6.125 -6.28125,0 m 0,-6.125 0,-6.281248 6.28125,0 0,6.281248 -6.28125,0 m 0,-6.281248 0,-6.25 6.28125,0 0,6.25 -6.28125,0 m 0,-6.25 0,-6.28125 6.28125,0 0,6.28125 -6.28125,0 m 0,-18.8125 0,-6.28125 6.28125,0 0,6.28125 -6.28125,0 m 0,-6.28125 0,-6.125 6.28125,0 0,6.125 -6.28125,0 m -6.125,-6.125 0,-6.28125 6.125,0 0,6.28125 -6.125,0 m 6.125,49.874998 0,6.1875 -6.125,0 0,-6.1875 6.125,0 m -6.125,0 0,-6.125 6.125,0 0,6.125 -6.125,0 m 0,-6.125 0,-6.281248 6.125,0 0,6.281248 -6.125,0 m 0,-6.281248 0,-6.25 6.125,0 0,6.25 -6.125,0 m 0,-6.25 0,-6.28125 6.125,0 0,6.28125 -6.125,0 m 0,-6.28125 0,-6.25 6.125,0 0,6.25 -6.125,0 m 0,-18.8125 0,-6.125 6.125,0 0,6.125 -6.125,0 m -6.28125,-6.125 0,-6.28125 6.28125,0 0,6.28125 -6.28125,0 m 6.28125,49.874998 0,6.1875 -6.28125,0 0,-6.1875 6.28125,0 m -6.28125,0 0,-6.125 6.28125,0 0,6.125 -6.28125,0 m -6.25,-49.874998 0,-6.28125 6.25,0 0,6.28125 -6.25,0 m 6.25,49.874998 0,6.1875 -6.25,0 0,-6.1875 6.25,0 m -6.25,0 0,-6.125 6.25,0 0,6.125 -6.25,0 M 33,59.699642 l 0,-6.28125 6.28125,0 0,6.28125 -6.28125,0 m 0,49.874998 0,-6.125 6.28125,0 0,6.125 -6.28125,0 m 0,-6.125 0,-6.281248 6.28125,0 0,6.281248 -6.28125,0 m 0,-6.281248 0,-6.25 6.28125,0 0,6.25 -6.28125,0 m 0,-6.25 0,-6.28125 6.28125,0 0,6.28125 -6.28125,0 m 0,-6.28125 0,-6.25 6.28125,0 0,6.25 -6.28125,0 m 0,-6.25 0,-6.28125 6.28125,0 0,6.28125 -6.28125,0 m 0,-6.28125 0,-6.28125 6.28125,0 0,6.28125 -6.28125,0 m 0,-6.28125 0,-6.125 6.28125,0 0,6.125 -6.28125,0"
         style="font-size:64px;font-variant:normal;font-weight:bold;font-stretch:normal;fill:#646464;font-family:Karmatic Arcade;-inkscape-font-specification:Karmatic Arcade Bold"
         id="path3036"
         inkscape:connector-curvature="0" />
      <path
         d="m 95.4375,189.57464 0,6.1875 -6.15625,0 0,-6.1875 6.15625,0 m -6.15625,0 0,-6.125 6.15625,0 0,6.125 -6.15625,0 m 0,-6.125 0,-6.28125 6.15625,0 0,6.28125 -6.15625,0 m 0,-25.0625 0,-6.28125 6.15625,0 0,6.28125 -6.15625,0 m 0,-6.28125 0,-6.28125 6.15625,0 0,6.28125 -6.15625,0 m 0,-6.28125 0,-6.125 6.15625,0 0,6.125 -6.15625,0 m -6.25,-6.125 0,-6.28125 6.25,0 0,6.28125 -6.25,0 m 6.25,49.875 0,6.1875 -6.25,0 0,-6.1875 6.25,0 m -6.25,0 0,-6.125 6.25,0 0,6.125 -6.25,0 m 0,-6.125 0,-6.28125 6.25,0 0,6.28125 -6.25,0 m 0,-6.28125 0,-6.25 6.25,0 0,6.25 -6.25,0 m 0,-6.25 0,-6.28125 6.25,0 0,6.28125 -6.25,0 m 0,-6.28125 0,-6.25 6.25,0 0,6.25 -6.25,0 m 0,-6.25 0,-6.28125 6.25,0 0,6.28125 -6.25,0 m 0,-6.28125 0,-6.28125 6.25,0 0,6.28125 -6.25,0 m 0,-6.28125 0,-6.125 6.25,0 0,6.125 -6.25,0 m -6.28125,-6.125 0,-6.28125 6.28125,0 0,6.28125 -6.28125,0 m 6.28125,49.875 0,6.1875 -6.28125,0 0,-6.1875 6.28125,0 m -6.28125,0 0,-6.125 6.28125,0 0,6.125 -6.28125,0 m 0,-12.40625 0,-6.25 6.28125,0 0,6.25 -6.28125,0 m 0,-6.25 0,-6.28125 6.28125,0 0,6.28125 -6.28125,0 m 0,-6.28125 0,-6.25 6.28125,0 0,6.25 -6.28125,0 m 0,-6.25 0,-6.28125 6.28125,0 0,6.28125 -6.28125,0 m 0,-6.28125 0,-6.28125 6.28125,0 0,6.28125 -6.28125,0 m -6.25,-12.40625 0,-6.28125 6.25,0 0,6.28125 -6.25,0 m 6.25,49.875 0,6.1875 -6.25,0 0,-6.1875 6.25,0 m -6.25,0 0,-6.125 6.25,0 0,6.125 -6.25,0 m 0,-12.40625 0,-6.25 6.25,0 0,6.25 -6.25,0 m 0,-6.25 0,-6.28125 6.25,0 0,6.28125 -6.25,0 m 0,-12.53125 0,-6.28125 6.25,0 0,6.28125 -6.25,0 m 0,-6.28125 0,-6.28125 6.25,0 0,6.28125 -6.25,0 m -6.28125,-12.40625 0,-6.28125 6.28125,0 0,6.28125 -6.28125,0 m 6.28125,49.875 0,6.1875 -6.28125,0 0,-6.1875 6.28125,0 m -6.28125,0 0,-6.125 6.28125,0 0,6.125 -6.28125,0 m 0,-12.40625 0,-6.25 6.28125,0 0,6.25 -6.28125,0 m 0,-6.25 0,-6.28125 6.28125,0 0,6.28125 -6.28125,0 m 0,-12.53125 0,-6.28125 6.28125,0 0,6.28125 -6.28125,0 m 0,-6.28125 0,-6.28125 6.28125,0 0,6.28125 -6.28125,0 m -6.28125,-12.40625 0,-6.28125 6.28125,0 0,6.28125 -6.28125,0 m 6.28125,49.875 0,6.1875 -6.28125,0 0,-6.1875 6.28125,0 m -6.28125,0 0,-6.125 6.28125,0 0,6.125 -6.28125,0 m 0,-12.40625 0,-6.25 6.28125,0 0,6.25 -6.28125,0 m 0,-6.25 0,-6.28125 6.28125,0 0,6.28125 -6.28125,0 m 0,-12.53125 0,-6.28125 6.28125,0 0,6.28125 -6.28125,0 m 0,-6.28125 0,-6.28125 6.28125,0 0,6.28125 -6.28125,0 m -6.125,-12.40625 0,-6.28125 6.125,0 0,6.28125 -6.125,0 m 6.125,49.875 0,6.1875 -6.125,0 0,-6.1875 6.125,0 m -6.125,0 0,-6.125 6.125,0 0,6.125 -6.125,0 m 0,-12.40625 0,-6.25 6.125,0 0,6.25 -6.125,0 m 0,-6.25 0,-6.28125 6.125,0 0,6.28125 -6.125,0 m 0,-12.53125 0,-6.28125 6.125,0 0,6.28125 -6.125,0 m 0,-6.28125 0,-6.28125 6.125,0 0,6.28125 -6.125,0 m -6.28125,-12.40625 0,-6.28125 6.28125,0 0,6.28125 -6.28125,0 m 6.28125,49.875 0,6.1875 -6.28125,0 0,-6.1875 6.28125,0 m -6.28125,0 0,-6.125 6.28125,0 0,6.125 -6.28125,0 m -6.25,-49.875 0,-6.28125 6.25,0 0,6.28125 -6.25,0 m 6.25,49.875 0,6.1875 -6.25,0 0,-6.1875 6.25,0 m -6.25,0 0,-6.125 6.25,0 0,6.125 -6.25,0 M 33,139.69964 l 0,-6.28125 6.28125,0 0,6.28125 -6.28125,0 m 0,49.875 0,-6.125 6.28125,0 0,6.125 -6.28125,0 m 0,-6.125 0,-6.28125 6.28125,0 0,6.28125 -6.28125,0 m 0,-6.28125 0,-6.25 6.28125,0 0,6.25 -6.28125,0 m 0,-6.25 0,-6.28125 6.28125,0 0,6.28125 -6.28125,0 m 0,-6.28125 0,-6.25 6.28125,0 0,6.25 -6.28125,0 m 0,-6.25 0,-6.28125 6.28125,0 0,6.28125 -6.28125,0 m 0,-6.28125 0,-6.28125 6.28125,0 0,6.28125 -6.28125,0 m 0,-6.28125 0,-6.125 6.28125,0 0,6.125 -6.28125,0"
         style="font-size:64px;font-variant:normal;font-weight:bold;font-stretch:normal;fill:#646464;font-family:Karmatic Arcade;-inkscape-font-specification:Karmatic Arcade Bold"
         id="path3038"
         inkscape:connector-curvature="0" />
      <path
         d="m 95.4375,269.57464 0,6.1875 -6.15625,0 0,-6.1875 6.15625,0 m -6.15625,0 0,-6.125 6.15625,0 0,6.125 -6.15625,0 m 0,-6.125 0,-6.28125 6.15625,0 0,6.28125 -6.15625,0 m 0,-6.28125 0,-6.25 6.15625,0 0,6.25 -6.15625,0 m 0,-6.25 0,-6.28125 6.15625,0 0,6.28125 -6.15625,0 m 0,-6.28125 0,-6.25 6.15625,0 0,6.25 -6.15625,0 m 0,-6.25 0,-6.28125 6.15625,0 0,6.28125 -6.15625,0 m 0,-6.28125 0,-6.28125 6.15625,0 0,6.28125 -6.15625,0 m 0,-6.28125 0,-6.125 6.15625,0 0,6.125 -6.15625,0 m -6.25,-6.125 0,-6.28125 6.25,0 0,6.28125 -6.25,0 m 6.25,49.875 0,6.1875 -6.25,0 0,-6.1875 6.25,0 m -6.25,0 0,-6.125 6.25,0 0,6.125 -6.25,0 m 0,-6.125 0,-6.28125 6.25,0 0,6.28125 -6.25,0 m 0,-6.28125 0,-6.25 6.25,0 0,6.25 -6.25,0 m 0,-6.25 0,-6.28125 6.25,0 0,6.28125 -6.25,0 m 0,-6.28125 0,-6.25 6.25,0 0,6.25 -6.25,0 m 0,-6.25 0,-6.28125 6.25,0 0,6.28125 -6.25,0 m 0,-6.28125 0,-6.28125 6.25,0 0,6.28125 -6.25,0 m 0,-6.28125 0,-6.125 6.25,0 0,6.125 -6.25,0 m -6.28125,-6.125 0,-6.28125 6.28125,0 0,6.28125 -6.28125,0 m 6.28125,49.875 0,6.1875 -6.28125,0 0,-6.1875 6.28125,0 m -6.28125,0 0,-6.125 6.28125,0 0,6.125 -6.28125,0 m -6.25,-49.875 0,-6.28125 6.25,0 0,6.28125 -6.25,0 m 6.25,49.875 0,6.1875 -6.25,0 0,-6.1875 6.25,0 m -6.25,0 0,-6.125 6.25,0 0,6.125 -6.25,0 m -6.28125,-49.875 0,-6.28125 6.28125,0 0,6.28125 -6.28125,0 m 0,49.875 0,-6.125 6.28125,0 0,6.125 -6.28125,0 m 0,-6.125 0,-6.28125 6.28125,0 0,6.28125 -6.28125,0 m 0,-6.28125 0,-6.25 6.28125,0 0,6.25 -6.28125,0 m 0,-18.78125 0,-6.28125 6.28125,0 0,6.28125 -6.28125,0 m 0,-6.28125 0,-6.28125 6.28125,0 0,6.28125 -6.28125,0 m 0,-6.28125 0,-6.125 6.28125,0 0,6.125 -6.28125,0 m 0,43.75 0,6.1875 -6.28125,0 0,-6.1875 6.28125,0 m -6.28125,0 0,-6.125 6.28125,0 0,6.125 -6.28125,0 m 0,-6.125 0,-6.28125 6.28125,0 0,6.28125 -6.28125,0 m 0,-6.28125 0,-6.25 6.28125,0 0,6.25 -6.28125,0 m 0,-6.25 0,-6.28125 6.28125,0 0,6.28125 -6.28125,0 m 0,-18.8125 0,-6.28125 6.28125,0 0,6.28125 -6.28125,0 m 0,-6.28125 0,-6.125 6.28125,0 0,6.125 -6.28125,0 m -6.125,-6.125 0,-6.28125 6.125,0 0,6.28125 -6.125,0 m 6.125,49.875 0,6.1875 -6.125,0 0,-6.1875 6.125,0 m -6.125,0 0,-6.125 6.125,0 0,6.125 -6.125,0 m 0,-6.125 0,-6.28125 6.125,0 0,6.28125 -6.125,0 m 0,-6.28125 0,-6.25 6.125,0 0,6.25 -6.125,0 m 0,-6.25 0,-6.28125 6.125,0 0,6.28125 -6.125,0 m 0,-6.28125 0,-6.25 6.125,0 0,6.25 -6.125,0 m 0,-18.8125 0,-6.125 6.125,0 0,6.125 -6.125,0 m -6.28125,-6.125 0,-6.28125 6.28125,0 0,6.28125 -6.28125,0 m 6.28125,49.875 0,6.1875 -6.28125,0 0,-6.1875 6.28125,0 m -6.28125,0 0,-6.125 6.28125,0 0,6.125 -6.28125,0 m -6.25,-49.875 0,-6.28125 6.25,0 0,6.28125 -6.25,0 m 6.25,49.875 0,6.1875 -6.25,0 0,-6.1875 6.25,0 m -6.25,0 0,-6.125 6.25,0 0,6.125 -6.25,0 M 33,219.69964 l 0,-6.28125 6.28125,0 0,6.28125 -6.28125,0 m 0,49.875 0,-6.125 6.28125,0 0,6.125 -6.28125,0 m 0,-6.125 0,-6.28125 6.28125,0 0,6.28125 -6.28125,0 m 0,-6.28125 0,-6.25 6.28125,0 0,6.25 -6.28125,0 m 0,-6.25 0,-6.28125 6.28125,0 0,6.28125 -6.28125,0 m 0,-6.28125 0,-6.25 6.28125,0 0,6.25 -6.28125,0 m 0,-6.25 0,-6.28125 6.28125,0 0,6.28125 -6.28125,0 m 0,-6.28125 0,-6.28125 6.28125,0 0,6.28125 -6.28125,0 m 0,-6.28125 0,-6.125 6.28125,0 0,6.125 -6.28125,0"
         style="font-size:64px;font-variant:normal;font-weight:bold;font-stretch:normal;fill:#646464;font-family:Karmatic Arcade;-inkscape-font-specification:Karmatic Arcade Bold"
         id="path3040"
         inkscape:connector-curvature="0" />
      <path
         d="m 89.28125,349.57464 0,-6.125 6.15625,0 0,6.125 -6.15625,0 m 0,-6.125 0,-6.28125 6.15625,0 0,6.28125 -6.15625,0 m 0,-6.28125 0,-6.25 6.15625,0 0,6.25 -6.15625,0 m 0,-6.25 0,-6.28125 6.15625,0 0,6.28125 -6.15625,0 m 0,-6.28125 0,-6.25 6.15625,0 0,6.25 -6.15625,0 m 0,-6.25 0,-6.28125 6.15625,0 0,6.28125 -6.15625,0 m 0,-6.28125 0,-6.28125 6.15625,0 0,6.28125 -6.15625,0 m 0,-6.28125 0,-6.125 6.15625,0 0,6.125 -6.15625,0 m -6.25,-6.125 0,-6.28125 6.25,0 0,6.28125 -6.25,0 m 6.25,49.875 0,6.1875 -6.25,0 0,-6.1875 6.25,0 m -6.25,0 0,-6.125 6.25,0 0,6.125 -6.25,0 m 0,-6.125 0,-6.28125 6.25,0 0,6.28125 -6.25,0 m 0,-6.28125 0,-6.25 6.25,0 0,6.25 -6.25,0 m 0,-6.25 0,-6.28125 6.25,0 0,6.28125 -6.25,0 m 0,-6.28125 0,-6.25 6.25,0 0,6.25 -6.25,0 m 0,-6.25 0,-6.28125 6.25,0 0,6.28125 -6.25,0 m 0,-6.28125 0,-6.28125 6.25,0 0,6.28125 -6.25,0 m 0,-6.28125 0,-6.125 6.25,0 0,6.125 -6.25,0 m -6.28125,-6.125 0,-6.28125 6.28125,0 0,6.28125 -6.28125,0 m 6.28125,49.875 0,6.1875 -6.28125,0 0,-6.1875 6.28125,0 m -6.28125,0 0,-6.125 6.28125,0 0,6.125 -6.28125,0 m 0,-6.125 0,-6.28125 6.28125,0 0,6.28125 -6.28125,0 m -6.25,-43.75 0,-6.28125 6.25,0 0,6.28125 -6.25,0 m 6.25,49.875 0,6.1875 -6.25,0 0,-6.1875 6.25,0 m -6.25,0 0,-6.125 6.25,0 0,6.125 -6.25,0 m -6.28125,-49.875 0,-6.28125 6.28125,0 0,6.28125 -6.28125,0 m 6.28125,49.875 0,6.1875 -6.28125,0 0,-6.1875 6.28125,0 m -6.28125,0 0,-6.125 6.28125,0 0,6.125 -6.28125,0 m 0,-12.40625 0,-6.25 6.28125,0 0,6.25 -6.28125,0 m 0,-6.25 0,-6.28125 6.28125,0 0,6.28125 -6.28125,0 m 0,-6.28125 0,-6.25 6.28125,0 0,6.25 -6.28125,0 m 0,-6.25 0,-6.28125 6.28125,0 0,6.28125 -6.28125,0 m 0,-6.28125 0,-6.28125 6.28125,0 0,6.28125 -6.28125,0 m 0,-6.28125 0,-6.125 6.28125,0 0,6.125 -6.28125,0 m 0,43.75 0,6.1875 -6.28125,0 0,-6.1875 6.28125,0 m -6.28125,0 0,-6.125 6.28125,0 0,6.125 -6.28125,0 m 0,-12.40625 0,-6.25 6.28125,0 0,6.25 -6.28125,0 m 0,-6.25 0,-6.28125 6.28125,0 0,6.28125 -6.28125,0 m 0,-6.28125 0,-6.25 6.28125,0 0,6.25 -6.28125,0 m 0,-6.25 0,-6.28125 6.28125,0 0,6.28125 -6.28125,0 m 0,-6.28125 0,-6.28125 6.28125,0 0,6.28125 -6.28125,0 m 0,-6.28125 0,-6.125 6.28125,0 0,6.125 -6.28125,0 m -6.125,-6.125 0,-6.28125 6.125,0 0,6.28125 -6.125,0 m 6.125,49.875 0,6.1875 -6.125,0 0,-6.1875 6.125,0 m -6.125,0 0,-6.125 6.125,0 0,6.125 -6.125,0 m 0,-12.40625 0,-6.25 6.125,0 0,6.25 -6.125,0 m 0,-6.25 0,-6.28125 6.125,0 0,6.28125 -6.125,0 m 0,-6.28125 0,-6.25 6.125,0 0,6.25 -6.125,0 m 0,-6.25 0,-6.28125 6.125,0 0,6.28125 -6.125,0 m 0,-6.28125 0,-6.28125 6.125,0 0,6.28125 -6.125,0 m 0,-6.28125 0,-6.125 6.125,0 0,6.125 -6.125,0 m -6.28125,-6.125 0,-6.28125 6.28125,0 0,6.28125 -6.28125,0 m 6.28125,49.875 0,6.1875 -6.28125,0 0,-6.1875 6.28125,0 m -6.28125,0 0,-6.125 6.28125,0 0,6.125 -6.28125,0 m -6.25,-49.875 0,-6.28125 6.25,0 0,6.28125 -6.25,0 m 0,49.875 0,-6.125 6.25,0 0,6.125 -6.25,0 m 0,-6.125 0,-6.28125 6.25,0 0,6.28125 -6.25,0 M 33,299.69964 l 0,-6.28125 6.28125,0 0,6.28125 -6.28125,0 m 0,43.75 0,-6.28125 6.28125,0 0,6.28125 -6.28125,0 m 0,-6.28125 0,-6.25 6.28125,0 0,6.25 -6.28125,0 m 0,-6.25 0,-6.28125 6.28125,0 0,6.28125 -6.28125,0 m 0,-6.28125 0,-6.25 6.28125,0 0,6.25 -6.28125,0 m 0,-6.25 0,-6.28125 6.28125,0 0,6.28125 -6.28125,0 m 0,-6.28125 0,-6.28125 6.28125,0 0,6.28125 -6.28125,0 m 0,-6.28125 0,-6.125 6.28125,0 0,6.125 -6.28125,0"
         style="font-size:64px;font-variant:normal;font-weight:bold;font-stretch:normal;fill:#646464;font-family:Karmatic Arcade;-inkscape-font-specification:Karmatic Arcade Bold"
         id="path3042"
         inkscape:connector-curvature="0" />
    </g>
    <rect
       style="fill:#ffffff;fill-opacity:1;stroke:#646464;stroke-opacity:1;stroke-width:1;stroke-miterlimit:4;stroke-dasharray:6, 6;stroke-dashoffset:0"
       id="rect3762"
       width="460.62991"
       height="460.62991"
       x="141.73228"
       y="31.889748" />
    <path
       sodipodi:type="arc"
       style="fill:#e0251f;fill-opacity:1;stroke:none"
       id="path4402"
       sodipodi:cx="45"
       sodipodi:cy="427.40942"
       sodipodi:rx="17"
       sodipodi:ry="18"
       d="m 62,427.40942 a 17,18 0 1 1 -34,0 17,18 0 1 1 34,0 z"
       transform="matrix(0.95436547,0,0,0.90134522,1.05257,61.949449)" />
    <path
       sodipodi:type="arc"
       style="fill:#e0251f;fill-opacity:1;stroke:none"
       id="path4402-0"
       sodipodi:cx="45"
       sodipodi:cy="427.40942"
       sodipodi:rx="17"
       sodipodi:ry="18"
       d="m 62,427.40942 a 17,18 0 1 1 -34,0 17,18 0 1 1 34,0 z"
       transform="matrix(0.71907135,0,0,0.67912299,65.641789,181.14586)" />
    <path
       sodipodi:type="arc"
       style="fill:#e0251f;fill-opacity:1;stroke:none"
       id="path4402-8"
       sodipodi:cx="45"
       sodipodi:cy="427.40942"
       sodipodi:rx="17"
       sodipodi:ry="18"
       d="m 62,427.40942 a 17,18 0 1 1 -34,0 17,18 0 1 1 34,0 z"
       transform="matrix(1.013189,0,0,0.95690078,602.4065,-374.57899)" />
    <path
       sodipodi:type="arc"
       style="fill:#e0251f;fill-opacity:1;stroke:none"
       id="path4402-5"
       sodipodi:cx="45"
       sodipodi:cy="427.40942"
       sodipodi:rx="17"
       sodipodi:ry="18"
       d="m 62,427.40942 a 17,18 0 1 1 -34,0 17,18 0 1 1 34,0 z"
       transform="matrix(1.013189,0,0,0.95690078,609.4065,-28.578987)" />
    <path
       style="fill:none;stroke:#e0251f;stroke-width:2;stroke-linecap:butt;stroke-linejoin:miter;stroke-miterlimit:4;stroke-opacity:1;stroke-dasharray:none"
       d="m 694,531.40942 -22,-24 -572,0 -39,-45"
       id="path4450"
       inkscape:connector-curvature="0"
       sodipodi:nodetypes="cccc" />
    <path
       style="fill:none;stroke:#e0251f;stroke-width:2;stroke-linecap:butt;stroke-linejoin:miter;stroke-miterlimit:4;stroke-opacity:1;stroke-dasharray:none"
       d="m 710,534.40942 -31,-37 -562,0 -16,-19"
       id="path4452"
       inkscape:connector-curvature="0" />
    <path
       style="fill:none;stroke:#e0251f;stroke-width:2;stroke-linecap:butt;stroke-linejoin:miter;stroke-opacity:1;stroke-miterlimit:4;stroke-dasharray:none"
       d="m 720,530.40942 -34,-41 0,-76 -26,-31"
       id="path4454"
       inkscape:connector-curvature="0" />
    <path
       style="fill:none;stroke:#e0251f;stroke-width:2;stroke-linecap:butt;stroke-linejoin:miter;stroke-miterlimit:4;stroke-opacity:1;stroke-dasharray:none"
       d="m 734,531.40942 -34,-41 0,-292 -60,-63"
       id="path4454-9"
       inkscape:connector-curvature="0"
       sodipodi:nodetypes="cccc" />
    <path
       style="fill:none;stroke:#e0251f;stroke-width:2;stroke-linecap:butt;stroke-linejoin:miter;stroke-miterlimit:4;stroke-opacity:1;stroke-dasharray:none"
       d="m 747,531.40942 -34,-41 0,-372 -26,-27"
       id="path4454-9-6"
       inkscape:connector-curvature="0"
       sodipodi:nodetypes="cccc" />
    <path
       style="fill:none;stroke:#e0251f;stroke-width:2;stroke-linecap:butt;stroke-linejoin:miter;stroke-miterlimit:4;stroke-opacity:1;stroke-dasharray:none"
       d="m 760,530.40942 -34,-41 0,-384 -77,-76"
       id="path4454-9-6-5"
       inkscape:connector-curvature="0"
       sodipodi:nodetypes="cccc" />
    <path
       sodipodi:type="arc"
       style="fill:#e0251f;fill-opacity:0.39631336;stroke:#e0251f;stroke-width:1.47468364;stroke-miterlimit:4;stroke-opacity:1;stroke-dasharray:none"
       id="path4402-32"
       sodipodi:cx="45"
       sodipodi:cy="427.40942"
       sodipodi:rx="17"
       sodipodi:ry="18"
       d="m 62,427.40942 a 17,18 0 1 1 -34,0 17,18 0 1 1 34,0 z"
       transform="matrix(1.395542,0,0,1.3180119,-18.299386,-116.42127)" />
    <path
       sodipodi:type="arc"
       style="fill:#e0251f;fill-opacity:1;stroke:none"
       id="path4402-1"
       sodipodi:cx="45"
       sodipodi:cy="427.40942"
       sodipodi:rx="17"
       sodipodi:ry="18"
       d="m 62,427.40942 a 17,18 0 1 1 -34,0 17,18 0 1 1 34,0 z"
       transform="matrix(0.70346263,0,0,0.66438141,595.47491,-160.84451)" />
    <path
       sodipodi:type="arc"
       style="fill:#e0251f;fill-opacity:0.39631336;stroke:#e0251f;stroke-width:1.47468364;stroke-miterlimit:4;stroke-opacity:1;stroke-dasharray:none"
       id="path4402-32-8"
       sodipodi:cx="45"
       sodipodi:cy="427.40942"
       sodipodi:rx="17"
       sodipodi:ry="18"
       d="m 62,427.40942 a 17,18 0 1 1 -34,0 17,18 0 1 1 34,0 z"
       transform="matrix(1.0286538,0,0,0.97150635,581.21058,-292.32154)" />
    <path
       sodipodi:type="arc"
       style="fill:#e0251f;fill-opacity:1;stroke:none"
       id="path4402-329"
       sodipodi:cx="45"
       sodipodi:cy="427.40942"
       sodipodi:rx="17"
       sodipodi:ry="18"
       d="m 62,427.40942 a 17,18 0 1 1 -34,0 17,18 0 1 1 34,0 z"
       transform="matrix(0.51046044,0,0,0.48210156,655.26132,-122.99371)" />
    <path
       sodipodi:type="arc"
       style="fill:#e0251f;fill-opacity:0.39631336;stroke:#e0251f;stroke-width:1.47468364;stroke-miterlimit:4;stroke-opacity:1;stroke-dasharray:none"
       id="path4402-32-7"
       sodipodi:cx="45"
       sodipodi:cy="427.40942"
       sodipodi:rx="17"
       sodipodi:ry="18"
       d="m 62,427.40942 a 17,18 0 1 1 -34,0 17,18 0 1 1 34,0 z"
       transform="matrix(0.74643206,0,0,0.70496362,644.91056,-218.39867)" />
  </g>
</svg>
