<?xml version="1.0" encoding="UTF-8" standalone="no"?>
<!-- Created with Inkscape (http://www.inkscape.org/) -->

<svg
   xmlns:dc="http://purl.org/dc/elements/1.1/"
   xmlns:cc="http://creativecommons.org/ns#"
   xmlns:rdf="http://www.w3.org/1999/02/22-rdf-syntax-ns#"
   xmlns:svg="http://www.w3.org/2000/svg"
   xmlns="http://www.w3.org/2000/svg"
   xmlns:sodipodi="http://sodipodi.sourceforge.net/DTD/sodipodi-0.dtd"
   xmlns:inkscape="http://www.inkscape.org/namespaces/inkscape"
   width="744.09448"
   height="1052.3622"
   id="svg2"
   version="1.1"
   inkscape:version="0.48.4 r9939"
   sodipodi:docname="zoom_natural.png">
  <defs
     id="defs4" />
  <sodipodi:namedview
     id="base"
     pagecolor="#ffffff"
     bordercolor="#666666"
     borderopacity="1.0"
     inkscape:pageopacity="0.0"
     inkscape:pageshadow="2"
     inkscape:zoom="0.5"
     inkscape:cx="144.71816"
     inkscape:cy="561.3333"
     inkscape:document-units="px"
     inkscape:current-layer="layer1"
     showgrid="false"
     inkscape:window-width="1366"
     inkscape:window-height="711"
     inkscape:window-x="0"
     inkscape:window-y="0"
     inkscape:window-maximized="1" />
  <metadata
     id="metadata7">
    <rdf:RDF>
      <cc:Work
         rdf:about="">
        <dc:format>image/svg+xml</dc:format>
        <dc:type
           rdf:resource="http://purl.org/dc/dcmitype/StillImage" />
        <dc:title></dc:title>
      </cc:Work>
    </rdf:RDF>
  </metadata>
  <g
     inkscape:label="Layer 1"
     inkscape:groupmode="layer"
     id="layer1">
    <flowRoot
       xml:space="preserve"
       id="flowRoot4129"
       style="font-size:40px;font-style:normal;font-weight:normal;line-height:125%;letter-spacing:0px;word-spacing:0px;fill:#000000;fill-opacity:1;stroke:none;font-family:Sans"
       transform="matrix(1.1655654,0,0,1.0134855,-0.2619296,-0.08744643)"><flowRegion
         id="flowRegion4131"><rect
           id="rect4133"
           width="648.19336"
           height="1069.7605"
           x="0"
           y="0.36218262" /></flowRegion><flowPara
         id="flowPara4135"
         style="font-size:24px;fill:#646464;fill-opacity:1;-inkscape-font-specification:Courier;font-family:Courier;font-weight:normal;font-style:normal;font-stretch:normal;font-variant:normal">01000001 00100000 01101100 01101111 01101110 01100111 00100000 01110100 01101001 01101101 01100101 00100000 01100001 01100111 01101111 00101100 00100000 01101001 01101110 00100000 01100001 00100000 01100111 01100001 01101100 01100001 01111000 01111001 00100000 01100110 01100001 01110010 00101100 00001010 01100110 01100001 01110010 00100000 01100001 01110111 01100001 01111001 00101110 00101110 00101110 00101110 00001010 00001010 01001001 01110100 00100000 01101001 01110011 00100000 01100001 00100000 01110000 01100101 01110010 01101001 01101111 01100100 00100000 01101111 01100110 00100000 01100011 01101001 01110110 01101001 01101100 00100000 01110111 01100001 01110010 00101110 00001010 01010010 01100101 01100010 01100101 01101100 00100000 01110011 01110000 01100001 01100011 01100101 01110011 01101000 01101001 01110000 01110011 00101100 00100000 01110011 01110100 01110010 01101001 01101011 01101001 01101110 01100111 00001010 01100110 01110010 01101111 01101101 00100000 01100001 00100000 01101000 01101001 01100100 01100100 01100101 01101110 00100000 01100010 01100001 01110011 01100101 00101100 00100000 01101000 01100001 01110110 01100101 00100000 01110111 01101111 01101110 00001010 01110100 01101000 01100101 01101001 01110010 00100000 01100110 01101001 01110010 01110011 01110100 00100000 01110110 01101001 01100011 01110100 01101111 01110010 01111001 00100000 01100001 01100111 01100001 01101001 01101110 01110011 01110100 00001010 01110100 01101000 01100101 00100000 01100101 01110110 01101001 01101100 00100000 01000111 01100001 01101100 01100001 01100011 01110100 01101001 01100011 00100000 01000101 01101101 01110000 01101001 01110010 01100101 00101110 00001010 00001010 01000100 01110101 01110010 01101001 01101110 01100111 00100000 01110100 01101000 01100101 00100000 01100010 01100001 01110100 01110100 01101100 01100101 00101100 00100000 01110010 01100101 01100010 01100101 01101100 00001010 01110011 01110000 01101001 01100101 01110011 00100000 01101101 01100001 01101110 01100001 01100111 01100101 01100100 00100000 01110100 01101111 00100000 01110011 01110100 01100101 01100001 01101100 00100000 01110011 01100101 01100011 01110010 01100101 01110100 00001010 01110000 01101100 01100001 01101110 01110011 00100000 01110100 01101111 00100000 01110100 01101000 01100101 00100000 01000101 01101101 01110000 01101001 01110010 01100101 00100111 01110011 00001010 01110101 01101100 01110100 01101001 01101101 01100001 01110100 01100101 00100000 01110111 01100101 01100001 01110000 01101111 01101110 00101100 00100000 01110100 01101000 01100101 00100000 01000100 01000101 01000001 01010100 01001000 00001010 01010011 01010100 01000001 01010010 00101100 00100000 01100001 01101110 00100000 01100001 01110010 01101101 01101111 01110010 01100101 01100100 00100000 01110011 01110000 01100001 01100011 01100101 00001010 01110011 01110100 01100001 01110100 01101001 </flowPara></flowRoot>    <rect
       style="fill:#ffffff;fill-opacity:1;stroke:#000000;stroke-width:1.99263465;stroke-linecap:round;stroke-linejoin:round;stroke-miterlimit:4;stroke-opacity:1;stroke-dasharray:3.98526942, 3.98526942;stroke-dashoffset:0"
       id="rect2985"
       width="423.20419"
       height="742.10187"
       x="160.44513"
       y="155.13014" />
    <flowRoot
       xml:space="preserve"
       id="flowRoot3755"
       style="font-size:40px;font-style:normal;font-weight:normal;line-height:125%;letter-spacing:0px;word-spacing:0px;fill:#000000;fill-opacity:1;stroke:none;font-family:Sans"
       transform="translate(-2,-78)"><flowRegion
         id="flowRegion3757"><rect
           id="rect3759"
           width="180"
           height="164"
           x="302"
           y="208.36218" /></flowRegion><flowPara
         id="flowPara3761"
         style="font-size:144px">+</flowPara></flowRoot>    <rect
       style="fill:#000000;fill-opacity:1;stroke:none"
       id="rect3790"
       width="86"
       height="14"
       x="324"
       y="820.36218" />
    <path
       style="fill:#ffffff;stroke:none;stroke-width:1px;stroke-linecap:butt;stroke-linejoin:miter;stroke-opacity:1;fill-opacity:1"
       d="m 29,28.362183 3,16 23,1 -27,31 3,16 15,5 57,3.999997 -9,-28.999997 2,-44 z"
       id="path4765"
       inkscape:connector-curvature="0" />
    <path
       style="fill:#ffffff;stroke:none;stroke-width:1px;stroke-linecap:butt;stroke-linejoin:miter;stroke-opacity:1;fill-opacity:1"
       d="m 112,89.362183 20,11.999997 30,-2.999997 12,-15 -1,-47 -12,-8 -48,0 -12,19 3,40 9,8 z"
       id="path4767"
       inkscape:connector-curvature="0" />
    <path
       style="fill:#ffffff;stroke:none;stroke-width:1px;stroke-linecap:butt;stroke-linejoin:miter;stroke-opacity:1;fill-opacity:1"
       d="m 191,26.362183 -13,12 0,45 20,16.999997 41,0 18,-10.999997 13,9 22,-5 26,3 5,-8 2,-52 -8,-10 -22,-1 -5,14 -14,-11 -21,2 1,11 -23,-13 z"
       id="path4769"
       inkscape:connector-curvature="0" />
    <path
       style="fill:#ffffff;stroke:none;stroke-width:1px;stroke-linecap:butt;stroke-linejoin:miter;stroke-opacity:1;fill-opacity:1"
       d="m 353,26.362183 0,63 16,11.999997 51,-3.999997 5,-10 17,11 16,1 -6,-72 -24,-3 -2,17 -16,-16 z"
       id="path4771"
       inkscape:connector-curvature="0" />
    <g
       transform="translate(6,-16)"
       style="font-size:85px;font-style:normal;font-weight:normal;line-height:125%;letter-spacing:0px;word-spacing:0px;fill:#646464;fill-opacity:1;stroke:none;font-family:Sans"
       id="flowRoot3792">
      <path
         d="m 110.9248,120.23927 0,8.21777 -8.17626,0 0,-8.21777 8.17626,0 m -8.17626,0 0,-8.13477 8.17626,0 0,8.13477 -8.17626,0 m 0,-8.13477 0,-8.34228 8.17626,0 0,8.34228 -8.17626,0 m 0,-24.985347 0,-8.300781 8.17626,0 0,8.300781 -8.17626,0 m 0,-8.300781 0,-8.342285 8.17626,0 0,8.342285 -8.17626,0 m 0,-8.342285 0,-8.342285 8.17626,0 0,8.342285 -8.17626,0 m 0,-8.342285 0,-8.134766 8.17626,0 0,8.134766 -8.17626,0 m -8.300786,-8.134766 0,-8.342285 8.300786,0 0,8.342285 -8.300786,0 m 8.300786,66.240234 0,8.21777 -8.300786,0 0,-8.21777 8.300786,0 m -8.300786,0 0,-8.13477 8.300786,0 0,8.13477 -8.300786,0 m 0,-8.13477 0,-8.34228 8.300786,0 0,8.34228 -8.300786,0 m 0,-8.34228 0,-8.300782 8.300786,0 0,8.300782 -8.300786,0 m 0,-8.300782 0,-8.342285 8.300786,0 0,8.342285 -8.300786,0 m 0,-8.342285 0,-8.300781 8.300786,0 0,8.300781 -8.300786,0 m 0,-8.300781 0,-8.342285 8.300786,0 0,8.342285 -8.300786,0 m 0,-8.342285 0,-8.342285 8.300786,0 0,8.342285 -8.300786,0 m 0,-8.342285 0,-8.134766 8.300786,0 0,8.134766 -8.300786,0 m -8.342285,-8.134766 0,-8.342285 8.342285,0 0,8.342285 -8.342285,0 m 8.342285,66.240234 0,8.21777 -8.342285,0 0,-8.21777 8.342285,0 m -8.342285,0 0,-8.13477 8.342285,0 0,8.13477 -8.342285,0 m 0,-16.47705 0,-8.300782 8.342285,0 0,8.300782 -8.342285,0 m 0,-8.300782 0,-8.342285 8.342285,0 0,8.342285 -8.342285,0 m 0,-8.342285 0,-8.300781 8.342285,0 0,8.300781 -8.342285,0 m 0,-8.300781 0,-8.342285 8.342285,0 0,8.342285 -8.342285,0 m -8.300782,-24.819336 0,-8.342285 8.300782,0 0,8.342285 -8.300782,0 m 8.300782,66.240234 0,8.21777 -8.300782,0 0,-8.21777 8.300782,0 m -8.300782,0 0,-8.13477 8.300782,0 0,8.13477 -8.300782,0 m 0,-16.47705 0,-8.300782 8.300782,0 0,8.300782 -8.300782,0 m 0,-8.300782 0,-8.342285 8.300782,0 0,8.342285 -8.300782,0 m 0,-8.342285 0,-8.300781 8.300782,0 0,8.300781 -8.300782,0 m -8.342285,-33.120117 0,-8.342285 8.342285,0 0,8.342285 -8.342285,0 m 8.342285,66.240234 0,8.21777 -8.342285,0 0,-8.21777 8.342285,0 m -8.342285,0 0,-8.13477 8.342285,0 0,8.13477 -8.342285,0 m 0,-16.47705 0,-8.300782 8.342285,0 0,8.300782 -8.342285,0 m 0,-8.300782 0,-8.342285 8.342285,0 0,8.342285 -8.342285,0 m -8.342285,-41.462402 0,-8.342285 8.342285,0 0,8.342285 -8.342285,0 m 8.342285,66.240234 0,8.21777 -8.342285,0 0,-8.21777 8.342285,0 m -8.342285,0 0,-8.13477 8.342285,0 0,8.13477 -8.342285,0 m 0,-16.47705 0,-8.300782 8.342285,0 0,8.300782 -8.342285,0 m 0,-33.286133 0,-8.342285 8.342285,0 0,8.342285 -8.342285,0 m -8.134765,-16.477051 0,-8.342285 8.134765,0 0,8.342285 -8.134765,0 m 8.134765,66.240234 0,8.21777 -8.134765,0 0,-8.21777 8.134765,0 m -8.134765,0 0,-8.13477 8.134765,0 0,8.13477 -8.134765,0 m 0,-41.420898 0,-8.342285 8.134765,0 0,8.342285 -8.134765,0 m 0,-8.342285 0,-8.342285 8.134765,0 0,8.342285 -8.134765,0 m -8.342286,-16.477051 0,-8.342285 8.342286,0 0,8.342285 -8.342286,0 m 8.342286,66.240234 0,8.21777 -8.342286,0 0,-8.21777 8.342286,0 m -8.342286,0 0,-8.13477 8.342286,0 0,8.13477 -8.342286,0 m 0,-33.120117 0,-8.300781 8.342286,0 0,8.300781 -8.342286,0 m 0,-8.300781 0,-8.342285 8.342286,0 0,8.342285 -8.342286,0 m 0,-8.342285 0,-8.342285 8.342286,0 0,8.342285 -8.342286,0 m -8.300781,-16.477051 0,-8.342285 8.300781,0 0,8.342285 -8.300781,0 m 8.300781,66.240234 0,8.21777 -8.300781,0 0,-8.21777 8.300781,0 m -8.300781,0 0,-8.13477 8.300781,0 0,8.13477 -8.300781,0 m 0,-24.777832 0,-8.342285 8.300781,0 0,8.342285 -8.300781,0 m 0,-8.342285 0,-8.300781 8.300781,0 0,8.300781 -8.300781,0 m 0,-16.643066 0,-8.342285 8.300781,0 0,8.342285 -8.300781,0 M 28,53.999036 l 0,-8.342285 8.342285,0 0,8.342285 -8.342285,0 m 0,66.240234 0,-8.13477 8.342285,0 0,8.13477 -8.342285,0 m 0,-8.13477 0,-8.34228 8.342285,0 0,8.34228 -8.342285,0 m 0,-8.34228 0,-8.300782 8.342285,0 0,8.300782 -8.342285,0 m 0,-8.300782 0,-8.342285 8.342285,0 0,8.342285 -8.342285,0 m 0,-24.985351 0,-8.342285 8.342285,0 0,8.342285 -8.342285,0 m 0,-8.342285 0,-8.134766 8.342285,0 0,8.134766 -8.342285,0"
         style="font-variant:normal;font-stretch:normal;fill:#646464;font-family:Karmatic Arcade;-inkscape-font-specification:Karmatic Arcade"
         id="path4973" />
      <path
         d="m 177.45557,120.23927 0,-8.13477 8.17627,0 0,8.13477 -8.17627,0 m 0,-8.13477 0,-8.34228 8.17627,0 0,8.34228 -8.17627,0 m 0,-8.34228 0,-8.300782 8.17627,0 0,8.300782 -8.17627,0 m 0,-8.300782 0,-8.342285 8.17627,0 0,8.342285 -8.17627,0 m 0,-8.342285 0,-8.300781 8.17627,0 0,8.300781 -8.17627,0 m 0,-8.300781 0,-8.342285 8.17627,0 0,8.342285 -8.17627,0 m 0,-8.342285 0,-8.342285 8.17627,0 0,8.342285 -8.17627,0 m 0,49.763183 0,8.21777 -8.30078,0 0,-8.21777 8.30078,0 m -8.30078,0 0,-8.13477 8.30078,0 0,8.13477 -8.30078,0 m 0,-8.13477 0,-8.34228 8.30078,0 0,8.34228 -8.30078,0 m 0,-8.34228 0,-8.300782 8.30078,0 0,8.300782 -8.30078,0 m 0,-8.300782 0,-8.342285 8.30078,0 0,8.342285 -8.30078,0 m 0,-8.342285 0,-8.300781 8.30078,0 0,8.300781 -8.30078,0 m 0,-8.300781 0,-8.342285 8.30078,0 0,8.342285 -8.30078,0 m 0,-8.342285 0,-8.342285 8.30078,0 0,8.342285 -8.30078,0 m 0,-8.342285 0,-8.134766 8.30078,0 0,8.134766 -8.30078,0 m -8.34229,-8.134766 0,-8.342285 8.34229,0 0,8.342285 -8.34229,0 m 8.34229,66.240234 0,8.21777 -8.34229,0 0,-8.21777 8.34229,0 m -8.34229,0 0,-8.13477 8.34229,0 0,8.13477 -8.34229,0 m 0,-8.13477 0,-8.34228 8.34229,0 0,8.34228 -8.34229,0 m 0,-49.970698 0,-8.134766 8.34229,0 0,8.134766 -8.34229,0 m -8.30078,-8.134766 0,-8.342285 8.30078,0 0,8.342285 -8.30078,0 m 8.30078,66.240234 0,8.21777 -8.30078,0 0,-8.21777 8.30078,0 m -8.30078,0 0,-8.13477 8.30078,0 0,8.13477 -8.30078,0 m -8.34229,-66.240234 0,-8.342285 8.34229,0 0,8.342285 -8.34229,0 m 8.34229,66.240234 0,8.21777 -8.34229,0 0,-8.21777 8.34229,0 m -8.34229,0 0,-8.13477 8.34229,0 0,8.13477 -8.34229,0 m 0,-16.47705 0,-8.300782 8.34229,0 0,8.300782 -8.34229,0 m 0,-8.300782 0,-8.342285 8.34229,0 0,8.342285 -8.34229,0 m 0,-8.342285 0,-8.300781 8.34229,0 0,8.300781 -8.34229,0 m 0,-8.300781 0,-8.342285 8.34229,0 0,8.342285 -8.34229,0 m 0,-8.342285 0,-8.342285 8.34229,0 0,8.342285 -8.34229,0 m -8.34228,-16.477051 0,-8.342285 8.34228,0 0,8.342285 -8.34228,0 m 8.34228,66.240234 0,8.21777 -8.34228,0 0,-8.21777 8.34228,0 m -8.34228,0 0,-8.13477 8.34228,0 0,8.13477 -8.34228,0 m 0,-16.47705 0,-8.300782 8.34228,0 0,8.300782 -8.34228,0 m 0,-8.300782 0,-8.342285 8.34228,0 0,8.342285 -8.34228,0 m 0,-8.342285 0,-8.300781 8.34228,0 0,8.300781 -8.34228,0 m 0,-8.300781 0,-8.342285 8.34228,0 0,8.342285 -8.34228,0 m 0,-8.342285 0,-8.342285 8.34228,0 0,8.342285 -8.34228,0 m -8.13477,-16.477051 0,-8.342285 8.13477,0 0,8.342285 -8.13477,0 m 8.13477,66.240234 0,8.21777 -8.13477,0 0,-8.21777 8.13477,0 m -8.13477,0 0,-8.13477 8.13477,0 0,8.13477 -8.13477,0 m 0,-16.47705 0,-8.300782 8.13477,0 0,8.300782 -8.13477,0 m 0,-8.300782 0,-8.342285 8.13477,0 0,8.342285 -8.13477,0 m 0,-8.342285 0,-8.300781 8.13477,0 0,8.300781 -8.13477,0 m 0,-8.300781 0,-8.342285 8.13477,0 0,8.342285 -8.13477,0 m 0,-8.342285 0,-8.342285 8.13477,0 0,8.342285 -8.13477,0 m -8.34228,-16.477051 0,-8.342285 8.34228,0 0,8.342285 -8.34228,0 m 8.34228,66.240234 0,8.21777 -8.34228,0 0,-8.21777 8.34228,0 m -8.34228,0 0,-8.13477 8.34228,0 0,8.13477 -8.34228,0 m -8.30078,-66.240234 0,-8.342285 8.30078,0 0,8.342285 -8.30078,0 m 0,66.240234 0,-8.13477 8.30078,0 0,8.13477 -8.30078,0 m 0,-8.13477 0,-8.34228 8.30078,0 0,8.34228 -8.30078,0 m 0,-49.970698 0,-8.134766 8.30078,0 0,8.134766 -8.30078,0 m -8.34229,49.970698 0,-8.34228 8.34229,0 0,8.34228 -8.34229,0 m 0,-8.34228 0,-8.300782 8.34229,0 0,8.300782 -8.34229,0 m 0,-8.300782 0,-8.342285 8.34229,0 0,8.342285 -8.34229,0 m 0,-8.342285 0,-8.300781 8.34229,0 0,8.300781 -8.34229,0 m 0,-8.300781 0,-8.342285 8.34229,0 0,8.342285 -8.34229,0 m 0,-8.342285 0,-8.342285 8.34229,0 0,8.342285 -8.34229,0 m 0,-8.342285 0,-8.134766 8.34229,0 0,8.134766 -8.34229,0"
         style="font-variant:normal;font-stretch:normal;fill:#646464;font-family:Karmatic Arcade;-inkscape-font-specification:Karmatic Arcade"
         id="path4975" />
      <path
         d="m 252.1626,120.23927 0,-8.13477 8.17627,0 0,8.13477 -8.17627,0 m 0,-8.13477 0,-8.34228 8.17627,0 0,8.34228 -8.17627,0 m 0,-8.34228 0,-8.300782 8.17627,0 0,8.300782 -8.17627,0 m 0,-8.300782 0,-8.342285 8.17627,0 0,8.342285 -8.17627,0 m 0,-8.342285 0,-8.300781 8.17627,0 0,8.300781 -8.17627,0 m 0,-8.300781 0,-8.342285 8.17627,0 0,8.342285 -8.17627,0 m 0,-8.342285 0,-8.342285 8.17627,0 0,8.342285 -8.17627,0 m 0,49.763183 0,8.21777 -8.30078,0 0,-8.21777 8.30078,0 m -8.30078,0 0,-8.13477 8.30078,0 0,8.13477 -8.30078,0 m 0,-8.13477 0,-8.34228 8.30078,0 0,8.34228 -8.30078,0 m 0,-8.34228 0,-8.300782 8.30078,0 0,8.300782 -8.30078,0 m 0,-8.300782 0,-8.342285 8.30078,0 0,8.342285 -8.30078,0 m 0,-8.342285 0,-8.300781 8.30078,0 0,8.300781 -8.30078,0 m 0,-8.300781 0,-8.342285 8.30078,0 0,8.342285 -8.30078,0 m 0,-8.342285 0,-8.342285 8.30078,0 0,8.342285 -8.30078,0 m 0,-8.342285 0,-8.134766 8.30078,0 0,8.134766 -8.30078,0 m -8.34229,-8.134766 0,-8.342285 8.34229,0 0,8.342285 -8.34229,0 m 8.34229,66.240234 0,8.21777 -8.34229,0 0,-8.21777 8.34229,0 m -8.34229,0 0,-8.13477 8.34229,0 0,8.13477 -8.34229,0 m 0,-8.13477 0,-8.34228 8.34229,0 0,8.34228 -8.34229,0 m 0,-49.970698 0,-8.134766 8.34229,0 0,8.134766 -8.34229,0 m -8.30078,-8.134766 0,-8.342285 8.30078,0 0,8.342285 -8.30078,0 m 8.30078,66.240234 0,8.21777 -8.30078,0 0,-8.21777 8.30078,0 m -8.30078,0 0,-8.13477 8.30078,0 0,8.13477 -8.30078,0 m -8.34229,-66.240234 0,-8.342285 8.34229,0 0,8.342285 -8.34229,0 m 8.34229,66.240234 0,8.21777 -8.34229,0 0,-8.21777 8.34229,0 m -8.34229,0 0,-8.13477 8.34229,0 0,8.13477 -8.34229,0 m 0,-16.47705 0,-8.300782 8.34229,0 0,8.300782 -8.34229,0 m 0,-8.300782 0,-8.342285 8.34229,0 0,8.342285 -8.34229,0 m 0,-8.342285 0,-8.300781 8.34229,0 0,8.300781 -8.34229,0 m 0,-8.300781 0,-8.342285 8.34229,0 0,8.342285 -8.34229,0 m 0,-8.342285 0,-8.342285 8.34229,0 0,8.342285 -8.34229,0 m -8.34228,-16.477051 0,-8.342285 8.34228,0 0,8.342285 -8.34228,0 m 8.34228,66.240234 0,8.21777 -8.34228,0 0,-8.21777 8.34228,0 m -8.34228,0 0,-8.13477 8.34228,0 0,8.13477 -8.34228,0 m 0,-16.47705 0,-8.300782 8.34228,0 0,8.300782 -8.34228,0 m 0,-8.300782 0,-8.342285 8.34228,0 0,8.342285 -8.34228,0 m 0,-8.342285 0,-8.300781 8.34228,0 0,8.300781 -8.34228,0 m 0,-8.300781 0,-8.342285 8.34228,0 0,8.342285 -8.34228,0 m 0,-8.342285 0,-8.342285 8.34228,0 0,8.342285 -8.34228,0 m -8.13477,-16.477051 0,-8.342285 8.13477,0 0,8.342285 -8.13477,0 m 8.13477,66.240234 0,8.21777 -8.13477,0 0,-8.21777 8.13477,0 m -8.13477,0 0,-8.13477 8.13477,0 0,8.13477 -8.13477,0 m 0,-16.47705 0,-8.300782 8.13477,0 0,8.300782 -8.13477,0 m 0,-8.300782 0,-8.342285 8.13477,0 0,8.342285 -8.13477,0 m 0,-8.342285 0,-8.300781 8.13477,0 0,8.300781 -8.13477,0 m 0,-8.300781 0,-8.342285 8.13477,0 0,8.342285 -8.13477,0 m 0,-8.342285 0,-8.342285 8.13477,0 0,8.342285 -8.13477,0 m -8.34228,-16.477051 0,-8.342285 8.34228,0 0,8.342285 -8.34228,0 m 8.34228,66.240234 0,8.21777 -8.34228,0 0,-8.21777 8.34228,0 m -8.34228,0 0,-8.13477 8.34228,0 0,8.13477 -8.34228,0 m -8.30078,-66.240234 0,-8.342285 8.30078,0 0,8.342285 -8.30078,0 m 0,66.240234 0,-8.13477 8.30078,0 0,8.13477 -8.30078,0 m 0,-8.13477 0,-8.34228 8.30078,0 0,8.34228 -8.30078,0 m 0,-49.970698 0,-8.134766 8.30078,0 0,8.134766 -8.30078,0 m -8.34229,49.970698 0,-8.34228 8.34229,0 0,8.34228 -8.34229,0 m 0,-8.34228 0,-8.300782 8.34229,0 0,8.300782 -8.34229,0 m 0,-8.300782 0,-8.342285 8.34229,0 0,8.342285 -8.34229,0 m 0,-8.342285 0,-8.300781 8.34229,0 0,8.300781 -8.34229,0 m 0,-8.300781 0,-8.342285 8.34229,0 0,8.342285 -8.34229,0 m 0,-8.342285 0,-8.342285 8.34229,0 0,8.342285 -8.34229,0 m 0,-8.342285 0,-8.134766 8.34229,0 0,8.134766 -8.34229,0"
         style="font-variant:normal;font-stretch:normal;fill:#646464;font-family:Karmatic Arcade;-inkscape-font-specification:Karmatic Arcade"
         id="path4977" />
      <path
         d="m 335.0459,120.23927 0,8.21777 -8.17627,0 0,-8.21777 8.17627,0 m -8.17627,0 0,-8.13477 8.17627,0 0,8.13477 -8.17627,0 m 0,-8.13477 0,-8.34228 8.17627,0 0,8.34228 -8.17627,0 m 0,-8.34228 0,-8.300782 8.17627,0 0,8.300782 -8.17627,0 m 0,-8.300782 0,-8.342285 8.17627,0 0,8.342285 -8.17627,0 m 0,-8.342285 0,-8.300781 8.17627,0 0,8.300781 -8.17627,0 m 0,-8.300781 0,-8.342285 8.17627,0 0,8.342285 -8.17627,0 m 0,-8.342285 0,-8.342285 8.17627,0 0,8.342285 -8.17627,0 m 0,-8.342285 0,-8.134766 8.17627,0 0,8.134766 -8.17627,0 m -8.30078,-8.134766 0,-8.342285 8.30078,0 0,8.342285 -8.30078,0 m 8.30078,66.240234 0,8.21777 -8.30078,0 0,-8.21777 8.30078,0 m -8.30078,0 0,-8.13477 8.30078,0 0,8.13477 -8.30078,0 m 0,-8.13477 0,-8.34228 8.30078,0 0,8.34228 -8.30078,0 m 0,-8.34228 0,-8.300782 8.30078,0 0,8.300782 -8.30078,0 m 0,-8.300782 0,-8.342285 8.30078,0 0,8.342285 -8.30078,0 m 0,-8.342285 0,-8.300781 8.30078,0 0,8.300781 -8.30078,0 m 0,-8.300781 0,-8.342285 8.30078,0 0,8.342285 -8.30078,0 m 0,-8.342285 0,-8.342285 8.30078,0 0,8.342285 -8.30078,0 m 0,-8.342285 0,-8.134766 8.30078,0 0,8.134766 -8.30078,0 m -8.34229,-8.134766 0,-8.342285 8.34229,0 0,8.342285 -8.34229,0 m 8.34229,66.240234 0,8.21777 -8.34229,0 0,-8.21777 8.34229,0 m -8.34229,0 0,-8.13477 8.34229,0 0,8.13477 -8.34229,0 m -8.30078,-66.240234 0,-8.342285 8.30078,0 0,8.342285 -8.30078,0 m 8.30078,66.240234 0,8.21777 -8.30078,0 0,-8.21777 8.30078,0 m -8.30078,0 0,-8.13477 8.30078,0 0,8.13477 -8.30078,0 m -8.34228,-66.240234 0,-8.342285 8.34228,0 0,8.342285 -8.34228,0 m 0,66.240234 0,-8.13477 8.34228,0 0,8.13477 -8.34228,0 m 0,-8.13477 0,-8.34228 8.34228,0 0,8.34228 -8.34228,0 m 0,-8.34228 0,-8.300782 8.34228,0 0,8.300782 -8.34228,0 m 0,-8.300782 0,-8.342285 8.34228,0 0,8.342285 -8.34228,0 m 0,-8.342285 0,-8.300781 8.34228,0 0,8.300781 -8.34228,0 m 0,-24.985351 0,-8.134766 8.34228,0 0,8.134766 -8.34228,0 m 0,58.105468 0,8.21777 -8.34229,0 0,-8.21777 8.34229,0 m -8.34229,0 0,-8.13477 8.34229,0 0,8.13477 -8.34229,0 m 0,-8.13477 0,-8.34228 8.34229,0 0,8.34228 -8.34229,0 m 0,-8.34228 0,-8.300782 8.34229,0 0,8.300782 -8.34229,0 m 0,-8.300782 0,-8.342285 8.34229,0 0,8.342285 -8.34229,0 m 0,-24.985351 0,-8.342285 8.34229,0 0,8.342285 -8.34229,0 m 0,-8.342285 0,-8.134766 8.34229,0 0,8.134766 -8.34229,0 m -8.13476,-8.134766 0,-8.342285 8.13476,0 0,8.342285 -8.13476,0 m 8.13476,66.240234 0,8.21777 -8.13476,0 0,-8.21777 8.13476,0 m -8.13476,0 0,-8.13477 8.13476,0 0,8.13477 -8.13476,0 m 0,-8.13477 0,-8.34228 8.13476,0 0,8.34228 -8.13476,0 m 0,-8.34228 0,-8.300782 8.13476,0 0,8.300782 -8.13476,0 m 0,-8.300782 0,-8.342285 8.13476,0 0,8.342285 -8.13476,0 m 0,-8.342285 0,-8.300781 8.13476,0 0,8.300781 -8.13476,0 m 0,-24.985351 0,-8.134766 8.13476,0 0,8.134766 -8.13476,0 m -8.34229,-8.134766 0,-8.342285 8.34229,0 0,8.342285 -8.34229,0 m 8.34229,66.240234 0,8.21777 -8.34229,0 0,-8.21777 8.34229,0 m -8.34229,0 0,-8.13477 8.34229,0 0,8.13477 -8.34229,0 m -8.30078,-66.240234 0,-8.342285 8.30078,0 0,8.342285 -8.30078,0 m 8.30078,66.240234 0,8.21777 -8.30078,0 0,-8.21777 8.30078,0 m -8.30078,0 0,-8.13477 8.30078,0 0,8.13477 -8.30078,0 m -8.34229,-66.240234 0,-8.342285 8.34229,0 0,8.342285 -8.34229,0 m 0,66.240234 0,-8.13477 8.34229,0 0,8.13477 -8.34229,0 m 0,-8.13477 0,-8.34228 8.34229,0 0,8.34228 -8.34229,0 m 0,-8.34228 0,-8.300782 8.34229,0 0,8.300782 -8.34229,0 m 0,-8.300782 0,-8.342285 8.34229,0 0,8.342285 -8.34229,0 m 0,-8.342285 0,-8.300781 8.34229,0 0,8.300781 -8.34229,0 m 0,-8.300781 0,-8.342285 8.34229,0 0,8.342285 -8.34229,0 m 0,-8.342285 0,-8.342285 8.34229,0 0,8.342285 -8.34229,0 m 0,-8.342285 0,-8.134766 8.34229,0 0,8.134766 -8.34229,0"
         style="font-variant:normal;font-stretch:normal;fill:#646464;font-family:Karmatic Arcade;-inkscape-font-specification:Karmatic Arcade"
         id="path4979" />
      <path
         d="m 391.86475,120.23927 0,8.21777 -8.34229,0 0,-8.21777 8.34229,0 m -8.34229,0 0,-8.13477 8.34229,0 0,8.13477 -8.34229,0 m 0,-8.13477 0,-8.34228 8.34229,0 0,8.34228 -8.34229,0 m 0,-8.34228 0,-8.300782 8.34229,0 0,8.300782 -8.34229,0 m 0,-8.300782 0,-8.342285 8.34229,0 0,8.342285 -8.34229,0 m 0,-8.342285 0,-8.300781 8.34229,0 0,8.300781 -8.34229,0 m 0,-8.300781 0,-8.342285 8.34229,0 0,8.342285 -8.34229,0 m 0,-8.342285 0,-8.342285 8.34229,0 0,8.342285 -8.34229,0 m 0,-8.342285 0,-8.134766 8.34229,0 0,8.134766 -8.34229,0 m -8.13476,-8.134766 0,-8.342285 8.13476,0 0,8.342285 -8.13476,0 m 8.13476,66.240234 0,8.21777 -8.13476,0 0,-8.21777 8.13476,0 m -8.13476,0 0,-8.13477 8.13476,0 0,8.13477 -8.13476,0 m 0,-8.13477 0,-8.34228 8.13476,0 0,8.34228 -8.13476,0 m 0,-8.34228 0,-8.300782 8.13476,0 0,8.300782 -8.13476,0 m 0,-8.300782 0,-8.342285 8.13476,0 0,8.342285 -8.13476,0 m 0,-8.342285 0,-8.300781 8.13476,0 0,8.300781 -8.13476,0 m 0,-8.300781 0,-8.342285 8.13476,0 0,8.342285 -8.13476,0 m 0,-8.342285 0,-8.342285 8.13476,0 0,8.342285 -8.13476,0 m 0,-8.342285 0,-8.134766 8.13476,0 0,8.134766 -8.13476,0 m -8.34229,-8.134766 0,-8.342285 8.34229,0 0,8.342285 -8.34229,0 m 8.34229,66.240234 0,8.21777 -8.34229,0 0,-8.21777 8.34229,0 m -8.34229,0 0,-8.13477 8.34229,0 0,8.13477 -8.34229,0 m -8.30078,-66.240234 0,-8.342285 8.30078,0 0,8.342285 -8.30078,0 m 8.30078,66.240234 0,8.21777 -8.30078,0 0,-8.21777 8.30078,0 m -8.30078,0 0,-8.13477 8.30078,0 0,8.13477 -8.30078,0 m -8.34229,-66.240234 0,-8.342285 8.34229,0 0,8.342285 -8.34229,0 m 0,66.240234 0,-8.13477 8.34229,0 0,8.13477 -8.34229,0 m 0,-8.13477 0,-8.34228 8.34229,0 0,8.34228 -8.34229,0 m 0,-8.34228 0,-8.300782 8.34229,0 0,8.300782 -8.34229,0 m 0,-8.300782 0,-8.342285 8.34229,0 0,8.342285 -8.34229,0 m 0,-8.342285 0,-8.300781 8.34229,0 0,8.300781 -8.34229,0 m 0,-8.300781 0,-8.342285 8.34229,0 0,8.342285 -8.34229,0 m 0,-8.342285 0,-8.342285 8.34229,0 0,8.342285 -8.34229,0 m 0,-8.342285 0,-8.134766 8.34229,0 0,8.134766 -8.34229,0"
         style="font-variant:normal;font-stretch:normal;fill:#646464;font-family:Karmatic Arcade;-inkscape-font-specification:Karmatic Arcade"
         id="path4981" />
      <path
         d="m 466.53027,120.23927 0,8.21777 -8.17627,0 0,-8.21777 8.17627,0 m -8.17627,0 0,-8.13477 8.17627,0 0,8.13477 -8.17627,0 m 0,-8.13477 0,-8.34228 8.17627,0 0,8.34228 -8.17627,0 m 0,-8.34228 0,-8.300782 8.17627,0 0,8.300782 -8.17627,0 m 0,-8.300782 0,-8.342285 8.17627,0 0,8.342285 -8.17627,0 m 0,-8.342285 0,-8.300781 8.17627,0 0,8.300781 -8.17627,0 m 0,-8.300781 0,-8.342285 8.17627,0 0,8.342285 -8.17627,0 m 0,-8.342285 0,-8.342285 8.17627,0 0,8.342285 -8.17627,0 m 0,-8.342285 0,-8.134766 8.17627,0 0,8.134766 -8.17627,0 m -8.30078,-8.134766 0,-8.342285 8.30078,0 0,8.342285 -8.30078,0 m 8.30078,66.240234 0,8.21777 -8.30078,0 0,-8.21777 8.30078,0 m -8.30078,0 0,-8.13477 8.30078,0 0,8.13477 -8.30078,0 m 0,-8.13477 0,-8.34228 8.30078,0 0,8.34228 -8.30078,0 m 0,-8.34228 0,-8.300782 8.30078,0 0,8.300782 -8.30078,0 m 0,-8.300782 0,-8.342285 8.30078,0 0,8.342285 -8.30078,0 m 0,-8.342285 0,-8.300781 8.30078,0 0,8.300781 -8.30078,0 m 0,-8.300781 0,-8.342285 8.30078,0 0,8.342285 -8.30078,0 m 0,-8.342285 0,-8.342285 8.30078,0 0,8.342285 -8.30078,0 m 0,-8.342285 0,-8.134766 8.30078,0 0,8.134766 -8.30078,0 m -8.34228,-8.134766 0,-8.342285 8.34228,0 0,8.342285 -8.34228,0 m 8.34228,66.240234 0,8.21777 -8.34228,0 0,-8.21777 8.34228,0 m -8.34228,0 0,-8.13477 8.34228,0 0,8.13477 -8.34228,0 m -8.30078,-66.240234 0,-8.342285 8.30078,0 0,8.342285 -8.30078,0 m 8.30078,66.240234 0,8.21777 -8.30078,0 0,-8.21777 8.30078,0 m -8.30078,0 0,-8.13477 8.30078,0 0,8.13477 -8.30078,0 m -8.34229,-66.240234 0,-8.342285 8.34229,0 0,8.342285 -8.34229,0 m 0,66.240234 0,-8.13477 8.34229,0 0,8.13477 -8.34229,0 m 0,-8.13477 0,-8.34228 8.34229,0 0,8.34228 -8.34229,0 m 0,-8.34228 0,-8.300782 8.34229,0 0,8.300782 -8.34229,0 m 0,-24.943848 0,-8.342285 8.34229,0 0,8.342285 -8.34229,0 m 0,-8.342285 0,-8.342285 8.34229,0 0,8.342285 -8.34229,0 m 0,-8.342285 0,-8.134766 8.34229,0 0,8.134766 -8.34229,0 m 0,58.105468 0,8.21777 -8.34228,0 0,-8.21777 8.34228,0 m -8.34228,0 0,-8.13477 8.34228,0 0,8.13477 -8.34228,0 m 0,-8.13477 0,-8.34228 8.34228,0 0,8.34228 -8.34228,0 m 0,-8.34228 0,-8.300782 8.34228,0 0,8.300782 -8.34228,0 m 0,-8.300782 0,-8.342285 8.34228,0 0,8.342285 -8.34228,0 m 0,-24.985351 0,-8.342285 8.34228,0 0,8.342285 -8.34228,0 m 0,-8.342285 0,-8.134766 8.34228,0 0,8.134766 -8.34228,0 m -8.13477,-8.134766 0,-8.342285 8.13477,0 0,8.342285 -8.13477,0 m 8.13477,66.240234 0,8.21777 -8.13477,0 0,-8.21777 8.13477,0 m -8.13477,0 0,-8.13477 8.13477,0 0,8.13477 -8.13477,0 m 0,-8.13477 0,-8.34228 8.13477,0 0,8.34228 -8.13477,0 m 0,-8.34228 0,-8.300782 8.13477,0 0,8.300782 -8.13477,0 m 0,-8.300782 0,-8.342285 8.13477,0 0,8.342285 -8.13477,0 m 0,-8.342285 0,-8.300781 8.13477,0 0,8.300781 -8.13477,0 m 0,-24.985351 0,-8.134766 8.13477,0 0,8.134766 -8.13477,0 m -8.34228,-8.134766 0,-8.342285 8.34228,0 0,8.342285 -8.34228,0 m 8.34228,66.240234 0,8.21777 -8.34228,0 0,-8.21777 8.34228,0 m -8.34228,0 0,-8.13477 8.34228,0 0,8.13477 -8.34228,0 m -8.30079,-66.240234 0,-8.342285 8.30079,0 0,8.342285 -8.30079,0 m 8.30079,66.240234 0,8.21777 -8.30079,0 0,-8.21777 8.30079,0 m -8.30079,0 0,-8.13477 8.30079,0 0,8.13477 -8.30079,0 m -8.34228,-66.240234 0,-8.342285 8.34228,0 0,8.342285 -8.34228,0 m 0,66.240234 0,-8.13477 8.34228,0 0,8.13477 -8.34228,0 m 0,-8.13477 0,-8.34228 8.34228,0 0,8.34228 -8.34228,0 m 0,-8.34228 0,-8.300782 8.34228,0 0,8.300782 -8.34228,0 m 0,-8.300782 0,-8.342285 8.34228,0 0,8.342285 -8.34228,0 m 0,-8.342285 0,-8.300781 8.34228,0 0,8.300781 -8.34228,0 m 0,-8.300781 0,-8.342285 8.34228,0 0,8.342285 -8.34228,0 m 0,-8.342285 0,-8.342285 8.34228,0 0,8.342285 -8.34228,0 m 0,-8.342285 0,-8.134766 8.34228,0 0,8.134766 -8.34228,0"
         style="font-variant:normal;font-stretch:normal;fill:#646464;font-family:Karmatic Arcade;-inkscape-font-specification:Karmatic Arcade"
         id="path4983" />
    </g>
    <path
       style="fill:#ffffff;stroke:none;stroke-width:1px;stroke-linecap:butt;stroke-linejoin:miter;stroke-opacity:1;fill-opacity:1"
       d="m 181,956.36218 5,14 25,3 -30,26 3,22.00002 31,8 51,-9 39,8 27,-14 31,14 43,-8 34,2 38,1 -5,-70.00002 -25,-1 -7,12 -13,-10 -19,0 -6,17 -13,-16 -51,-1 -11,13 -17,-14 -42,2 -19,18 -2,-21 -62,2 z"
       id="path4800"
       inkscape:connector-curvature="0" />
    <path
       style="fill:#ffffff;stroke:none;stroke-width:1px;stroke-linecap:butt;stroke-linejoin:miter;stroke-opacity:1;fill-opacity:1"
       d="m 518,954.36218 -14,14 2,41.00002 23,17 52,-8 30,11 37,-7 5,-53.00002 17,2 3,48.00002 13,9 18,-1 -4,-53.00002 16,-3 -3,-19 -93,3 -2,16 -15,-14 -21,0 -5,13 -19,-14 z"
       id="path4802"
       inkscape:connector-curvature="0" />
    <g
       transform="translate(189.73486,899.30529)"
       style="font-size:85px;font-style:normal;font-weight:normal;line-height:125%;letter-spacing:0px;word-spacing:0px;fill:#646464;fill-opacity:1;stroke:none;font-family:Sans"
       id="flowRoot3792-5">
      <path
         d="m 63.924805,121.23927 0,8.21777 -8.17627,0 0,-8.21777 8.17627,0 m -8.17627,0 0,-8.13477 8.17627,0 0,8.13477 -8.17627,0 m 0,-8.13477 0,-8.34228 8.17627,0 0,8.34228 -8.17627,0 m 0,-24.985347 0,-8.300781 8.17627,0 0,8.300781 -8.17627,0 m 0,-8.300781 0,-8.342285 8.17627,0 0,8.342285 -8.17627,0 m 0,-8.342285 0,-8.342285 8.17627,0 0,8.342285 -8.17627,0 m 0,-8.342285 0,-8.134766 8.17627,0 0,8.134766 -8.17627,0 m -8.300781,-8.134766 0,-8.342285 8.300781,0 0,8.342285 -8.300781,0 m 8.300781,66.240234 0,8.21777 -8.300781,0 0,-8.21777 8.300781,0 m -8.300781,0 0,-8.13477 8.300781,0 0,8.13477 -8.300781,0 m 0,-8.13477 0,-8.34228 8.300781,0 0,8.34228 -8.300781,0 m 0,-8.34228 0,-8.300782 8.300781,0 0,8.300782 -8.300781,0 m 0,-8.300782 0,-8.342285 8.300781,0 0,8.342285 -8.300781,0 m 0,-8.342285 0,-8.300781 8.300781,0 0,8.300781 -8.300781,0 m 0,-8.300781 0,-8.342285 8.300781,0 0,8.342285 -8.300781,0 m 0,-8.342285 0,-8.342285 8.300781,0 0,8.342285 -8.300781,0 m 0,-8.342285 0,-8.134766 8.300781,0 0,8.134766 -8.300781,0 m -8.342285,-8.134766 0,-8.342285 8.342285,0 0,8.342285 -8.342285,0 m 8.342285,66.240234 0,8.21777 -8.342285,0 0,-8.21777 8.342285,0 m -8.342285,0 0,-8.13477 8.342285,0 0,8.13477 -8.342285,0 m 0,-16.47705 0,-8.300782 8.342285,0 0,8.300782 -8.342285,0 m 0,-8.300782 0,-8.342285 8.342285,0 0,8.342285 -8.342285,0 m 0,-8.342285 0,-8.300781 8.342285,0 0,8.300781 -8.342285,0 m 0,-8.300781 0,-8.342285 8.342285,0 0,8.342285 -8.342285,0 m -8.300782,-24.819336 0,-8.342285 8.300782,0 0,8.342285 -8.300782,0 m 8.300782,66.240234 0,8.21777 -8.300782,0 0,-8.21777 8.300782,0 m -8.300782,0 0,-8.13477 8.300782,0 0,8.13477 -8.300782,0 m 0,-16.47705 0,-8.300782 8.300782,0 0,8.300782 -8.300782,0 m 0,-8.300782 0,-8.342285 8.300782,0 0,8.342285 -8.300782,0 m 0,-8.342285 0,-8.300781 8.300782,0 0,8.300781 -8.300782,0 m -8.342285,-33.120117 0,-8.342285 8.342285,0 0,8.342285 -8.342285,0 m 8.342285,66.240234 0,8.21777 -8.342285,0 0,-8.21777 8.342285,0 m -8.342285,0 0,-8.13477 8.342285,0 0,8.13477 -8.342285,0 m 0,-16.47705 0,-8.300782 8.342285,0 0,8.300782 -8.342285,0 m 0,-8.300782 0,-8.342285 8.342285,0 0,8.342285 -8.342285,0 m -8.342285,-41.462402 0,-8.342285 8.342285,0 0,8.342285 -8.342285,0 m 8.342285,66.240234 0,8.21777 -8.342285,0 0,-8.21777 8.342285,0 m -8.342285,0 0,-8.13477 8.342285,0 0,8.13477 -8.342285,0 m 0,-16.47705 0,-8.300782 8.342285,0 0,8.300782 -8.342285,0 m 0,-33.286133 0,-8.342285 8.342285,0 0,8.342285 -8.342285,0 m -8.1347654,-16.477051 0,-8.342285 8.1347654,0 0,8.342285 -8.1347654,0 m 8.1347654,66.240234 0,8.21777 -8.1347654,0 0,-8.21777 8.1347654,0 m -8.1347654,0 0,-8.13477 8.1347654,0 0,8.13477 -8.1347654,0 m 0,-41.420898 0,-8.342285 8.1347654,0 0,8.342285 -8.1347654,0 m 0,-8.342285 0,-8.342285 8.1347654,0 0,8.342285 -8.1347654,0 m -8.3422852,-16.477051 0,-8.342285 8.3422852,0 0,8.342285 -8.3422852,0 m 8.3422852,66.240234 0,8.21777 -8.3422852,0 0,-8.21777 8.3422852,0 m -8.3422852,0 0,-8.13477 8.3422852,0 0,8.13477 -8.3422852,0 m 0,-33.120117 0,-8.300781 8.3422852,0 0,8.300781 -8.3422852,0 m 0,-8.300781 0,-8.342285 8.3422852,0 0,8.342285 -8.3422852,0 m 0,-8.342285 0,-8.342285 8.3422852,0 0,8.342285 -8.3422852,0 m -8.3007814,-16.477051 0,-8.342285 8.3007814,0 0,8.342285 -8.3007814,0 m 8.3007814,66.240234 0,8.21777 -8.3007814,0 0,-8.21777 8.3007814,0 m -8.3007814,0 0,-8.13477 8.3007814,0 0,8.13477 -8.3007814,0 m 0,-24.777832 0,-8.342285 8.3007814,0 0,8.342285 -8.3007814,0 m 0,-8.342285 0,-8.300781 8.3007814,0 0,8.300781 -8.3007814,0 m 0,-16.643066 0,-8.342285 8.3007814,0 0,8.342285 -8.3007814,0 M -19,54.999036 l 0,-8.342285 8.342285,0 0,8.342285 -8.342285,0 m 0,66.240234 0,-8.13477 8.342285,0 0,8.13477 -8.342285,0 m 0,-8.13477 0,-8.34228 8.342285,0 0,8.34228 -8.342285,0 m 0,-8.34228 0,-8.300782 8.342285,0 0,8.300782 -8.342285,0 m 0,-8.300782 0,-8.342285 8.342285,0 0,8.342285 -8.342285,0 m 0,-24.985351 0,-8.342285 8.342285,0 0,8.342285 -8.342285,0 m 0,-8.342285 0,-8.134766 8.342285,0 0,8.134766 -8.342285,0"
         style="font-variant:normal;font-stretch:normal;fill:#646464;font-family:Karmatic Arcade;-inkscape-font-specification:Karmatic Arcade"
         id="path4986" />
      <path
         d="m 130.45557,121.23927 0,-8.13477 8.17627,0 0,8.13477 -8.17627,0 m 0,-8.13477 0,-8.34228 8.17627,0 0,8.34228 -8.17627,0 m 0,-8.34228 0,-8.300782 8.17627,0 0,8.300782 -8.17627,0 m 0,-8.300782 0,-8.342285 8.17627,0 0,8.342285 -8.17627,0 m 0,-8.342285 0,-8.300781 8.17627,0 0,8.300781 -8.17627,0 m 0,-8.300781 0,-8.342285 8.17627,0 0,8.342285 -8.17627,0 m 0,-8.342285 0,-8.342285 8.17627,0 0,8.342285 -8.17627,0 m 0,49.763183 0,8.21777 -8.30078,0 0,-8.21777 8.30078,0 m -8.30078,0 0,-8.13477 8.30078,0 0,8.13477 -8.30078,0 m 0,-8.13477 0,-8.34228 8.30078,0 0,8.34228 -8.30078,0 m 0,-8.34228 0,-8.300782 8.30078,0 0,8.300782 -8.30078,0 m 0,-8.300782 0,-8.342285 8.30078,0 0,8.342285 -8.30078,0 m 0,-8.342285 0,-8.300781 8.30078,0 0,8.300781 -8.30078,0 m 0,-8.300781 0,-8.342285 8.30078,0 0,8.342285 -8.30078,0 m 0,-8.342285 0,-8.342285 8.30078,0 0,8.342285 -8.30078,0 m 0,-8.342285 0,-8.134766 8.30078,0 0,8.134766 -8.30078,0 m -8.34229,-8.134766 0,-8.342285 8.34229,0 0,8.342285 -8.34229,0 m 8.34229,66.240234 0,8.21777 -8.34229,0 0,-8.21777 8.34229,0 m -8.34229,0 0,-8.13477 8.34229,0 0,8.13477 -8.34229,0 m 0,-8.13477 0,-8.34228 8.34229,0 0,8.34228 -8.34229,0 m 0,-49.970698 0,-8.134766 8.34229,0 0,8.134766 -8.34229,0 m -8.30078,-8.134766 0,-8.342285 8.30078,0 0,8.342285 -8.30078,0 m 8.30078,66.240234 0,8.21777 -8.30078,0 0,-8.21777 8.30078,0 m -8.30078,0 0,-8.13477 8.30078,0 0,8.13477 -8.30078,0 m -8.342286,-66.240234 0,-8.342285 8.342286,0 0,8.342285 -8.342286,0 m 8.342286,66.240234 0,8.21777 -8.342286,0 0,-8.21777 8.342286,0 m -8.342286,0 0,-8.13477 8.342286,0 0,8.13477 -8.342286,0 m 0,-16.47705 0,-8.300782 8.342286,0 0,8.300782 -8.342286,0 m 0,-8.300782 0,-8.342285 8.342286,0 0,8.342285 -8.342286,0 m 0,-8.342285 0,-8.300781 8.342286,0 0,8.300781 -8.342286,0 m 0,-8.300781 0,-8.342285 8.342286,0 0,8.342285 -8.342286,0 m 0,-8.342285 0,-8.342285 8.342286,0 0,8.342285 -8.342286,0 m -8.342286,-16.477051 0,-8.342285 8.342286,0 0,8.342285 -8.342286,0 m 8.342286,66.240234 0,8.21777 -8.342286,0 0,-8.21777 8.342286,0 m -8.342286,0 0,-8.13477 8.342286,0 0,8.13477 -8.342286,0 m 0,-16.47705 0,-8.300782 8.342286,0 0,8.300782 -8.342286,0 m 0,-8.300782 0,-8.342285 8.342286,0 0,8.342285 -8.342286,0 m 0,-8.342285 0,-8.300781 8.342286,0 0,8.300781 -8.342286,0 m 0,-8.300781 0,-8.342285 8.342286,0 0,8.342285 -8.342286,0 m 0,-8.342285 0,-8.342285 8.342286,0 0,8.342285 -8.342286,0 m -8.134765,-16.477051 0,-8.342285 8.134765,0 0,8.342285 -8.134765,0 m 8.134765,66.240234 0,8.21777 -8.134765,0 0,-8.21777 8.134765,0 m -8.134765,0 0,-8.13477 8.134765,0 0,8.13477 -8.134765,0 m 0,-16.47705 0,-8.300782 8.134765,0 0,8.300782 -8.134765,0 m 0,-8.300782 0,-8.342285 8.134765,0 0,8.342285 -8.134765,0 m 0,-8.342285 0,-8.300781 8.134765,0 0,8.300781 -8.134765,0 m 0,-8.300781 0,-8.342285 8.134765,0 0,8.342285 -8.134765,0 m 0,-8.342285 0,-8.342285 8.134765,0 0,8.342285 -8.134765,0 m -8.342285,-16.477051 0,-8.342285 8.342285,0 0,8.342285 -8.342285,0 m 8.342285,66.240234 0,8.21777 -8.342285,0 0,-8.21777 8.342285,0 m -8.342285,0 0,-8.13477 8.342285,0 0,8.13477 -8.342285,0 m -8.300782,-66.240234 0,-8.342285 8.300782,0 0,8.342285 -8.300782,0 m 0,66.240234 0,-8.13477 8.300782,0 0,8.13477 -8.300782,0 m 0,-8.13477 0,-8.34228 8.300782,0 0,8.34228 -8.300782,0 m 0,-49.970698 0,-8.134766 8.300782,0 0,8.134766 -8.300782,0 m -8.342285,49.970698 0,-8.34228 8.342285,0 0,8.34228 -8.342285,0 m 0,-8.34228 0,-8.300782 8.342285,0 0,8.300782 -8.342285,0 m 0,-8.300782 0,-8.342285 8.342285,0 0,8.342285 -8.342285,0 m 0,-8.342285 0,-8.300781 8.342285,0 0,8.300781 -8.342285,0 m 0,-8.300781 0,-8.342285 8.342285,0 0,8.342285 -8.342285,0 m 0,-8.342285 0,-8.342285 8.342285,0 0,8.342285 -8.342285,0 m 0,-8.342285 0,-8.134766 8.342285,0 0,8.134766 -8.342285,0"
         style="font-variant:normal;font-stretch:normal;fill:#646464;font-family:Karmatic Arcade;-inkscape-font-specification:Karmatic Arcade"
         id="path4988" />
      <path
         d="m 205.1626,121.23927 0,-8.13477 8.17627,0 0,8.13477 -8.17627,0 m 0,-8.13477 0,-8.34228 8.17627,0 0,8.34228 -8.17627,0 m 0,-8.34228 0,-8.300782 8.17627,0 0,8.300782 -8.17627,0 m 0,-8.300782 0,-8.342285 8.17627,0 0,8.342285 -8.17627,0 m 0,-8.342285 0,-8.300781 8.17627,0 0,8.300781 -8.17627,0 m 0,-8.300781 0,-8.342285 8.17627,0 0,8.342285 -8.17627,0 m 0,-8.342285 0,-8.342285 8.17627,0 0,8.342285 -8.17627,0 m 0,49.763183 0,8.21777 -8.30078,0 0,-8.21777 8.30078,0 m -8.30078,0 0,-8.13477 8.30078,0 0,8.13477 -8.30078,0 m 0,-8.13477 0,-8.34228 8.30078,0 0,8.34228 -8.30078,0 m 0,-8.34228 0,-8.300782 8.30078,0 0,8.300782 -8.30078,0 m 0,-8.300782 0,-8.342285 8.30078,0 0,8.342285 -8.30078,0 m 0,-8.342285 0,-8.300781 8.30078,0 0,8.300781 -8.30078,0 m 0,-8.300781 0,-8.342285 8.30078,0 0,8.342285 -8.30078,0 m 0,-8.342285 0,-8.342285 8.30078,0 0,8.342285 -8.30078,0 m 0,-8.342285 0,-8.134766 8.30078,0 0,8.134766 -8.30078,0 m -8.34229,-8.134766 0,-8.342285 8.34229,0 0,8.342285 -8.34229,0 m 8.34229,66.240234 0,8.21777 -8.34229,0 0,-8.21777 8.34229,0 m -8.34229,0 0,-8.13477 8.34229,0 0,8.13477 -8.34229,0 m 0,-8.13477 0,-8.34228 8.34229,0 0,8.34228 -8.34229,0 m 0,-49.970698 0,-8.134766 8.34229,0 0,8.134766 -8.34229,0 m -8.30078,-8.134766 0,-8.342285 8.30078,0 0,8.342285 -8.30078,0 m 8.30078,66.240234 0,8.21777 -8.30078,0 0,-8.21777 8.30078,0 m -8.30078,0 0,-8.13477 8.30078,0 0,8.13477 -8.30078,0 m -8.34229,-66.240234 0,-8.342285 8.34229,0 0,8.342285 -8.34229,0 m 8.34229,66.240234 0,8.21777 -8.34229,0 0,-8.21777 8.34229,0 m -8.34229,0 0,-8.13477 8.34229,0 0,8.13477 -8.34229,0 m 0,-16.47705 0,-8.300782 8.34229,0 0,8.300782 -8.34229,0 m 0,-8.300782 0,-8.342285 8.34229,0 0,8.342285 -8.34229,0 m 0,-8.342285 0,-8.300781 8.34229,0 0,8.300781 -8.34229,0 m 0,-8.300781 0,-8.342285 8.34229,0 0,8.342285 -8.34229,0 m 0,-8.342285 0,-8.342285 8.34229,0 0,8.342285 -8.34229,0 m -8.34228,-16.477051 0,-8.342285 8.34228,0 0,8.342285 -8.34228,0 m 8.34228,66.240234 0,8.21777 -8.34228,0 0,-8.21777 8.34228,0 m -8.34228,0 0,-8.13477 8.34228,0 0,8.13477 -8.34228,0 m 0,-16.47705 0,-8.300782 8.34228,0 0,8.300782 -8.34228,0 m 0,-8.300782 0,-8.342285 8.34228,0 0,8.342285 -8.34228,0 m 0,-8.342285 0,-8.300781 8.34228,0 0,8.300781 -8.34228,0 m 0,-8.300781 0,-8.342285 8.34228,0 0,8.342285 -8.34228,0 m 0,-8.342285 0,-8.342285 8.34228,0 0,8.342285 -8.34228,0 m -8.13477,-16.477051 0,-8.342285 8.13477,0 0,8.342285 -8.13477,0 m 8.13477,66.240234 0,8.21777 -8.13477,0 0,-8.21777 8.13477,0 m -8.13477,0 0,-8.13477 8.13477,0 0,8.13477 -8.13477,0 m 0,-16.47705 0,-8.300782 8.13477,0 0,8.300782 -8.13477,0 m 0,-8.300782 0,-8.342285 8.13477,0 0,8.342285 -8.13477,0 m 0,-8.342285 0,-8.300781 8.13477,0 0,8.300781 -8.13477,0 m 0,-8.300781 0,-8.342285 8.13477,0 0,8.342285 -8.13477,0 m 0,-8.342285 0,-8.342285 8.13477,0 0,8.342285 -8.13477,0 m -8.34228,-16.477051 0,-8.342285 8.34228,0 0,8.342285 -8.34228,0 m 8.34228,66.240234 0,8.21777 -8.34228,0 0,-8.21777 8.34228,0 m -8.34228,0 0,-8.13477 8.34228,0 0,8.13477 -8.34228,0 m -8.30078,-66.240234 0,-8.342285 8.30078,0 0,8.342285 -8.30078,0 m 0,66.240234 0,-8.13477 8.30078,0 0,8.13477 -8.30078,0 m 0,-8.13477 0,-8.34228 8.30078,0 0,8.34228 -8.30078,0 m 0,-49.970698 0,-8.134766 8.30078,0 0,8.134766 -8.30078,0 m -8.34229,49.970698 0,-8.34228 8.34229,0 0,8.34228 -8.34229,0 m 0,-8.34228 0,-8.300782 8.34229,0 0,8.300782 -8.34229,0 m 0,-8.300782 0,-8.342285 8.34229,0 0,8.342285 -8.34229,0 m 0,-8.342285 0,-8.300781 8.34229,0 0,8.300781 -8.34229,0 m 0,-8.300781 0,-8.342285 8.34229,0 0,8.342285 -8.34229,0 m 0,-8.342285 0,-8.342285 8.34229,0 0,8.342285 -8.34229,0 m 0,-8.342285 0,-8.134766 8.34229,0 0,8.134766 -8.34229,0"
         style="font-variant:normal;font-stretch:normal;fill:#646464;font-family:Karmatic Arcade;-inkscape-font-specification:Karmatic Arcade"
         id="path4990" />
      <path
         d="m 288.0459,121.23927 0,8.21777 -8.17627,0 0,-8.21777 8.17627,0 m -8.17627,0 0,-8.13477 8.17627,0 0,8.13477 -8.17627,0 m 0,-8.13477 0,-8.34228 8.17627,0 0,8.34228 -8.17627,0 m 0,-8.34228 0,-8.300782 8.17627,0 0,8.300782 -8.17627,0 m 0,-8.300782 0,-8.342285 8.17627,0 0,8.342285 -8.17627,0 m 0,-8.342285 0,-8.300781 8.17627,0 0,8.300781 -8.17627,0 m 0,-8.300781 0,-8.342285 8.17627,0 0,8.342285 -8.17627,0 m 0,-8.342285 0,-8.342285 8.17627,0 0,8.342285 -8.17627,0 m 0,-8.342285 0,-8.134766 8.17627,0 0,8.134766 -8.17627,0 m -8.30078,-8.134766 0,-8.342285 8.30078,0 0,8.342285 -8.30078,0 m 8.30078,66.240234 0,8.21777 -8.30078,0 0,-8.21777 8.30078,0 m -8.30078,0 0,-8.13477 8.30078,0 0,8.13477 -8.30078,0 m 0,-8.13477 0,-8.34228 8.30078,0 0,8.34228 -8.30078,0 m 0,-8.34228 0,-8.300782 8.30078,0 0,8.300782 -8.30078,0 m 0,-8.300782 0,-8.342285 8.30078,0 0,8.342285 -8.30078,0 m 0,-8.342285 0,-8.300781 8.30078,0 0,8.300781 -8.30078,0 m 0,-8.300781 0,-8.342285 8.30078,0 0,8.342285 -8.30078,0 m 0,-8.342285 0,-8.342285 8.30078,0 0,8.342285 -8.30078,0 m 0,-8.342285 0,-8.134766 8.30078,0 0,8.134766 -8.30078,0 m -8.34229,-8.134766 0,-8.342285 8.34229,0 0,8.342285 -8.34229,0 m 8.34229,66.240234 0,8.21777 -8.34229,0 0,-8.21777 8.34229,0 m -8.34229,0 0,-8.13477 8.34229,0 0,8.13477 -8.34229,0 m -8.30078,-66.240234 0,-8.342285 8.30078,0 0,8.342285 -8.30078,0 m 8.30078,66.240234 0,8.21777 -8.30078,0 0,-8.21777 8.30078,0 m -8.30078,0 0,-8.13477 8.30078,0 0,8.13477 -8.30078,0 m -8.34228,-66.240234 0,-8.342285 8.34228,0 0,8.342285 -8.34228,0 m 0,66.240234 0,-8.13477 8.34228,0 0,8.13477 -8.34228,0 m 0,-8.13477 0,-8.34228 8.34228,0 0,8.34228 -8.34228,0 m 0,-8.34228 0,-8.300782 8.34228,0 0,8.300782 -8.34228,0 m 0,-8.300782 0,-8.342285 8.34228,0 0,8.342285 -8.34228,0 m 0,-8.342285 0,-8.300781 8.34228,0 0,8.300781 -8.34228,0 m 0,-24.985351 0,-8.134766 8.34228,0 0,8.134766 -8.34228,0 m 0,58.105468 0,8.21777 -8.34229,0 0,-8.21777 8.34229,0 m -8.34229,0 0,-8.13477 8.34229,0 0,8.13477 -8.34229,0 m 0,-8.13477 0,-8.34228 8.34229,0 0,8.34228 -8.34229,0 m 0,-8.34228 0,-8.300782 8.34229,0 0,8.300782 -8.34229,0 m 0,-8.300782 0,-8.342285 8.34229,0 0,8.342285 -8.34229,0 m 0,-24.985351 0,-8.342285 8.34229,0 0,8.342285 -8.34229,0 m 0,-8.342285 0,-8.134766 8.34229,0 0,8.134766 -8.34229,0 m -8.13476,-8.134766 0,-8.342285 8.13476,0 0,8.342285 -8.13476,0 m 8.13476,66.240234 0,8.21777 -8.13476,0 0,-8.21777 8.13476,0 m -8.13476,0 0,-8.13477 8.13476,0 0,8.13477 -8.13476,0 m 0,-8.13477 0,-8.34228 8.13476,0 0,8.34228 -8.13476,0 m 0,-8.34228 0,-8.300782 8.13476,0 0,8.300782 -8.13476,0 m 0,-8.300782 0,-8.342285 8.13476,0 0,8.342285 -8.13476,0 m 0,-8.342285 0,-8.300781 8.13476,0 0,8.300781 -8.13476,0 m 0,-24.985351 0,-8.134766 8.13476,0 0,8.134766 -8.13476,0 m -8.34229,-8.134766 0,-8.342285 8.34229,0 0,8.342285 -8.34229,0 m 8.34229,66.240234 0,8.21777 -8.34229,0 0,-8.21777 8.34229,0 m -8.34229,0 0,-8.13477 8.34229,0 0,8.13477 -8.34229,0 m -8.30078,-66.240234 0,-8.342285 8.30078,0 0,8.342285 -8.30078,0 m 8.30078,66.240234 0,8.21777 -8.30078,0 0,-8.21777 8.30078,0 m -8.30078,0 0,-8.13477 8.30078,0 0,8.13477 -8.30078,0 m -8.34229,-66.240234 0,-8.342285 8.34229,0 0,8.342285 -8.34229,0 m 0,66.240234 0,-8.13477 8.34229,0 0,8.13477 -8.34229,0 m 0,-8.13477 0,-8.34228 8.34229,0 0,8.34228 -8.34229,0 m 0,-8.34228 0,-8.300782 8.34229,0 0,8.300782 -8.34229,0 m 0,-8.300782 0,-8.342285 8.34229,0 0,8.342285 -8.34229,0 m 0,-8.342285 0,-8.300781 8.34229,0 0,8.300781 -8.34229,0 m 0,-8.300781 0,-8.342285 8.34229,0 0,8.342285 -8.34229,0 m 0,-8.342285 0,-8.342285 8.34229,0 0,8.342285 -8.34229,0 m 0,-8.342285 0,-8.134766 8.34229,0 0,8.134766 -8.34229,0"
         style="font-variant:normal;font-stretch:normal;fill:#646464;font-family:Karmatic Arcade;-inkscape-font-specification:Karmatic Arcade"
         id="path4992" />
      <path
         d="m 378.15088,121.23927 0,-8.13477 8.17627,0 0,8.13477 -8.17627,0 m 0,-8.13477 0,-8.34228 8.17627,0 0,8.34228 -8.17627,0 m 0,-8.34228 0,-8.300782 8.17627,0 0,8.300782 -8.17627,0 m 0,-8.300782 0,-8.342285 8.17627,0 0,8.342285 -8.17627,0 m 0,-8.342285 0,-8.300781 8.17627,0 0,8.300781 -8.17627,0 m 0,-8.300781 0,-8.342285 8.17627,0 0,8.342285 -8.17627,0 m 0,-8.342285 0,-8.342285 8.17627,0 0,8.342285 -8.17627,0 m 0,49.763183 0,8.21777 -8.30078,0 0,-8.21777 8.30078,0 m -8.30078,0 0,-8.13477 8.30078,0 0,8.13477 -8.30078,0 m 0,-8.13477 0,-8.34228 8.30078,0 0,8.34228 -8.30078,0 m 0,-8.34228 0,-8.300782 8.30078,0 0,8.300782 -8.30078,0 m 0,-8.300782 0,-8.342285 8.30078,0 0,8.342285 -8.30078,0 m 0,-8.342285 0,-8.300781 8.30078,0 0,8.300781 -8.30078,0 m 0,-8.300781 0,-8.342285 8.30078,0 0,8.342285 -8.30078,0 m 0,-8.342285 0,-8.342285 8.30078,0 0,8.342285 -8.30078,0 m 0,-8.342285 0,-8.134766 8.30078,0 0,8.134766 -8.30078,0 m -8.34229,-8.134766 0,-8.342285 8.34229,0 0,8.342285 -8.34229,0 m 8.34229,66.240234 0,8.21777 -8.34229,0 0,-8.21777 8.34229,0 m -8.34229,0 0,-8.13477 8.34229,0 0,8.13477 -8.34229,0 m 0,-8.13477 0,-8.34228 8.34229,0 0,8.34228 -8.34229,0 m 0,-49.970698 0,-8.134766 8.34229,0 0,8.134766 -8.34229,0 m -8.30078,-8.134766 0,-8.342285 8.30078,0 0,8.342285 -8.30078,0 m 8.30078,66.240234 0,8.21777 -8.30078,0 0,-8.21777 8.30078,0 m -8.30078,0 0,-8.13477 8.30078,0 0,8.13477 -8.30078,0 m -8.34228,-66.240234 0,-8.342285 8.34228,0 0,8.342285 -8.34228,0 m 8.34228,66.240234 0,8.21777 -8.34228,0 0,-8.21777 8.34228,0 m -8.34228,0 0,-8.13477 8.34228,0 0,8.13477 -8.34228,0 m 0,-16.47705 0,-8.300782 8.34228,0 0,8.300782 -8.34228,0 m 0,-8.300782 0,-8.342285 8.34228,0 0,8.342285 -8.34228,0 m 0,-8.342285 0,-8.300781 8.34228,0 0,8.300781 -8.34228,0 m 0,-8.300781 0,-8.342285 8.34228,0 0,8.342285 -8.34228,0 m 0,-8.342285 0,-8.342285 8.34228,0 0,8.342285 -8.34228,0 m -8.34229,-16.477051 0,-8.342285 8.34229,0 0,8.342285 -8.34229,0 m 8.34229,66.240234 0,8.21777 -8.34229,0 0,-8.21777 8.34229,0 m -8.34229,0 0,-8.13477 8.34229,0 0,8.13477 -8.34229,0 m 0,-16.47705 0,-8.300782 8.34229,0 0,8.300782 -8.34229,0 m 0,-8.300782 0,-8.342285 8.34229,0 0,8.342285 -8.34229,0 m 0,-8.342285 0,-8.300781 8.34229,0 0,8.300781 -8.34229,0 m 0,-8.300781 0,-8.342285 8.34229,0 0,8.342285 -8.34229,0 m 0,-8.342285 0,-8.342285 8.34229,0 0,8.342285 -8.34229,0 m -8.13476,-16.477051 0,-8.342285 8.13476,0 0,8.342285 -8.13476,0 m 8.13476,66.240234 0,8.21777 -8.13476,0 0,-8.21777 8.13476,0 m -8.13476,0 0,-8.13477 8.13476,0 0,8.13477 -8.13476,0 m 0,-16.47705 0,-8.300782 8.13476,0 0,8.300782 -8.13476,0 m 0,-8.300782 0,-8.342285 8.13476,0 0,8.342285 -8.13476,0 m 0,-8.342285 0,-8.300781 8.13476,0 0,8.300781 -8.13476,0 m 0,-8.300781 0,-8.342285 8.13476,0 0,8.342285 -8.13476,0 m 0,-8.342285 0,-8.342285 8.13476,0 0,8.342285 -8.13476,0 m -8.34229,-16.477051 0,-8.342285 8.34229,0 0,8.342285 -8.34229,0 m 8.34229,66.240234 0,8.21777 -8.34229,0 0,-8.21777 8.34229,0 m -8.34229,0 0,-8.13477 8.34229,0 0,8.13477 -8.34229,0 m -8.30078,-66.240234 0,-8.342285 8.30078,0 0,8.342285 -8.30078,0 m 0,66.240234 0,-8.13477 8.30078,0 0,8.13477 -8.30078,0 m 0,-8.13477 0,-8.34228 8.30078,0 0,8.34228 -8.30078,0 m 0,-49.970698 0,-8.134766 8.30078,0 0,8.134766 -8.30078,0 m -8.34229,49.970698 0,-8.34228 8.34229,0 0,8.34228 -8.34229,0 m 0,-8.34228 0,-8.300782 8.34229,0 0,8.300782 -8.34229,0 m 0,-8.300782 0,-8.342285 8.34229,0 0,8.342285 -8.34229,0 m 0,-8.342285 0,-8.300781 8.34229,0 0,8.300781 -8.34229,0 m 0,-8.300781 0,-8.342285 8.34229,0 0,8.342285 -8.34229,0 m 0,-8.342285 0,-8.342285 8.34229,0 0,8.342285 -8.34229,0 m 0,-8.342285 0,-8.134766 8.34229,0 0,8.134766 -8.34229,0"
         style="font-variant:normal;font-stretch:normal;fill:#646464;font-family:Karmatic Arcade;-inkscape-font-specification:Karmatic Arcade"
         id="path4994" />
      <path
         d="m 452.85791,121.23927 0,-8.13477 8.17627,0 0,8.13477 -8.17627,0 m 0,-8.13477 0,-8.34228 8.17627,0 0,8.34228 -8.17627,0 m 0,-8.34228 0,-8.300782 8.17627,0 0,8.300782 -8.17627,0 m 0,-8.300782 0,-8.342285 8.17627,0 0,8.342285 -8.17627,0 m 0,-8.342285 0,-8.300781 8.17627,0 0,8.300781 -8.17627,0 m 0,-8.300781 0,-8.342285 8.17627,0 0,8.342285 -8.17627,0 m 0,-8.342285 0,-8.342285 8.17627,0 0,8.342285 -8.17627,0 m 0,-8.342285 0,-8.134766 8.17627,0 0,8.134766 -8.17627,0 m -8.30078,-8.134766 0,-8.342285 8.30078,0 0,8.342285 -8.30078,0 m 8.30078,66.240234 0,8.21777 -8.30078,0 0,-8.21777 8.30078,0 m -8.30078,0 0,-8.13477 8.30078,0 0,8.13477 -8.30078,0 m 0,-8.13477 0,-8.34228 8.30078,0 0,8.34228 -8.30078,0 m 0,-8.34228 0,-8.300782 8.30078,0 0,8.300782 -8.30078,0 m 0,-8.300782 0,-8.342285 8.30078,0 0,8.342285 -8.30078,0 m 0,-8.342285 0,-8.300781 8.30078,0 0,8.300781 -8.30078,0 m 0,-8.300781 0,-8.342285 8.30078,0 0,8.342285 -8.30078,0 m 0,-8.342285 0,-8.342285 8.30078,0 0,8.342285 -8.30078,0 m 0,-8.342285 0,-8.134766 8.30078,0 0,8.134766 -8.30078,0 m -8.34229,-8.134766 0,-8.342285 8.34229,0 0,8.342285 -8.34229,0 m 8.34229,66.240234 0,8.21777 -8.34229,0 0,-8.21777 8.34229,0 m -8.34229,0 0,-8.13477 8.34229,0 0,8.13477 -8.34229,0 m 0,-8.13477 0,-8.34228 8.34229,0 0,8.34228 -8.34229,0 m -8.30078,-58.105464 0,-8.342285 8.30078,0 0,8.342285 -8.30078,0 m 8.30078,66.240234 0,8.21777 -8.30078,0 0,-8.21777 8.30078,0 m -8.30078,0 0,-8.13477 8.30078,0 0,8.13477 -8.30078,0 m -8.34228,-66.240234 0,-8.342285 8.34228,0 0,8.342285 -8.34228,0 m 8.34228,66.240234 0,8.21777 -8.34228,0 0,-8.21777 8.34228,0 m -8.34228,0 0,-8.13477 8.34228,0 0,8.13477 -8.34228,0 m 0,-16.47705 0,-8.300782 8.34228,0 0,8.300782 -8.34228,0 m 0,-8.300782 0,-8.342285 8.34228,0 0,8.342285 -8.34228,0 m 0,-8.342285 0,-8.300781 8.34228,0 0,8.300781 -8.34228,0 m 0,-8.300781 0,-8.342285 8.34228,0 0,8.342285 -8.34228,0 m 0,-8.342285 0,-8.342285 8.34228,0 0,8.342285 -8.34228,0 m 0,-8.342285 0,-8.134766 8.34228,0 0,8.134766 -8.34228,0 m 0,58.105468 0,8.21777 -8.34229,0 0,-8.21777 8.34229,0 m -8.34229,0 0,-8.13477 8.34229,0 0,8.13477 -8.34229,0 m 0,-16.47705 0,-8.300782 8.34229,0 0,8.300782 -8.34229,0 m 0,-8.300782 0,-8.342285 8.34229,0 0,8.342285 -8.34229,0 m 0,-8.342285 0,-8.300781 8.34229,0 0,8.300781 -8.34229,0 m 0,-8.300781 0,-8.342285 8.34229,0 0,8.342285 -8.34229,0 m 0,-8.342285 0,-8.342285 8.34229,0 0,8.342285 -8.34229,0 m 0,-8.342285 0,-8.134766 8.34229,0 0,8.134766 -8.34229,0 m -8.13476,-8.134766 0,-8.342285 8.13476,0 0,8.342285 -8.13476,0 m 8.13476,66.240234 0,8.21777 -8.13476,0 0,-8.21777 8.13476,0 m -8.13476,0 0,-8.13477 8.13476,0 0,8.13477 -8.13476,0 m 0,-16.47705 0,-8.300782 8.13476,0 0,8.300782 -8.13476,0 m 0,-8.300782 0,-8.342285 8.13476,0 0,8.342285 -8.13476,0 m 0,-8.342285 0,-8.300781 8.13476,0 0,8.300781 -8.13476,0 m 0,-8.300781 0,-8.342285 8.13476,0 0,8.342285 -8.13476,0 m 0,-8.342285 0,-8.342285 8.13476,0 0,8.342285 -8.13476,0 m 0,-8.342285 0,-8.134766 8.13476,0 0,8.134766 -8.13476,0 m -8.34229,-8.134766 0,-8.342285 8.34229,0 0,8.342285 -8.34229,0 m 8.34229,66.240234 0,8.21777 -8.34229,0 0,-8.21777 8.34229,0 m -8.34229,0 0,-8.13477 8.34229,0 0,8.13477 -8.34229,0 m -8.30078,-66.240234 0,-8.342285 8.30078,0 0,8.342285 -8.30078,0 m 0,66.240234 0,-8.13477 8.30078,0 0,8.13477 -8.30078,0 m 0,-8.13477 0,-8.34228 8.30078,0 0,8.34228 -8.30078,0 m -8.34229,-58.105464 0,-8.342285 8.34229,0 0,8.342285 -8.34229,0 m 0,58.105464 0,-8.34228 8.34229,0 0,8.34228 -8.34229,0 m 0,-8.34228 0,-8.300782 8.34229,0 0,8.300782 -8.34229,0 m 0,-8.300782 0,-8.342285 8.34229,0 0,8.342285 -8.34229,0 m 0,-8.342285 0,-8.300781 8.34229,0 0,8.300781 -8.34229,0 m 0,-8.300781 0,-8.342285 8.34229,0 0,8.342285 -8.34229,0 m 0,-8.342285 0,-8.342285 8.34229,0 0,8.342285 -8.34229,0 m 0,-8.342285 0,-8.134766 8.34229,0 0,8.134766 -8.34229,0"
         style="font-variant:normal;font-stretch:normal;fill:#646464;font-family:Karmatic Arcade;-inkscape-font-specification:Karmatic Arcade"
         id="path4996" />
      <path
         d="m 519.26416,79.818372 0,-8.342285 8.30078,0 0,8.342285 -8.30078,0 m 0,-8.342285 0,-8.342285 8.30078,0 0,8.342285 -8.30078,0 m 0,-8.342285 0,-8.134766 8.30078,0 0,8.134766 -8.30078,0 m -8.34229,-8.134766 0,-8.342285 8.34229,0 0,8.342285 -8.34229,0 m 0,24.819336 0,-8.342285 8.34229,0 0,8.342285 -8.34229,0 m 0,-8.342285 0,-8.342285 8.34229,0 0,8.342285 -8.34229,0 m 0,-8.342285 0,-8.134766 8.34229,0 0,8.134766 -8.34229,0 m -8.30078,-8.134766 0,-8.342285 8.30078,0 0,8.342285 -8.30078,0 m 8.30078,66.240234 0,8.21777 -8.30078,0 0,-8.21777 8.30078,0 m -8.30078,0 0,-8.13477 8.30078,0 0,8.13477 -8.30078,0 m 0,-8.13477 0,-8.34228 8.30078,0 0,8.34228 -8.30078,0 m 0,-8.34228 0,-8.300782 8.30078,0 0,8.300782 -8.30078,0 m 0,-8.300782 0,-8.342285 8.30078,0 0,8.342285 -8.30078,0 m 0,-8.342285 0,-8.300781 8.30078,0 0,8.300781 -8.30078,0 m 0,-8.300781 0,-8.342285 8.30078,0 0,8.342285 -8.30078,0 m 0,-8.342285 0,-8.342285 8.30078,0 0,8.342285 -8.30078,0 m -8.34228,-16.477051 0,-8.342285 8.34228,0 0,8.342285 -8.34228,0 m 8.34228,66.240234 0,8.21777 -8.34228,0 0,-8.21777 8.34228,0 m -8.34228,0 0,-8.13477 8.34228,0 0,8.13477 -8.34228,0 m 0,-8.13477 0,-8.34228 8.34228,0 0,8.34228 -8.34228,0 m 0,-8.34228 0,-8.300782 8.34228,0 0,8.300782 -8.34228,0 m 0,-8.300782 0,-8.342285 8.34228,0 0,8.342285 -8.34228,0 m 0,-8.342285 0,-8.300781 8.34228,0 0,8.300781 -8.34228,0 m 0,-8.300781 0,-8.342285 8.34228,0 0,8.342285 -8.34228,0 m 0,-8.342285 0,-8.342285 8.34228,0 0,8.342285 -8.34228,0 m -8.34229,-16.477051 0,-8.342285 8.34229,0 0,8.342285 -8.34229,0 m 8.34229,66.240234 0,8.21777 -8.34229,0 0,-8.21777 8.34229,0 m -8.34229,0 0,-8.13477 8.34229,0 0,8.13477 -8.34229,0 m -8.13476,-66.240234 0,-8.342285 8.13476,0 0,8.342285 -8.13476,0 m 8.13476,66.240234 0,8.21777 -8.13476,0 0,-8.21777 8.13476,0 m -8.13476,0 0,-8.13477 8.13476,0 0,8.13477 -8.13476,0 m -8.34229,-66.240234 0,-8.342285 8.34229,0 0,8.342285 -8.34229,0 m 0,66.240234 0,-8.13477 8.34229,0 0,8.13477 -8.34229,0 m 0,-8.13477 0,-8.34228 8.34229,0 0,8.34228 -8.34229,0 m 0,-8.34228 0,-8.300782 8.34229,0 0,8.300782 -8.34229,0 m 0,-8.300782 0,-8.342285 8.34229,0 0,8.342285 -8.34229,0 m 0,-8.342285 0,-8.300781 8.34229,0 0,8.300781 -8.34229,0 m 0,-8.300781 0,-8.342285 8.34229,0 0,8.342285 -8.34229,0 m 0,-8.342285 0,-8.342285 8.34229,0 0,8.342285 -8.34229,0 m -8.30078,-16.477051 0,-8.342285 8.30078,0 0,8.342285 -8.30078,0 m 0,16.477051 0,-8.342285 8.30078,0 0,8.342285 -8.30078,0 m -8.34228,-16.477051 0,-8.342285 8.34228,0 0,8.342285 -8.34228,0 m 0,16.477051 0,-8.342285 8.34228,0 0,8.342285 -8.34228,0 m 0,-8.342285 0,-8.134766 8.34228,0 0,8.134766 -8.34228,0"
         style="font-variant:normal;font-stretch:normal;fill:#646464;font-family:Karmatic Arcade;-inkscape-font-specification:Karmatic Arcade"
         id="path4998" />
    </g>
    <path
       sodipodi:type="arc"
       style="fill:#e0251f;fill-opacity:1;stroke:none"
       id="path4804"
       sodipodi:cx="77"
       sodipodi:cy="175.36218"
       sodipodi:rx="26"
       sodipodi:ry="26"
       d="m 103,175.36218 a 26,26 0 1 1 -52,0 26,26 0 1 1 52,0 z"
       transform="translate(-10,0)" />
    <path
       transform="matrix(0.61538462,0,0,0.61538462,56.615385,208.44699)"
       sodipodi:type="arc"
       style="fill:#e0251f;fill-opacity:1;stroke:none"
       id="path4804-3"
       sodipodi:cx="77"
       sodipodi:cy="175.36218"
       sodipodi:rx="26"
       sodipodi:ry="26"
       d="m 103,175.36218 a 26,26 0 1 1 -52,0 26,26 0 1 1 52,0 z" />
    <path
       transform="matrix(0.76923077,0,0,0.76923077,62.769231,697.4682)"
       sodipodi:type="arc"
       style="fill:#e0251f;fill-opacity:1;stroke:none"
       id="path4804-4"
       sodipodi:cx="77"
       sodipodi:cy="175.36218"
       sodipodi:rx="26"
       sodipodi:ry="26"
       d="m 103,175.36218 a 26,26 0 1 1 -52,0 26,26 0 1 1 52,0 z" />
    <path
       transform="translate(563,649)"
       sodipodi:type="arc"
       style="fill:#e0251f;fill-opacity:1;stroke:none"
       id="path4804-6"
       sodipodi:cx="77"
       sodipodi:cy="175.36218"
       sodipodi:rx="26"
       sodipodi:ry="26"
       d="m 103,175.36218 a 26,26 0 1 1 -52,0 26,26 0 1 1 52,0 z" />
    <path
       transform="matrix(0.65384615,0,0,0.65384615,656.65385,558.70229)"
       sodipodi:type="arc"
       style="fill:#e0251f;fill-opacity:1;stroke:none"
       id="path4804-45"
       sodipodi:cx="77"
       sodipodi:cy="175.36218"
       sodipodi:rx="26"
       sodipodi:ry="26"
       d="m 103,175.36218 a 26,26 0 1 1 -52,0 26,26 0 1 1 52,0 z" />
    <path
       transform="translate(555,265)"
       sodipodi:type="arc"
       style="fill:#e0251f;fill-opacity:1;stroke:none"
       id="path4804-7"
       sodipodi:cx="77"
       sodipodi:cy="175.36218"
       sodipodi:rx="26"
       sodipodi:ry="26"
       d="m 103,175.36218 a 26,26 0 1 1 -52,0 26,26 0 1 1 52,0 z" />
    <path
       transform="matrix(0.69230769,0,0,0.69230769,502.69231,-43.042405)"
       sodipodi:type="arc"
       style="fill:#e0251f;fill-opacity:1;stroke:none"
       id="path4804-5"
       sodipodi:cx="77"
       sodipodi:cy="175.36218"
       sodipodi:rx="26"
       sodipodi:ry="26"
       d="m 103,175.36218 a 26,26 0 1 1 -52,0 26,26 0 1 1 52,0 z" />
    <path
       transform="translate(623,7)"
       sodipodi:type="arc"
       style="fill:#e0251f;fill-opacity:1;stroke:none"
       id="path4804-75"
       sodipodi:cx="77"
       sodipodi:cy="175.36218"
       sodipodi:rx="26"
       sodipodi:ry="26"
       d="m 103,175.36218 a 26,26 0 1 1 -52,0 26,26 0 1 1 52,0 z" />
    <path
       transform="translate(-15,779)"
       sodipodi:type="arc"
       style="fill:#e0251f;fill-opacity:1;stroke:none"
       id="path4804-34"
       sodipodi:cx="77"
       sodipodi:cy="175.36218"
       sodipodi:rx="26"
       sodipodi:ry="26"
       d="m 103,175.36218 a 26,26 0 1 1 -52,0 26,26 0 1 1 52,0 z" />
    <path
       transform="matrix(0.69230769,0,0,0.69230769,-5.3076923,450.95759)"
       sodipodi:type="arc"
       style="fill:#e0251f;fill-opacity:1;stroke:none"
       id="path4804-47"
       sodipodi:cx="77"
       sodipodi:cy="175.36218"
       sodipodi:rx="26"
       sodipodi:ry="26"
       d="m 103,175.36218 a 26,26 0 1 1 -52,0 26,26 0 1 1 52,0 z" />
    <path
       sodipodi:type="arc"
       style="fill:#e0251f;fill-opacity:0.39631336;stroke:#e0251f;stroke-width:1.47468364;stroke-miterlimit:4;stroke-opacity:1;stroke-dasharray:none"
       id="path4402-32"
       sodipodi:cx="45"
       sodipodi:cy="427.40942"
       sodipodi:rx="17"
       sodipodi:ry="18"
       d="m 62,427.40942 a 17,18 0 1 1 -34,0 17,18 0 1 1 34,0 z"
       transform="matrix(1.6777637,0,0,1.5845546,47.500633,154.10861)" />
    <path
       sodipodi:type="arc"
       style="fill:#e0251f;fill-opacity:0.39631336;stroke:#e0251f;stroke-width:1.47468364;stroke-miterlimit:4;stroke-opacity:1;stroke-dasharray:none"
       id="path4402-32-7"
       sodipodi:cx="45"
       sodipodi:cy="427.40942"
       sodipodi:rx="17"
       sodipodi:ry="18"
       d="m 62,427.40942 a 17,18 0 1 1 -34,0 17,18 0 1 1 34,0 z"
       transform="matrix(1.6777637,0,0,1.5845546,481.50063,-599.89139)" />
    <path
       style="fill:none;stroke:#e0251f;stroke-width:3;stroke-linecap:butt;stroke-linejoin:miter;stroke-miterlimit:4;stroke-opacity:1;stroke-dasharray:none"
       d="m 64,172.36218 -16,404 56,-264 z"
       id="path4907"
       inkscape:connector-curvature="0"
       sodipodi:nodetypes="cccc" />
    <path
       style="fill:none;stroke:#e0251f;stroke-width:3;stroke-linecap:butt;stroke-linejoin:miter;stroke-miterlimit:4;stroke-opacity:1;stroke-dasharray:none"
       d="m 62,960.36218 -14,-386 65,231"
       id="path4909"
       inkscape:connector-curvature="0"
       sodipodi:nodetypes="ccc" />
    <path
       style="fill:none;stroke:#e0251f;stroke-width:3;stroke-linecap:butt;stroke-linejoin:miter;stroke-opacity:1;stroke-miterlimit:4;stroke-dasharray:none"
       d="m 580,94.362183 118,89.999997 12,488 -70,154"
       id="path4911"
       inkscape:connector-curvature="0" />
    <path
       style="fill:none;stroke:#e0251f;stroke-width:3;stroke-linecap:butt;stroke-linejoin:miter;stroke-opacity:1;stroke-miterlimit:4;stroke-dasharray:none"
       d="m 636,440.36218 62,-256"
       id="path4913"
       inkscape:connector-curvature="0" />
  </g>
</svg>
